<svg width="126" height="126" viewBox="0 0 126 126" fill="none" xmlns="http://www.w3.org/2000/svg">
<path fill-rule="evenodd" clip-rule="evenodd" d="M5 1.90735e-06H0V5V24H5V5L24 5V0L5 1.90735e-06Z" fill="#EAA53C"/>
<path fill-rule="evenodd" clip-rule="evenodd" d="M5 126H0V121V102H5V121L24 121V126L5 126Z" fill="#EAA53C"/>
<path fill-rule="evenodd" clip-rule="evenodd" d="M126 5L126 0L121 -2.18557e-07L102 -1.04907e-06L102 5L121 5L121 24L126 24L126 5Z" fill="#EAA53C"/>
<path fill-rule="evenodd" clip-rule="evenodd" d="M126 121L126 126L121 126L102 126L102 121L121 121L121 102L126 102L126 121Z" fill="#EAA53C"/>
</svg>
