<svg width="90" height="90" viewBox="0 0 90 90" fill="none" xmlns="http://www.w3.org/2000/svg">
<g clip-path="url(#clip0_24_158)">
<path d="M6.3287 0C5.69631 0.0106299 5.14254 0.424134 4.97466 1.02446C4.3283 3.33572 2.78786 5.04554 0.945505 5.69641C-0.315168 6.13383 -0.315168 7.91785 0.945505 8.35511C2.78719 9.00843 4.32496 10.7233 4.96917 13.0353C5.15797 13.7123 5.74307 14.0539 6.31771 14.0625V14.0652C6.32147 14.0652 6.32494 14.0626 6.32872 14.0625C6.33247 14.0625 6.33595 14.0652 6.33972 14.0652V14.0625C6.91438 14.0518 7.49947 13.7122 7.68828 13.0353C8.33248 10.7233 9.87025 9.00843 11.7119 8.35511C12.9726 7.91769 12.9726 6.13367 11.7119 5.69641C9.86951 5.04554 8.3291 3.33572 7.68274 1.02446C7.51486 0.424027 6.96109 0.00993898 6.3287 0V0ZM83.6709 0.00276378C83.0385 0.0133937 82.4848 0.426898 82.3169 1.02722C81.6705 3.33848 80.1301 5.04831 78.2877 5.69918C77.0271 6.1366 77.0271 7.92062 78.2877 8.35782C80.1294 9.01114 81.6672 10.7261 82.3114 13.038C82.5002 13.715 83.0853 14.0566 83.66 14.0652V14.0681C83.6638 14.0681 83.6674 14.0654 83.6711 14.0652C83.6749 14.0653 83.6786 14.0681 83.6823 14.0681V14.0652C84.2569 14.0546 84.842 13.715 85.0308 13.038C85.675 10.7261 87.2128 9.01114 89.0545 8.35782C90.3152 7.9204 90.3152 6.13638 89.0545 5.69918C87.2111 5.04831 85.6713 3.33848 85.025 1.02722C84.8571 0.426791 84.3033 0.0126496 83.6709 0.00276378V0.00276378ZM6.3287 4.78729C6.86691 5.63226 7.67161 6.48133 8.37212 7.02574C7.29889 7.90504 6.75631 8.63006 6.3287 9.27795C5.90109 8.63006 5.35851 7.90504 4.28528 7.02574C4.98579 6.48133 5.79049 5.63226 6.3287 4.78729ZM85.7144 7.02851C84.6411 7.90781 84.0985 8.63277 83.6709 9.28072C83.2433 8.63277 82.7007 7.90781 81.6275 7.0285C82.328 6.48409 83.1327 5.63503 83.6709 4.79006C84.2092 5.63503 85.0139 6.4841 85.7144 7.02851ZM39.375 85.7867C39.375 88.0995 41.2397 90 43.5909 90H46.4089C48.7601 90 50.6248 88.0995 50.6248 85.7867L50.6262 84.375C52.9787 84.375 54.8435 82.4745 54.8435 80.1617V78.7499C56.7189 78.7499 56.7189 75.9375 54.8435 75.9375V73.125C56.47 73.125 56.681 71.0142 55.4862 70.4526C55.5539 69.8027 55.8048 69.1193 56.2003 68.3843C60.1674 70.7499 63.8492 72.4181 66.953 73.1304C69.3662 73.6843 71.4155 73.69 73.0887 72.9545C74.8823 72.1664 75.8831 70.6462 76.2088 68.7935C76.8228 65.2998 75.1591 60.158 71.504 53.8987C70.5693 52.2426 68.0923 53.6867 69.0733 55.316C72.5765 61.3151 73.8756 65.799 73.4348 68.3073C73.264 69.2785 72.8071 70.013 71.9571 70.3865C71.1072 70.7601 69.6528 70.8654 67.5901 70.3918C64.8385 69.7602 61.4891 68.2584 57.807 66.0797C58.7787 64.8554 59.919 63.5433 61.1523 62.034C64.2342 58.2622 67.494 53.4396 67.494 46.2466C67.494 43.6905 67.0885 41.2476 66.357 38.9599C69.6431 34.8272 72.373 30.8361 74.429 27.1826C77.7327 21.3121 79.415 16.1514 78.5021 12.6257C78.0161 10.7493 76.7673 9.35969 74.8683 8.77245C73.9829 8.49872 73.0218 8.40359 71.9872 8.45408C70.9526 8.50191 69.8454 8.70229 68.6667 9.01715C63.9518 10.2774 57.9791 13.5222 51.196 18.5588C49.6888 19.6744 51.3642 21.9349 52.8714 20.8192C59.4793 15.9127 65.2895 12.8225 69.3945 11.7253C71.447 11.1766 73.0447 11.1531 74.0334 11.459C75.0221 11.7646 75.5281 12.3833 75.7802 13.3239C76.4026 15.6468 75.2077 20.0622 71.9762 25.8044C70.2223 28.921 67.9067 32.3543 65.1484 35.931C61.6465 28.7932 54.436 23.9111 45.0026 23.9092C35.5671 23.9112 28.3578 28.7935 24.8567 35.9338C22.0963 32.3548 19.7784 28.9202 18.0234 25.8016C14.7918 20.0592 13.5971 15.6442 14.2195 13.3212C14.4715 12.3806 14.9775 11.762 15.9663 11.4562C16.955 11.1506 18.5526 11.174 20.6052 11.7225C24.7102 12.8198 30.5202 15.9098 37.1283 20.8165C38.6354 21.9322 40.3108 19.6717 38.8037 18.556C32.0204 13.5193 26.048 10.2747 21.333 9.01438C20.1542 8.6992 19.047 8.50149 18.0124 8.45126C16.9779 8.40337 16.0167 8.49373 15.1313 8.76958C13.2323 9.35677 11.9836 10.7464 11.4977 12.623C10.5847 16.1488 12.267 21.3092 15.5708 27.1799C17.6279 30.8353 20.3599 34.8276 23.6483 38.9627C22.9178 41.249 22.5112 43.6924 22.5112 46.2467C22.5112 53.4397 25.7711 58.2623 28.853 62.034C30.0857 63.5427 31.2268 64.8531 32.1982 66.077C28.5142 68.2573 25.1625 69.76 22.4096 70.3918C20.347 70.8654 18.8926 70.7596 18.0426 70.3865C17.1927 70.0129 16.7357 69.2785 16.565 68.3074C16.1242 65.799 17.4233 61.3149 20.9265 55.316C21.9074 53.6868 19.4305 52.2426 18.4958 53.8987C14.8407 60.1578 13.177 65.2999 13.791 68.7935C14.1166 70.6462 15.1175 72.1664 16.9111 72.9545C18.5842 73.6898 20.6336 73.6842 23.0468 73.1304C26.1524 72.4177 29.8379 70.7493 33.8077 68.3816C34.2109 69.118 34.4509 69.7998 34.5191 70.4498C33.3178 71.0073 33.5271 73.125 35.1563 73.125V75.9375C33.2809 75.9375 33.2809 78.7499 35.1563 78.7499V80.1617C35.1563 82.4745 37.021 84.375 39.3736 84.375L39.375 85.7867ZM44.9998 15.4715C44.2965 15.4715 43.5936 15.9402 43.5936 16.8778V19.6902C43.5936 21.5657 46.406 21.5657 46.406 19.6902V16.8778C46.406 15.94 45.7031 15.4715 44.9998 15.4715ZM23.1237 26.521L25.1122 28.5123C26.4383 29.8384 28.4268 27.8471 27.1007 26.521L25.1122 24.5325C24.7807 24.2008 24.407 24.0748 24.0548 24.0957C22.9981 24.1579 22.1291 25.5264 23.1237 26.521ZM64.8874 24.5326L62.8962 26.5212C61.5701 27.8473 63.5586 29.8385 64.8847 28.5125L66.8759 26.5212C67.8705 25.5266 66.9989 24.1581 65.9421 24.0958C65.5898 24.0745 65.219 24.201 64.8874 24.5326V24.5326ZM63.1817 38.4082C61.4932 40.4798 59.678 42.5842 57.7216 44.6978C53.6048 49.1455 49.2691 53.2378 44.9942 56.8213C40.723 53.2367 36.3898 49.1376 32.2779 44.6951C30.3239 42.584 28.5101 40.483 26.8233 38.4137C29.6448 31.5035 36.2445 26.7263 45.0025 26.7242C53.7582 26.7262 60.359 31.501 63.1817 38.4082ZM7.01533 29.534C6.38641 29.5368 5.83331 29.9555 5.66404 30.5612C4.91536 33.2059 3.11136 35.1861 0.931772 35.9472C-0.309142 36.3932 -0.309142 38.149 0.931772 38.5949C3.11231 39.3532 4.92385 41.3397 5.67503 43.9837C6.07044 45.331 7.97963 45.331 8.37486 43.9837C9.12354 41.339 10.9274 39.356 13.1071 38.5949C14.3677 38.1575 14.3677 36.3735 13.1071 35.9362C10.9266 35.1781 9.12603 33.2051 8.37486 30.5612C8.20479 29.9517 7.64821 29.5316 7.01533 29.534V29.534ZM82.9568 29.534C82.3279 29.5368 81.7748 29.9555 81.6055 30.5612C80.8569 33.2059 79.0529 35.1861 76.8733 35.9472C75.6324 36.3932 75.6324 38.149 76.8733 38.5949C79.0538 39.3532 80.8654 41.3397 81.6165 43.9837C82.012 45.331 83.9211 45.331 84.3164 43.9837C85.0651 41.339 86.869 39.356 89.0486 38.5949C90.3092 38.1575 90.3092 36.3735 89.0486 35.9362C86.8681 35.1781 85.0675 33.2051 84.3164 30.5612C84.1463 29.9517 83.5897 29.5316 82.9568 29.534V29.534ZM44.9998 29.5367C41.5453 29.5367 38.1701 30.5889 35.3375 32.5661C33.7451 33.6357 35.4032 36.0089 36.9552 34.8816C39.316 33.2336 42.1208 32.3492 44.9998 32.3492C46.9136 32.3883 46.9136 29.4975 44.9998 29.5367ZM7.01533 34.368C7.87881 35.7014 8.46261 36.3042 9.66573 37.2656C8.63167 38.1047 7.87288 38.8022 7.02632 40.166C6.10035 38.6584 5.08363 37.8132 4.36493 37.2683C5.34643 36.5248 6.27782 35.628 7.01533 34.368ZM82.9568 34.368C83.8203 35.7014 84.4041 36.3042 85.6072 37.2656C84.5732 38.1047 83.8144 38.8022 82.9678 40.166C82.0419 38.6584 81.0251 37.8132 80.3064 37.2683C81.2879 36.5248 82.2193 35.628 82.9568 34.368ZM32.3438 36.5652C31.5672 36.5652 30.9375 37.1948 30.9376 37.9715C30.9376 38.7481 31.5672 39.3777 32.3438 39.3777C33.1205 39.3777 33.7501 38.7481 33.75 37.9715C33.7501 37.1948 33.1205 36.5652 32.3438 36.5652ZM64.6925 46.2469C64.6925 52.3992 61.9162 56.6561 58.9714 60.26C57.7309 61.7783 56.4721 63.173 55.3817 64.5721C52.7584 62.877 50.0034 60.8785 47.1971 58.6313C51.4946 54.9984 55.7847 50.9169 59.7844 46.5958C61.3256 44.9306 62.7898 43.2726 64.1733 41.6272C64.5021 43.1091 64.6925 44.6485 64.6925 46.2469H64.6925ZM25.8318 41.63C27.2139 43.2735 28.6758 44.9327 30.2153 46.5958C34.2112 50.9129 38.4992 54.9976 42.7944 58.6313C39.9935 60.8718 37.2398 62.8769 34.6207 64.5694C33.5308 63.1712 32.2734 61.7772 31.0337 60.26C28.089 56.6562 25.3127 52.3993 25.3127 46.247C25.3127 44.6495 25.5035 43.1111 25.8318 41.63H25.8318ZM15.4691 45.0028C13.5937 45.0028 13.5937 47.8125 15.4691 47.8125H18.2816C20.157 47.8125 20.157 45.0028 18.2816 45.0028H15.4691ZM71.7153 45.0028C69.8399 45.0028 69.8399 47.8125 71.7153 47.8125H74.5305C76.4059 47.8125 76.4059 45.0028 74.5305 45.0028H71.7153ZM44.9998 60.4605C47.9888 62.8775 50.9522 65.0449 53.8052 66.8929C53.2004 67.9656 52.7567 69.0896 52.6599 70.3125H37.3452C37.2483 69.0886 36.8112 67.9601 36.2027 66.8875C39.0518 65.0415 42.0162 62.8716 44.9998 60.4605ZM67.3428 65.7669C68.817 66.9262 70.5555 64.7152 69.0814 63.5559L66.8704 61.8173C66.5019 61.5276 66.1164 61.4473 65.7691 61.5096C64.7272 61.6968 64.0263 63.1588 65.1319 64.0283L67.3428 65.7669ZM23.1375 61.8281L20.9265 63.5694C19.453 64.7295 21.1915 66.9405 22.6651 65.7804L24.876 64.0389C25.9812 63.1688 25.2808 61.7068 24.2388 61.5203C23.8915 61.4581 23.5058 61.5362 23.1375 61.8281ZM9.847 67.5106C9.21424 67.5078 8.65792 67.9284 8.48747 68.5378C7.3021 72.8819 4.43085 76.1666 0.931772 77.434C-0.309284 77.8799 -0.309284 79.6385 0.931772 80.0845C4.43228 81.3471 7.30898 84.6267 8.49846 88.9696C8.88111 90.3413 10.8268 90.3413 11.2093 88.9696C12.3947 84.6256 15.2659 81.3408 18.765 80.0735C20.0061 79.6275 20.0061 77.869 18.765 77.423C15.2645 76.1602 12.3877 72.8807 11.1983 68.5378C11.0287 67.9319 10.4761 67.5128 9.847 67.5106V67.5106ZM80.1499 67.5106C79.5171 67.5078 78.9608 67.9284 78.7904 68.5378C77.605 72.8819 74.7337 76.1666 71.2347 77.434C69.9936 77.8799 69.9936 79.6385 71.2347 80.0845C74.7352 81.3471 77.6119 84.6267 78.8013 88.9696C79.184 90.3413 81.1297 90.3413 81.5122 88.9696C82.6975 84.6256 85.5688 81.3408 89.0679 80.0735C90.309 79.6275 90.309 77.869 89.0679 77.423C85.5674 76.1604 82.6905 72.8807 81.5012 68.5378C81.3316 67.9319 80.779 67.5128 80.1499 67.5106V67.5106ZM9.847 72.6767C11.2335 75.4974 12.8404 77.2919 15.1945 78.7522C12.7628 80.308 11.2296 82.1478 9.847 84.8002C8.59918 82.2542 6.67799 79.973 4.5105 78.7632C6.94993 77.1584 8.48205 75.3935 9.847 72.6767ZM80.1499 72.6767C81.5364 75.4974 83.1433 77.2919 85.4974 78.7522C83.0657 80.308 81.5324 82.1478 80.1499 84.8002C78.9021 82.2542 76.9809 79.973 74.8134 78.7632C77.2528 77.1584 78.7849 75.3935 80.1499 72.6767ZM37.9687 73.1243H52.0309V75.9368H37.9687V73.1243ZM37.9687 78.7492H52.0309V80.161C52.0309 80.9643 51.3869 81.5618 50.6275 81.5618H39.3722C38.6128 81.5618 37.9687 80.9643 37.9687 80.161V78.7492ZM42.1874 84.3743H47.8123V85.786C47.8123 86.5894 47.1682 87.1867 46.4088 87.1867H43.5909C42.8314 87.1867 42.1874 86.5894 42.1874 85.786V84.3743Z" fill="#EAA53C"/>
</g>
<defs>
<clipPath id="clip0_24_158">
<rect width="90" height="90" fill="white"/>
</clipPath>
</defs>
</svg>
