<svg width="100" height="100" viewBox="0 0 100 100" fill="none" xmlns="http://www.w3.org/2000/svg">
<g clip-path="url(#clip0_170_1021)">
<path d="M98.3334 96.6665H1.6666C0.744922 96.6665 0 97.4132 0 98.3331C0 99.253 0.744922 99.9999 1.6666 99.9999H98.3332C99.2549 99.9999 99.9998 99.2532 99.9998 98.3333C99.9998 97.4134 99.2551 96.6665 98.3334 96.6665Z" fill="#EAA53C"/>
<path d="M50 0H6.6666C5.74492 0 5 0.74668 5 1.6666V98.3332C5 99.2531 5.74492 99.9998 6.6666 99.9998H50C50.9217 99.9998 51.6666 99.2531 51.6666 98.3332V1.6666C51.6666 0.74668 50.9217 0 50 0ZM48.3334 96.6666H8.3334V3.3334H48.3334V96.6666Z" fill="#EAA53C"/>
<path d="M43.3334 6.6665H13.3334C12.4117 6.6665 11.6668 7.41318 11.6668 8.33311V98.3331C11.6668 99.253 12.4117 99.9997 13.3334 99.9997H43.3334C44.2551 99.9997 45 99.253 45 98.3331V8.33311C45 7.41318 44.2551 6.6665 43.3334 6.6665ZM41.6666 96.6665H15V9.9999H41.6666V96.6665Z" fill="#EAA53C"/>
<path d="M93.3334 0H50C49.0783 0 48.3334 0.74668 48.3334 1.6666V98.3332C48.3334 99.2531 49.0783 99.9998 50 99.9998H93.3334C94.2551 99.9998 95 99.2531 95 98.3332V1.6666C95 0.74668 94.2551 0 93.3334 0ZM91.6666 96.6666H51.6666V3.3334H91.6666V96.6666Z" fill="#EAA53C"/>
<path d="M86.6666 6.6665H56.6666C55.7449 6.6665 55 7.41318 55 8.33311V98.3331C55 99.253 55.7449 99.9997 56.6666 99.9997H86.6666C87.5883 99.9997 88.3332 99.253 88.3332 98.3331V8.33311C88.3334 7.41318 87.5883 6.6665 86.6666 6.6665ZM85 96.6665H58.3334V9.9999H85V96.6665Z" fill="#EAA53C"/>
<path d="M63.3334 41.6665C62.4117 41.6665 61.6668 42.4132 61.6668 43.3331V63.3331C61.6668 64.253 62.4117 64.9997 63.3334 64.9997C64.2551 64.9997 65 64.253 65 63.3331V43.3331C65 42.4132 64.2551 41.6665 63.3334 41.6665Z" fill="#EAA53C"/>
<path d="M36.6666 41.6665C35.7449 41.6665 35 42.4132 35 43.3331V63.3331C35 64.253 35.7449 64.9997 36.6666 64.9997C37.5883 64.9997 38.3332 64.253 38.3332 63.3331V43.3331C38.3334 42.4132 37.5883 41.6665 36.6666 41.6665Z" fill="#EAA53C"/>
</g>
<defs>
<clipPath id="clip0_170_1021">
<rect width="100" height="100" fill="white"/>
</clipPath>
</defs>
</svg>
