<svg width="62" height="62" viewBox="0 0 62 62" fill="none" xmlns="http://www.w3.org/2000/svg">
<g clip-path="url(#clip0_170_1058)">
<path d="M24.7954 56.2847C25.1501 55.9301 25.1501 55.3551 24.7954 55.0004L22.7483 52.9532C22.3936 52.5984 21.8186 52.5985 21.464 52.9532C21.1093 53.3079 21.1093 53.8828 21.464 54.2375L23.5111 56.2847C23.8656 56.6395 24.4407 56.6394 24.7954 56.2847ZM40.5361 52.9532C40.1814 52.5985 39.6064 52.5985 39.2518 52.9532L37.2047 55.0004C36.85 55.3551 36.85 55.9302 37.2047 56.2847C37.5594 56.6394 38.1345 56.6394 38.489 56.2847L40.5361 54.2375C40.8908 53.8828 40.8908 53.3079 40.5361 52.9532ZM56.8535 3.86047H44.9688C44.821 2.83529 43.9392 2.04418 42.8738 2.04418H41.1681C41.1282 0.910625 40.196 0 39.0527 0H22.9473C21.804 0 20.8718 0.910625 20.8319 2.04418H19.1262C18.0608 2.04418 17.179 2.83529 17.0312 3.86047H5.14649C3.54805 3.85151 2.22571 5.18754 2.22571 6.78125C2.22571 8.3918 3.53594 9.70203 5.14649 9.70203H17.0312C17.179 10.7272 18.0608 11.5183 19.1262 11.5183H20.8281V12.2133C20.8281 12.5796 20.9238 12.9415 21.1047 13.26L24.6031 19.4179C24.6289 19.4633 24.6426 19.515 24.6426 19.5673V31.7412C24.6426 32.2428 25.0492 32.6494 25.5508 32.6494C26.0524 32.6494 26.459 32.2428 26.459 31.7412V25.0664H30.0918V39.5977H26.7617C26.5949 39.5977 26.459 39.4618 26.459 39.2949V35.9795C26.459 35.4779 26.0524 35.0713 25.5508 35.0713C25.0492 35.0713 24.6426 35.4779 24.6426 35.9795V39.2949C24.6426 40.4634 25.5933 41.4141 26.7617 41.4141H27.9024V57.1223C27.9024 57.5069 28.0078 57.885 28.2071 58.2158L29.3926 60.1836H12.3054C11.8039 60.1836 11.3972 60.5902 11.3972 61.0918C11.3972 61.5934 11.8039 62 12.3054 62H49.6947C50.1963 62 50.6029 61.5934 50.6029 61.0918C50.6029 60.5902 50.1963 60.1836 49.6947 60.1836H32.6074L33.7929 58.2158C33.9922 57.885 34.0976 57.5069 34.0976 57.1223V41.4141H35.2383C36.4067 41.4141 37.3574 40.4634 37.3574 39.2949V19.5672C37.3574 19.5149 37.3711 19.4632 37.3969 19.4176L40.8953 13.2599C41.0763 12.9414 41.1719 12.5795 41.1719 12.2132V11.5182H42.8738C43.9392 11.5182 44.821 10.7271 44.9688 9.70191H48.9683C49.4698 9.70191 49.8765 9.29528 49.8765 8.79371C49.8765 8.29214 49.4698 7.8855 48.9683 7.8855H44.993V5.67688H56.8535C57.4625 5.67688 57.9579 6.17227 57.9579 6.78125C57.9579 7.37836 57.4517 7.88865 56.8535 7.88563H53.2064C52.7048 7.88563 52.2982 8.29226 52.2982 8.79383C52.2982 9.2954 52.7048 9.70203 53.2064 9.70203H56.8535C58.4328 9.7093 59.7743 8.36479 59.7743 6.78125C59.7743 5.1707 58.4641 3.86047 56.8535 3.86047ZM17.007 7.88563H5.14649C4.53751 7.88563 4.04211 7.39023 4.04211 6.78125C4.04211 6.1805 4.54635 5.67409 5.14649 5.67688H17.007V7.88563ZM20.8281 9.70191H19.1262C18.9593 9.70191 18.8234 9.56604 18.8234 9.39918V4.16332C18.8234 3.99646 18.9593 3.86059 19.1262 3.86059H20.8281V9.70191ZM26.2773 1.81641H35.7227V10.0046C35.7227 10.1715 35.5868 10.3074 35.4199 10.3074H26.5801C26.4132 10.3074 26.2773 10.1715 26.2773 10.0046V1.81641ZM32.2812 57.1223C32.2812 57.1766 32.2659 57.2306 32.2371 57.2786L31 59.3318L29.7629 57.2784C29.7341 57.2306 29.7188 57.1766 29.7188 57.1223V41.4141H32.2812V57.1223ZM35.541 39.2949C35.541 39.4618 35.4052 39.5977 35.2383 39.5977H31.9082V25.0664H35.541V39.2949ZM39.3555 12.2133C39.3555 12.2656 39.3418 12.3173 39.316 12.3628L35.8177 18.5204C35.6367 18.8389 35.541 19.2009 35.541 19.5673V23.25H26.459V19.5672C26.459 19.2007 26.3633 18.8388 26.1824 18.5204L22.684 12.3627C22.6582 12.3172 22.6445 12.2655 22.6445 12.2132V2.11914C22.6445 1.95227 22.7804 1.81641 22.9473 1.81641H24.4609V10.0046C24.4609 11.1731 25.4116 12.1238 26.5801 12.1238H35.4199C36.5884 12.1238 37.5391 11.1731 37.5391 10.0046V1.81641H39.0527C39.2196 1.81641 39.3555 1.95227 39.3555 2.11914V12.2133ZM43.1766 9.39918C43.1766 9.56604 43.0407 9.70191 42.8738 9.70191H41.1719V3.86059H42.8738C43.0407 3.86059 43.1766 3.99646 43.1766 4.16332V9.39918ZM17.1963 54.0059C16.8577 54.3759 16.8833 54.9504 17.2532 55.289L20.534 58.291C20.9031 58.6289 21.4778 58.6049 21.8171 58.2341C22.1557 57.864 22.1301 57.2896 21.7602 56.951L18.4794 53.949C18.1095 53.6104 17.535 53.6359 17.1963 54.0059ZM41.466 58.291L44.7468 55.289C45.1169 54.9504 45.1424 54.3758 44.8037 54.0059C44.4651 53.6359 43.8907 53.6104 43.5206 53.949L40.2398 56.951C39.8698 57.2896 39.8442 57.8642 40.1829 58.2341C40.5222 58.6049 41.0969 58.6289 41.466 58.291Z" fill="#EAA53C"/>
</g>
<defs>
<clipPath id="clip0_170_1058">
<rect width="62" height="62" fill="white"/>
</clipPath>
</defs>
</svg>
