<svg width="60" height="60" viewBox="0 0 60 60" fill="none" xmlns="http://www.w3.org/2000/svg">
<g clip-path="url(#clip0_171_1123)">
<path d="M2 60H36C37.1046 60 38 59.1046 38 58V56C38 54.8954 37.1046 54 36 54V39C37.1046 39 38 38.1046 38 37V26C38 25.4477 37.5523 25 37 25H36V24.274C36 23.8856 36.225 23.5323 36.577 23.368L49.269 17.445C50.3232 16.9496 50.9973 15.8908 51 14.726V12C51 10.3431 49.6569 9 48 9H47V7C47 5.89543 46.1046 5 45 5H36V2C36 0.89543 35.1046 0 34 0H2C0.89543 0 0 0.89543 0 2V58C0 59.1046 0.89543 60 2 60ZM36 58H2V56H36V58ZM34 37V27H36V37H34ZM48 11C48.5523 11 49 11.4477 49 12V14.726C49 15.1144 48.775 15.4677 48.423 15.632L36 21.43V15H45C46.1046 15 47 14.1046 47 13V11H48ZM45 10V13H23V7H45V10ZM34 5H23C21.8954 5 21 5.89543 21 7V9C20.4477 9 20 9.44771 20 10C20 10.5523 20.4477 11 21 11V13C21 14.1046 21.8954 15 23 15H34V25H33C32.4477 25 32 25.4477 32 26V21C32 18.7909 30.2091 17 28 17C25.7909 17 24 18.7909 24 21V26C24 27.1046 23.1046 28 22 28C20.8954 28 20 27.1046 20 26V16C20 13.7909 18.2091 12 16 12C13.7909 12 12 13.7909 12 16V18C12 19.1046 11.1046 20 10 20C8.89543 20 8 19.1046 8 18V2H34V5ZM2 2H6V18C6 20.2091 7.79086 22 10 22C12.2091 22 14 20.2091 14 18V16C14 14.8954 14.8954 14 16 14C17.1046 14 18 14.8954 18 16V26C18 28.2091 19.7909 30 22 30C24.2091 30 26 28.2091 26 26V21C26 19.8954 26.8954 19 28 19C29.1046 19 30 19.8954 30 21V26C30.0053 27.2668 30.8056 28.3937 32 28.816V37C32 38.1046 32.8954 39 34 39V54H2V2Z" fill="#EAA53C"/>
<path d="M43 60H57C58.1046 60 59 59.1046 59 58V44C59.5523 44 60 43.5523 60 43C60 42.4477 59.5523 42 59 42H58V41C58 36.5817 54.4183 33 50 33C45.5817 33 42 36.5817 42 41V42H41C40.4477 42 40 42.4477 40 43C40 43.5523 40.4477 44 41 44V58C41 59.1046 41.8954 60 43 60ZM44 41C44 37.6863 46.6863 35 50 35C53.3137 35 56 37.6863 56 41V42H44V41ZM45 44V51C45 51.5523 45.4477 52 46 52C46.5523 52 47 51.5523 47 51V44H49V48C49 48.5523 49.4477 49 50 49C50.5523 49 51 48.5523 51 48V44H57V58H43V44H45Z" fill="#EAA53C"/>
</g>
<defs>
<clipPath id="clip0_171_1123">
<rect width="60" height="60" fill="white"/>
</clipPath>
</defs>
</svg>
