<svg width="90" height="90" viewBox="0 0 90 90" fill="none" xmlns="http://www.w3.org/2000/svg">
<path d="M85.3692 72.1519C85.1056 71.8882 84.7479 71.7399 84.375 71.7399C84.002 71.7399 83.6444 71.5917 83.3806 71.328C83.1169 71.0643 82.9688 70.7066 82.9688 70.3336C82.969 69.9609 82.8214 69.6033 82.5581 69.3394L69.9216 56.6831C69.7911 56.5523 69.6362 56.4484 69.4656 56.3775C69.295 56.3066 69.1121 56.2699 68.9273 56.2697C68.5544 56.2697 68.1967 56.1216 67.933 55.8578C67.6693 55.5941 67.5211 55.2364 67.5211 54.8635C67.521 54.4905 67.3728 54.1329 67.1091 53.8692L64.2966 51.0567C64.0353 50.7954 63.6817 50.6474 63.3122 50.6447L56.8322 50.625L52.6134 46.4217C52.4239 46.2294 52.2745 46.0013 52.1738 45.7507C52.0731 45.5001 52.0232 45.232 52.027 44.962C52.0308 44.6919 52.0882 44.4254 52.1959 44.1777C52.3036 43.93 52.4594 43.7062 52.6542 43.5192L68.3438 26.4642C69.4184 25.3898 70.2708 24.1142 70.8524 22.7103C71.434 21.3063 71.7333 19.8016 71.7333 18.282C71.7333 16.7624 71.434 15.2576 70.8524 13.8537C70.2708 12.4498 69.4184 11.1742 68.3438 10.0997L63.0633 4.82487C60.8817 2.64798 57.9257 1.42542 54.8438 1.42542C51.7618 1.42542 48.8058 2.64798 46.6242 4.82487L46.4063 5.04284L45.5822 4.21878C44.667 3.347 43.4515 2.86074 42.1875 2.86074C40.9235 2.86074 39.708 3.347 38.7928 4.21878L2.8125 40.1991C1.9122 41.0994 1.40643 42.3205 1.40643 43.5938C1.40643 44.867 1.9122 46.0881 2.8125 46.9885L3.81516 47.9911L1.6425 51.2522C1.46248 51.5226 1.38162 51.847 1.41366 52.1703C1.44571 52.4935 1.58868 52.7957 1.81828 53.0255L5.625 56.8322V82.2656C5.625 83.944 6.29171 85.5536 7.47847 86.7403C8.66522 87.9271 10.2748 88.5938 11.9531 88.5938C13.6314 88.5938 15.241 87.9271 16.4278 86.7403C17.6145 85.5536 18.2813 83.944 18.2813 82.2656V71.7188C18.2813 70.9729 18.5776 70.2575 19.105 69.73C19.6325 69.2026 20.3478 68.9063 21.0938 68.9063C21.8397 68.9063 22.555 69.2026 23.0825 69.73C23.6099 70.2575 23.9063 70.9729 23.9063 71.7188C23.9063 73.2106 24.4989 74.6414 25.5538 75.6962C26.6087 76.7511 28.0394 77.3438 29.5313 77.3438C31.0231 77.3438 32.4538 76.7511 33.5087 75.6962C34.5636 74.6414 35.1563 73.2106 35.1563 71.7188V39.9572L54.8438 20.2697C55.744 19.3694 56.2498 18.1483 56.2498 16.875C56.2498 15.6018 55.744 14.3807 54.8438 13.4803L52.6134 11.25L53.4291 10.4344C53.8104 10.0709 54.317 9.86815 54.8438 9.86815C55.3705 9.86815 55.8771 10.0709 56.2584 10.4344L62.7272 16.9032C62.9107 17.0897 63.0553 17.3109 63.1526 17.5538C63.2499 17.7967 63.298 18.0566 63.2941 18.3182C63.2902 18.5799 63.2343 18.8382 63.1298 19.078C63.0252 19.3179 62.874 19.5347 62.685 19.7157L47.0053 36.7636C44.824 38.9494 43.599 41.9113 43.599 44.9993C43.599 48.0873 44.824 51.0492 47.0053 53.235L50.625 56.8378L50.6461 63.2813C50.6488 63.6508 50.7968 64.0044 51.0581 64.2657L53.8706 67.0782C54.1343 67.3419 54.4919 67.4901 54.8648 67.4902C55.2378 67.4902 55.5955 67.6383 55.8592 67.9021C56.1229 68.1658 56.2711 68.5235 56.2711 68.8964C56.2708 69.2692 56.4185 69.6268 56.6817 69.8907L69.3169 82.5469C69.4468 82.6794 69.6016 82.785 69.7725 82.8574C69.9434 82.9298 70.1269 82.9676 70.3125 82.9688C70.6855 82.9688 71.0432 83.1169 71.3069 83.3807C71.5706 83.6444 71.7188 84.0021 71.7188 84.375C71.7188 84.748 71.867 85.1056 72.1308 85.3692L74.9433 88.1817C75.2069 88.4455 75.5646 88.5937 75.9375 88.5938H78.75C79.1229 88.5937 79.4806 88.4455 79.7442 88.1817L83.8125 84.1163C83.8668 84.0761 83.9181 84.0319 83.9658 83.9841L88.1845 79.7653C88.4472 79.5012 88.5944 79.1436 88.5938 78.7711V75.9586C88.5937 75.5857 88.4455 75.2281 88.1817 74.9644L85.3692 72.1519ZM7.20984 54.4402L4.62234 51.8527L5.84297 50.0246L9.04219 53.2182L7.20984 54.4402ZM32.3438 71.7188C32.3438 72.4647 32.0474 73.1801 31.52 73.7075C30.9925 74.235 30.2772 74.5313 29.5313 74.5313C28.7853 74.5313 28.07 74.235 27.5425 73.7075C27.0151 73.1801 26.7188 72.4647 26.7188 71.7188C26.7188 70.2269 26.1261 68.7962 25.0712 67.7413C24.0163 66.6864 22.5856 66.0938 21.0938 66.0938C19.6019 66.0938 18.1712 66.6864 17.1163 67.7413C16.0614 68.7962 15.4688 70.2269 15.4688 71.7188V82.2656C15.4688 83.1981 15.0984 84.0923 14.439 84.7516C13.7797 85.4109 12.8855 85.7813 11.9531 85.7813C11.0207 85.7813 10.1265 85.4109 9.4672 84.7516C8.8079 84.0923 8.4375 83.1981 8.4375 82.2656V57.0024L11.07 55.246L12.0741 56.25C12.9744 57.1503 14.1955 57.6561 15.4688 57.6561C16.742 57.6561 17.9631 57.1503 18.8634 56.25L32.3438 42.7697V71.7188ZM52.8553 15.4688C53.228 15.8419 53.4373 16.3477 53.4373 16.875C53.4373 17.4024 53.228 17.9082 52.8553 18.2813L16.875 54.2616C16.4935 54.618 15.9908 54.8162 15.4688 54.8162C14.9467 54.8162 14.444 54.618 14.0625 54.2616L4.80094 45C4.42825 44.6269 4.21891 44.1211 4.21891 43.5938C4.21891 43.0664 4.42825 42.5606 4.80094 42.1875L40.7813 6.20721C41.1544 5.83452 41.6601 5.62518 42.1875 5.62518C42.7149 5.62518 43.2206 5.83452 43.5938 6.20721L52.8553 15.4688ZM48.9938 51.2438C48.1728 50.4183 47.5226 49.4391 47.0803 48.3622C46.6381 47.2854 46.4124 46.1318 46.4161 44.9677C46.4199 43.8035 46.6531 42.6515 47.1024 41.5775C47.5517 40.5035 48.2082 39.5286 49.0345 38.7085L64.71 21.6563C65.6031 20.7601 66.1046 19.5465 66.1046 18.2813C66.1046 17.0161 65.6031 15.8025 64.71 14.9063L58.2413 8.43753C57.3252 7.5608 56.1061 7.07143 54.8381 7.07143C53.5701 7.07143 52.3511 7.5608 51.435 8.43753L50.6194 9.25315L48.3947 7.03128L48.6127 6.81331C50.2666 5.16334 52.5075 4.23673 54.8438 4.23673C57.18 4.23673 59.4209 5.16334 61.0748 6.81331L66.3497 12.0938C67.1665 12.9108 67.8136 13.8813 68.2538 14.9494C68.694 16.0176 68.9186 17.1622 68.9147 18.3175C68.9108 19.4727 68.6784 20.6158 68.231 21.6809C67.7835 22.7461 67.1298 23.7121 66.3075 24.5236L50.625 41.5772C49.7189 42.4847 49.2099 43.7148 49.2099 44.9972C49.2099 46.2797 49.7189 47.5097 50.625 48.4172L54.2573 52.0313L52.0313 54.2644L48.9938 51.2438ZM53.4488 59.8978L53.4375 56.8322L56.8266 53.4375L59.8964 53.446L53.4488 59.8978ZM56.6831 65.101C56.309 64.9195 55.91 64.7948 55.4991 64.7311L54.0408 63.2813L63.2911 54.031L64.755 55.4949C64.8183 55.9002 64.941 56.2939 65.1192 56.6635L56.6831 65.101ZM72.1308 80.5697C71.7572 80.3878 71.3586 80.2626 70.9481 80.1985L59.0414 68.2749C58.9777 67.864 58.8531 67.4649 58.6716 67.0908L67.1091 58.6533C67.4872 58.8386 67.8911 58.9656 68.3072 59.0302L80.2125 70.9538C80.2757 71.3593 80.3989 71.7532 80.5781 72.1224L72.1308 80.5697ZM85.7813 78.1875L82.125 81.8438C82.0704 81.8835 82.0191 81.9278 81.9717 81.976L78.1678 85.7813H76.5197L74.4848 83.745C74.4207 83.3345 74.2955 82.9359 74.1136 82.5624L82.5511 74.1249C82.9285 74.3107 83.332 74.4378 83.7478 74.5017L85.7813 76.5408V78.1875Z" fill="#EAA53C"/>
</svg>
