<svg width="32" height="32" viewBox="0 0 32 32" fill="none" xmlns="http://www.w3.org/2000/svg">
<path d="M27.9993 21.9689V25.5819C28.0049 26.9631 26.7631 28.1164 25.3686 27.9906C13.3335 28 4.00012 18.58 4.00954 6.62558C3.88396 5.2386 5.03156 4.00141 6.41093 4.00012H10.0311C10.6168 3.99436 11.1845 4.20134 11.6285 4.58246C12.891 5.66599 13.703 9.3437 13.3905 10.8057C13.1466 11.9472 11.996 12.7457 11.2137 13.5265C12.9316 16.5416 15.433 19.0381 18.4541 20.7525C19.2364 19.9718 20.0365 18.8234 21.1802 18.58C22.6474 18.2677 26.3488 19.0809 27.428 20.3521C27.8107 20.8028 28.014 21.3783 27.9993 21.9689Z" stroke="#212121" stroke-width="1.5" stroke-linecap="round" stroke-linejoin="round"/>
</svg>
