<svg width="60" height="60" viewBox="0 0 60 60" fill="none" xmlns="http://www.w3.org/2000/svg">
<path d="M53.3025 15H57.1875C57.7052 15 58.125 14.5802 58.125 14.0625V6.5625C58.125 6.04477 57.7052 5.625 57.1875 5.625H51.5625C46.91 5.625 43.125 9.41004 43.125 14.0625V17.8125C42.6073 17.8125 42.1875 18.2323 42.1875 18.75V22.5C42.1875 23.0177 42.6073 23.4375 43.125 23.4375V26.9571C43.125 27.6011 42.6011 28.125 41.9571 28.125H34.6875C35.2052 28.125 35.625 27.7052 35.625 27.1875V23.4375C35.625 22.9198 35.2052 22.5 34.6875 22.5V19.5262C35.7786 19.1393 36.5625 18.0971 36.5625 16.875C36.5625 15.3243 35.3009 14.0625 33.75 14.0625V11.25C33.75 10.7323 33.3302 10.3125 32.8125 10.3125V8.6516L36.4761 9.05871C36.6032 9.07277 36.7301 9.0798 36.8566 9.0798C37.7021 9.0798 38.5256 8.76867 39.1617 8.19938C39.8931 7.54477 40.3125 6.60645 40.3125 5.625C40.3125 4.64355 39.8931 3.70523 39.1617 3.05062C38.4305 2.39613 37.4517 2.08277 36.4761 2.19129L32.2876 2.65664C31.6541 2.16727 30.8607 1.875 30 1.875C29.1393 1.875 28.3459 2.16727 27.7123 2.65664L23.5239 2.19129C22.548 2.08312 21.5695 2.39625 20.8383 3.05062C20.1069 3.70523 19.6875 4.64355 19.6875 5.625C19.6875 6.60645 20.1069 7.54477 20.8383 8.19938C21.4744 8.76867 22.2977 9.0798 23.1434 9.0798C23.2698 9.0798 23.397 9.07277 23.5239 9.05871L27.1875 8.6516V10.3125C26.6698 10.3125 26.25 10.7323 26.25 11.25V14.0625C24.6991 14.0625 23.4375 15.3243 23.4375 16.875C23.4375 18.0971 24.2214 19.1392 25.3125 19.5262V22.5C24.7948 22.5 24.375 22.9198 24.375 23.4375V27.1875C24.375 27.7052 24.7948 28.125 25.3125 28.125V37.5C24.7948 37.5 24.375 37.9198 24.375 38.4375V42.1875C24.375 42.7052 24.7948 43.125 25.3125 43.125V47.8125H24.375C24.375 47.2948 23.9552 46.875 23.4375 46.875H19.6875C19.1698 46.875 18.75 47.2948 18.75 47.8125H17.8125V41.7559C21.612 40.5585 24.375 37.0024 24.375 32.8125C24.375 27.6431 20.1694 23.4375 15 23.4375C9.83063 23.4375 5.625 27.6431 5.625 32.8125C5.625 37.0023 8.38805 40.5585 12.1875 41.7559V47.8125H11.25C11.25 47.2948 10.8302 46.875 10.3125 46.875H6.5625C6.04477 46.875 5.625 47.2948 5.625 47.8125H2.8125C2.29477 47.8125 1.875 48.2323 1.875 48.75V56.25C1.875 56.7677 2.29477 57.1875 2.8125 57.1875H5.625C5.625 57.7052 6.04477 58.125 6.5625 58.125H10.3125C10.8302 58.125 11.25 57.7052 11.25 57.1875H18.75C18.75 57.7052 19.1698 58.125 19.6875 58.125H23.4375C23.9552 58.125 24.375 57.7052 24.375 57.1875H36.5625C36.5625 57.7052 36.9823 58.125 37.5 58.125H41.25C41.7677 58.125 42.1875 57.7052 42.1875 57.1875H48.75C48.75 57.7052 49.1698 58.125 49.6875 58.125H53.4375C53.9552 58.125 54.375 57.7052 54.375 57.1875H57.1875C57.7052 57.1875 58.125 56.7677 58.125 56.25V48.75C58.125 48.2323 57.7052 47.8125 57.1875 47.8125H54.375C54.375 47.2948 53.9552 46.875 53.4375 46.875H49.6875C49.1698 46.875 48.75 47.2948 48.75 47.8125H42.1875C42.1875 47.2948 41.7677 46.875 41.25 46.875H37.5C36.9823 46.875 36.5625 47.2948 36.5625 47.8125H34.6875V43.125C35.2052 43.125 35.625 42.7052 35.625 42.1875V38.4375C35.625 37.9198 35.2052 37.5 34.6875 37.5H44.0625C48.715 37.5 52.5 33.715 52.5 29.0625V23.4375C53.0177 23.4375 53.4375 23.0177 53.4375 22.5V18.75C53.4375 18.2323 53.0177 17.8125 52.5 17.8125V15.8026C52.5 15.36 52.86 15 53.3025 15ZM51.5625 19.6875V21.5625H44.0625V19.6875H51.5625ZM26.25 41.25V39.375H33.75V41.25H26.25ZM26.25 26.25V24.375H33.75V26.25H26.25ZM36.6833 4.05492C37.1361 4.00453 37.572 4.14422 37.9113 4.44797C38.2507 4.75172 38.4375 5.16961 38.4375 5.625C38.4375 6.08039 38.2506 6.4984 37.9113 6.80215C37.572 7.10578 37.1365 7.24559 36.6833 7.1952L33.5448 6.84645C33.6771 6.46324 33.75 6.05262 33.75 5.625C33.75 5.19738 33.6771 4.78676 33.5447 4.40355L36.6833 4.05492ZM31.875 5.625C31.875 6.65883 31.0338 7.5 30 7.5C28.9662 7.5 28.125 6.65883 28.125 5.625C28.125 4.59117 28.9662 3.75 30 3.75C31.0338 3.75 31.875 4.59117 31.875 5.625ZM23.3167 7.19508C22.8637 7.24582 22.428 7.10566 22.0887 6.80203C21.7494 6.4984 21.5625 6.08039 21.5625 5.625C21.5625 5.16961 21.7494 4.7516 22.0887 4.44785C22.4279 4.1441 22.8636 4.00418 23.3167 4.0548L26.4552 4.40355C26.3229 4.78676 26.25 5.19738 26.25 5.625C26.25 6.05262 26.3229 6.46324 26.4553 6.84645L23.3167 7.19508ZM29.0625 9.25629C29.3623 9.33375 29.6764 9.375 30 9.375C30.3236 9.375 30.6377 9.33375 30.9375 9.25629V10.3125H29.0625V9.25629ZM28.125 12.1875H31.875V14.0625H28.125V12.1875ZM26.25 15.9375H33.75C34.2669 15.9375 34.6875 16.3581 34.6875 16.875C34.6875 17.3919 34.2669 17.8125 33.75 17.8125H26.25C25.7331 17.8125 25.3125 17.3919 25.3125 16.875C25.3125 16.3581 25.7331 15.9375 26.25 15.9375ZM27.1875 19.6875H32.8125V22.5H27.1875V19.6875ZM27.1875 28.125H32.8125V37.5H27.1875V28.125ZM7.5 32.8125C7.5 28.677 10.8645 25.3125 15 25.3125C19.1355 25.3125 22.5 28.677 22.5 32.8125C22.5 36.948 19.1355 40.3125 15 40.3125C10.8645 40.3125 7.5 36.948 7.5 32.8125ZM14.0625 42.1405C14.3709 42.1712 14.6836 42.1875 15 42.1875C15.3164 42.1875 15.6291 42.1712 15.9375 42.1405V47.8125H14.0625V42.1405ZM3.75 55.3125V49.6875H5.625V55.3125H3.75ZM9.375 56.25H7.5V48.75H9.375V56.25ZM11.25 55.3125V49.6875H18.75V55.3125H11.25ZM22.5 56.25H20.625V48.75H22.5V56.25ZM56.25 49.6875V55.3125H54.375V49.6875H56.25ZM50.625 48.75H52.5V56.25H50.625V48.75ZM48.75 49.6875V55.3125H42.1875V49.6875H48.75ZM38.4375 48.75H40.3125V56.25H38.4375V48.75ZM36.5625 55.3125H24.375V49.6875H36.5625V55.3125ZM32.8125 47.8125H27.1875V43.125H32.8125V47.8125ZM50.625 29.0625C50.625 32.6811 47.681 35.625 44.0625 35.625H34.6875V30H41.9571C43.635 30 45 28.635 45 26.9571V23.4375H50.625V29.0625ZM50.625 15.8026V17.8125H45V14.0625C45 10.4439 47.944 7.5 51.5625 7.5H56.25V13.125H53.3025C51.8262 13.125 50.625 14.3262 50.625 15.8026Z" fill="#EAA53C"/>
<path d="M15 29.0625C15.5177 29.0625 15.9375 28.6427 15.9375 28.125V27.1875C15.9375 26.6698 15.5177 26.25 15 26.25C14.4823 26.25 14.0625 26.6698 14.0625 27.1875V28.125C14.0625 28.6427 14.4823 29.0625 15 29.0625Z" fill="#EAA53C"/>
<path d="M11.6855 28.172C11.3194 27.8059 10.7258 27.806 10.3596 28.1719C9.99352 28.538 9.9934 29.1315 10.3596 29.4976L11.0225 30.1606C11.2056 30.3436 11.4455 30.4352 11.6855 30.4352C11.9254 30.4352 12.1654 30.3437 12.3484 30.1607C12.7145 29.7946 12.7146 29.201 12.3484 28.8349L11.6855 28.172Z" fill="#EAA53C"/>
<path d="M11.25 32.8125C11.25 32.2948 10.8302 31.875 10.3125 31.875H9.375C8.85727 31.875 8.4375 32.2948 8.4375 32.8125C8.4375 33.3302 8.85727 33.75 9.375 33.75H10.3125C10.8302 33.75 11.25 33.3302 11.25 32.8125Z" fill="#EAA53C"/>
<path d="M11.0225 35.4641L10.3596 36.127C9.99351 36.4931 9.99351 37.0867 10.3596 37.4528C10.5427 37.6358 10.7825 37.7273 11.0225 37.7273C11.2625 37.7273 11.5024 37.6358 11.6855 37.4526L12.3484 36.7897C12.7145 36.4236 12.7145 35.8301 12.3484 35.464C11.9822 35.098 11.3886 35.0979 11.0225 35.4641Z" fill="#EAA53C"/>
<path d="M15.9375 38.4375V37.5C15.9375 36.9823 15.5177 36.5625 15 36.5625C14.4823 36.5625 14.0625 36.9823 14.0625 37.5V38.4375C14.0625 38.9552 14.4823 39.375 15 39.375C15.5177 39.375 15.9375 38.9552 15.9375 38.4375Z" fill="#EAA53C"/>
<path d="M18.3145 37.4531C18.4976 37.6361 18.7375 37.7278 18.9775 37.7278C19.2173 37.7278 19.4573 37.6362 19.6404 37.4532C20.0065 37.0871 20.0066 36.4936 19.6404 36.1275L18.9775 35.4645C18.6114 35.0984 18.0178 35.0984 17.6516 35.4644C17.2855 35.8305 17.2854 36.4241 17.6516 36.7902L18.3145 37.4531Z" fill="#EAA53C"/>
<path d="M18.75 32.8125C18.75 33.3302 19.1698 33.75 19.6875 33.75H20.625C21.1427 33.75 21.5625 33.3302 21.5625 32.8125C21.5625 32.2948 21.1427 31.875 20.625 31.875H19.6875C19.1698 31.875 18.75 32.2948 18.75 32.8125Z" fill="#EAA53C"/>
<path d="M18.3145 30.4353C18.5544 30.4353 18.7944 30.3438 18.9775 30.1606L19.6404 29.4977C20.0065 29.1316 20.0065 28.5381 19.6404 28.172C19.2742 27.806 18.6806 27.8059 18.3145 28.1721L17.6516 28.835C17.2855 29.2011 17.2855 29.7947 17.6516 30.1608C17.8348 30.3438 18.0746 30.4353 18.3145 30.4353Z" fill="#EAA53C"/>
<path d="M15.099 30.5184L14.1615 32.3934C13.93 32.8565 14.1176 33.4197 14.5808 33.6512C14.7154 33.7185 14.8584 33.7504 14.9993 33.7504C15.3432 33.7504 15.6743 33.5605 15.8386 33.232L16.7761 31.357C17.0077 30.8939 16.82 30.3307 16.3568 30.0992C15.8936 29.8676 15.3306 30.0554 15.099 30.5184Z" fill="#EAA53C"/>
</svg>
