<svg width="60" height="60" viewBox="0 0 60 60" fill="none" xmlns="http://www.w3.org/2000/svg">
<path d="M28.1191 41.2556L34.5136 31.3113L33.863 30.1196H30.668L32.3501 26.6843L31.6507 25.5708L26.6733 25.601L25.9371 26.1528L23.7998 33.296L24.5407 34.2912H27.4704L26.7 40.7459L28.1191 41.2556ZM25.5794 32.7441L27.255 27.1442L30.412 27.1249L28.7344 30.5527L29.4291 31.6662H32.4471L28.6345 37.5938L29.1101 33.6094L28.342 32.7443L25.5794 32.7441Z" fill="#EAA53C"/>
<path d="M24.8749 47.4059C24.5602 47.4072 24.252 47.4957 23.9844 47.6615C23.7169 47.8272 23.5005 48.0638 23.3592 48.3451H11.7696V36.2187H13.7032V34.6719H8.69202V36.2187H10.223V49.1185L10.9964 49.892H23.3437C23.4814 50.1629 23.6888 50.3923 23.9446 50.5565C24.2003 50.7208 24.4952 50.8139 24.7989 50.8264C25.1026 50.8388 25.4041 50.7702 25.6724 50.6274C25.9408 50.4847 26.1663 50.2731 26.3257 50.0143C26.4851 49.7556 26.5727 49.459 26.5795 49.1551C26.5863 48.8513 26.5121 48.5511 26.3644 48.2854C26.2167 48.0198 26.0009 47.7983 25.7392 47.6437C25.4775 47.4891 25.1793 47.4071 24.8754 47.4059H24.8749ZM24.9869 49.2648V49.007C25.0171 49.0431 25.0336 49.0888 25.0336 49.1359C25.0336 49.183 25.0171 49.2286 24.9869 49.2648Z" fill="#EAA53C"/>
<path d="M19.1473 46.5236C19.9673 46.5235 20.769 46.2801 21.4508 45.8244C22.1326 45.3687 22.664 44.7211 22.9777 43.9634C23.2914 43.2057 23.3734 42.372 23.2134 41.5676C23.0533 40.7633 22.6583 40.0246 22.0784 39.4447C21.4984 38.8649 20.7596 38.47 19.9553 38.3101C19.1509 38.1502 18.3172 38.2323 17.5596 38.5462C16.8019 38.86 16.1544 39.3915 15.6988 40.0734C15.2432 40.7553 15 41.5569 15 42.377C15.0012 43.4765 15.4386 44.5306 16.2161 45.308C16.9936 46.0854 18.0478 46.5225 19.1473 46.5236ZM19.1473 39.7776C19.6614 39.7777 20.164 39.9303 20.5914 40.2161C21.0188 40.5018 21.3519 40.9079 21.5486 41.383C21.7452 41.858 21.7966 42.3807 21.6962 42.885C21.5958 43.3892 21.3481 43.8524 20.9845 44.2159C20.6209 44.5793 20.1576 44.8269 19.6533 44.9271C19.149 45.0273 18.6264 44.9757 18.1514 44.7789C17.6764 44.5821 17.2704 44.2489 16.9848 43.8213C16.6992 43.3938 16.5468 42.8912 16.5469 42.377C16.5474 41.6876 16.8216 41.0266 17.3092 40.5392C17.7968 40.0518 18.4579 39.7779 19.1473 39.7776Z" fill="#EAA53C"/>
<path d="M18.3738 44.4212H19.9207V43.1502H21.1915V41.6033H19.9207V40.3325H18.3738V41.6033H17.1028V43.1502H18.3738V44.4212Z" fill="#EAA53C"/>
<path d="M39.2566 46.5236C40.0767 46.5235 40.8783 46.2801 41.5602 45.8244C42.242 45.3687 42.7733 44.7211 43.0871 43.9634C43.4008 43.2057 43.4828 42.372 43.3227 41.5676C43.1627 40.7633 42.7677 40.0246 42.1877 39.4447C41.6078 38.8649 40.869 38.47 40.0646 38.3101C39.2603 38.1502 38.4266 38.2323 37.669 38.5462C36.9113 38.86 36.2637 39.3915 35.8081 40.0734C35.3525 40.7553 35.1094 41.5569 35.1094 42.377C35.1106 43.4765 35.548 44.5306 36.3255 45.308C37.103 46.0854 38.1572 46.5225 39.2566 46.5236ZM39.2566 39.7776C39.7708 39.7777 40.2734 39.9303 40.7008 40.2161C41.1282 40.5018 41.4613 40.9079 41.658 41.383C41.8546 41.858 41.906 42.3807 41.8056 42.885C41.7052 43.3892 41.4575 43.8524 41.0939 44.2159C40.7302 44.5793 40.267 44.8269 39.7627 44.9271C39.2584 45.0273 38.7357 44.9757 38.2608 44.7789C37.7858 44.5821 37.3798 44.2489 37.0942 43.8213C36.8086 43.3938 36.6562 42.8912 36.6562 42.377C36.6568 41.6876 36.931 41.0266 37.4186 40.5392C37.9061 40.0518 38.5672 39.7779 39.2566 39.7776Z" fill="#EAA53C"/>
<path d="M37.2122 41.6035H41.3009V43.1504H37.2122V41.6035Z" fill="#EAA53C"/>
<path d="M56.1267 48.1404V10.6008C56.125 8.80888 55.4127 7.09074 54.1461 5.82315C52.8795 4.55557 51.1619 3.84199 49.3699 3.83889L45.0469 3.81006L44.2683 4.5835V11.6951H4.83679L4.06335 12.4686V55.1412L4.83679 55.9147H49.3151V55.9135C53.0491 55.8868 56.1286 52.8882 56.1902 49.2047C56.1964 48.8489 56.1752 48.4931 56.1267 48.1404ZM45.8142 5.36186L49.3641 5.38529C50.7467 5.38691 52.0722 5.93687 53.0499 6.91454C54.0276 7.8922 54.5775 9.21774 54.5791 10.6004V44.6822C54.4685 44.5518 54.3526 44.4249 54.2316 44.3016C53.5988 43.6542 52.8426 43.1401 52.0078 42.7899C51.173 42.4397 50.2764 42.2604 49.3711 42.2626L45.8142 42.2305V5.36186ZM54.6145 49.629C54.4599 50.9377 53.8294 52.1438 52.8431 53.0176C51.8567 53.8915 50.5834 54.3721 49.2656 54.3678H5.61023V13.242H44.268V18.0622H33.7017C33.4973 17.0188 32.9367 16.079 32.1159 15.4033C31.295 14.7277 30.2649 14.3582 29.2017 14.3582C28.1386 14.3582 27.1084 14.7277 26.2876 15.4033C25.4667 16.079 24.9061 17.0188 24.7017 18.0622H10.9962L10.2227 18.8356V31.7354H7.2696V33.2822H15.1263V31.7354H11.7696V19.609H24.6644C24.8235 20.699 25.3695 21.6952 26.2027 22.4156C27.0358 23.1361 28.1005 23.5325 29.2019 23.5325C30.3034 23.5325 31.368 23.1361 32.2012 22.4156C33.0344 21.6952 33.5804 20.699 33.7394 19.609H44.268V42.9954L45.0344 43.7689L46.6343 43.7834V48.3451H35.0444C34.9032 48.0638 34.6868 47.8272 34.4192 47.6614C34.1517 47.4957 33.8435 47.4072 33.5287 47.4059C33.3439 47.4062 33.1604 47.4371 32.9857 47.4973L28.1998 42.8173L27.1184 43.9233L31.9059 48.605C31.8511 48.7764 31.8231 48.9554 31.823 49.1354C31.8165 49.524 31.9432 49.9031 32.1822 50.2096C32.4212 50.5162 32.758 50.7316 33.1364 50.8201C33.5149 50.9085 33.9123 50.8647 34.2624 50.6959C34.6125 50.5271 34.8942 50.2434 35.0606 49.8922H47.4077L48.1812 49.1187V43.7984L49.3153 43.8087H49.365C50.6212 43.8091 51.8361 44.257 52.7919 45.0722C53.7476 45.8874 54.3816 47.0165 54.5801 48.2569V49.441H54.6328C54.6284 49.5038 54.6218 49.5664 54.6152 49.6292L54.6145 49.629ZM28.1081 18.946L26.5781 20.4765C26.3063 20.0123 26.1631 19.4841 26.1631 18.9462C26.1631 18.4083 26.3063 17.8802 26.5781 17.416L28.1081 18.946ZM27.6715 16.321C28.1357 16.0492 28.6639 15.9059 29.2018 15.9059C29.7398 15.9059 30.268 16.0492 30.7322 16.321L29.2017 17.8515L27.6715 16.321ZM29.2019 20.0389L30.7324 21.5691C30.2682 21.8409 29.74 21.9842 29.2021 21.9842C28.6641 21.9842 28.1359 21.8409 27.6717 21.5691L29.2019 20.0389ZM30.2958 18.9451L31.8262 17.4148C32.0981 17.879 32.2413 18.4073 32.2413 18.9452C32.2413 19.4831 32.0981 20.0113 31.8262 20.4755L30.2958 18.9451Z" fill="#EAA53C"/>
</svg>
