<svg width="60" height="60" viewBox="0 0 60 60" fill="none" xmlns="http://www.w3.org/2000/svg">
<g clip-path="url(#clip0_170_1069)">
<path d="M59.267 5.3999H0.732944C0.328219 5.3999 2.65416e-08 5.72801 2.65416e-08 6.13274V26.7194C0.000646552 26.7813 0.00915913 26.843 0.0253223 26.9028C0.00851261 27.0638 2.65416e-08 27.2255 2.65416e-08 27.3875C-0.000107728 27.7922 0.327896 28.1204 0.732729 28.1205C1.13745 28.1206 1.46567 27.7926 1.46578 27.3878C1.46578 27.3877 1.46578 27.3876 1.46578 27.3875C1.46503 26.4491 1.87902 25.5584 2.59677 24.9542C3.30385 24.3556 4.23927 24.0999 5.15248 24.2556C5.99544 24.4 6.82709 24.6045 7.64085 24.8677C10.4457 25.7668 13.4394 25.9025 16.3142 25.2609C18.4498 24.7904 20.6203 24.4959 22.8039 24.3802C23.2081 24.3587 23.5183 24.0137 23.497 23.6095C23.4755 23.2053 23.1305 22.8951 22.7263 22.9164C22.1428 22.9472 21.5598 22.9907 20.9772 23.0468V18.3595H39.023V28.3874H38.3313C36.614 26.4919 34.4839 25.0168 32.1055 24.076C31.7293 23.9265 31.3032 24.1103 31.1538 24.4865C31.0043 24.8627 31.1882 25.2887 31.5643 25.4382C34.4264 26.5679 36.8779 28.54 38.5943 31.0938C38.8684 31.5012 39.1332 31.9196 39.3816 32.3379C41.2649 35.5103 44.6737 37.4628 48.363 37.4824H49.5855C54.5254 37.4879 58.5286 41.4912 58.5341 46.4311V51.3751H32.7631C32.3584 51.375 32.0301 51.703 32.03 52.1078C32.0299 52.5125 32.3579 52.8407 32.7628 52.8408H32.7631H59.267C59.6717 52.8408 59.9999 52.5127 59.9999 52.108V6.13274C59.9999 5.72791 59.6718 5.3999 59.267 5.3999ZM58.5341 16.8936H50.2442V6.86557H58.5341V16.8936ZM29.2672 16.8936H11.2216V6.86557H29.2673V16.8936H29.2672ZM1.46578 6.86557H9.75585V16.8936H1.46578V6.86557ZM19.5115 23.2146C18.3292 23.3701 17.155 23.5748 15.9982 23.8303C13.3779 24.4155 10.649 24.2922 8.09212 23.4731C7.21156 23.1883 6.31159 22.967 5.39945 22.8107C4.06039 22.5816 2.68847 22.9561 1.65144 23.8337C1.58776 23.8875 1.5258 23.9428 1.46567 23.9995V18.3594H19.5115V23.2146ZM30.733 6.86557H48.7786V16.8936H30.733V6.86557ZM49.5114 18.3595H58.5342V28.3874H40.4893V18.3595H49.5114ZM49.5855 36.0164H48.363C45.1905 35.9984 42.2597 34.318 40.6414 31.5892C40.3788 31.1478 40.0992 30.7055 39.8101 30.2756C39.714 30.1326 39.6145 29.9926 39.5143 29.8531H58.5341V41.1113C56.6578 37.9544 53.2578 36.0187 49.5855 36.0164Z" fill="#EAA53C" stroke="#EAA53C" stroke-width="0.6"/>
<path d="M45.4325 9.70553C45.4501 9.74993 45.4722 9.79249 45.4984 9.83236C45.5259 9.87202 45.5565 9.90941 45.5901 9.944C45.6243 9.97751 45.6617 10.0077 45.7018 10.034C45.7818 10.0874 45.8715 10.1247 45.9657 10.144C46.0128 10.1533 46.0606 10.1581 46.1087 10.1584C46.354 10.1611 46.5836 10.0382 46.7175 9.83247C46.7443 9.7926 46.767 9.75014 46.7852 9.70564C46.8224 9.61675 46.8417 9.52149 46.8422 9.42516C46.8419 9.37721 46.8371 9.32937 46.8275 9.28238C46.8182 9.23519 46.8041 9.18907 46.7852 9.14489C46.7676 9.10017 46.7448 9.05761 46.7175 9.01806C46.6917 8.97766 46.6617 8.94026 46.6278 8.90632C46.4539 8.73456 46.2063 8.65978 45.9664 8.70655C45.9193 8.71517 45.8732 8.72874 45.8289 8.74685C45.7847 8.76581 45.7424 8.78855 45.7021 8.81473C45.662 8.84156 45.6246 8.87216 45.5905 8.90632C45.5564 8.94059 45.5257 8.97798 45.4988 9.01806C45.472 9.05772 45.45 9.10028 45.4328 9.14489C45.4142 9.18918 45.4001 9.23519 45.3907 9.28238C45.3812 9.32937 45.3763 9.37721 45.3761 9.42516C45.3764 9.52138 45.3955 9.61664 45.4325 9.70553Z" fill="#EAA53C" stroke="#EAA53C" stroke-width="0.6"/>
<path d="M25.9141 10.0332C25.9942 10.0865 26.0838 10.1239 26.178 10.1432C26.2723 10.1625 26.3695 10.1625 26.4638 10.1432C26.5581 10.1239 26.6477 10.0866 26.7277 10.0332C26.7676 10.0068 26.8051 9.97672 26.8394 9.94321C27.0129 9.77037 27.0879 9.52189 27.0392 9.28192C27.0299 9.23472 27.0157 9.18871 26.9969 9.14442C26.9792 9.09971 26.9564 9.05714 26.9291 9.0176C26.9033 8.97719 26.8732 8.93969 26.8394 8.90586C26.8051 8.87181 26.7678 8.84121 26.7277 8.81427C26.6874 8.78808 26.645 8.76535 26.6008 8.74638C26.5563 8.72839 26.5104 8.71427 26.4635 8.70425C26.3691 8.68582 26.2721 8.68582 26.1777 8.70425C26.0834 8.72343 25.9938 8.76071 25.9138 8.81427C25.8737 8.8411 25.8363 8.87181 25.8022 8.90586C25.7681 8.94012 25.7375 8.97751 25.7106 9.0176C25.6839 9.05725 25.6617 9.09981 25.6445 9.14442C25.6251 9.18839 25.611 9.23462 25.6025 9.28192C25.5929 9.3289 25.588 9.37674 25.5877 9.42469C25.5855 9.66994 25.7083 9.89946 25.9137 10.0335L25.9141 10.0332Z" fill="#EAA53C" stroke="#EAA53C" stroke-width="0.6"/>
<path d="M25.9141 13.051C25.9544 13.0771 25.9969 13.0998 26.0409 13.1188C26.0852 13.1368 26.1312 13.1504 26.1783 13.1591C26.2726 13.1785 26.3698 13.1785 26.4641 13.1591C26.5112 13.1504 26.5572 13.1369 26.6015 13.1188C26.6456 13.0999 26.688 13.0771 26.7283 13.051C26.7683 13.024 26.8057 12.9933 26.8401 12.9594C26.8739 12.9254 26.904 12.888 26.9297 12.8476C26.957 12.808 26.9797 12.7655 26.9976 12.7208C27.0161 12.6772 27.0302 12.6317 27.0398 12.5852C27.0492 12.5375 27.0541 12.489 27.0544 12.4404C27.0532 12.2464 26.9763 12.0603 26.8401 11.922C26.8057 11.8886 26.7683 11.8585 26.7283 11.8323C26.6484 11.7788 26.5587 11.7414 26.4644 11.7222C26.37 11.7039 26.2731 11.7039 26.1787 11.7222C26.0844 11.7414 25.9947 11.7787 25.9148 11.8323C25.7093 11.9662 25.5863 12.1958 25.5888 12.4411C25.5892 12.6355 25.6662 12.8218 25.8031 12.9597C25.8371 12.9935 25.8744 13.024 25.9141 13.051Z" fill="#EAA53C" stroke="#EAA53C" stroke-width="0.6"/>
<path d="M45.7021 13.051C45.7424 13.0772 45.7849 13.0998 45.8289 13.1189C45.8735 13.1367 45.9195 13.1508 45.9664 13.161C46.0135 13.1698 46.0615 13.1741 46.1094 13.1737C46.514 13.1737 46.842 12.8457 46.842 12.4411C46.842 12.0365 46.514 11.7085 46.1094 11.7085C46.0615 11.7085 46.0135 11.7132 45.9665 11.7226C45.8722 11.7417 45.7826 11.7791 45.7026 11.8326C45.6621 11.8589 45.6247 11.8896 45.591 11.9242C45.3051 12.2101 45.3051 12.6735 45.591 12.9594C45.6249 12.9934 45.6622 13.0241 45.7021 13.051Z" fill="#EAA53C" stroke="#EAA53C" stroke-width="0.6"/>
<path d="M42.3215 9.70562C42.3398 9.75012 42.3625 9.79257 42.3894 9.83244C42.4156 9.87242 42.4457 9.90981 42.4791 9.94408C42.5134 9.97748 42.5508 10.0077 42.5908 10.0341C42.6307 10.0609 42.6731 10.0835 42.7176 10.1018C42.762 10.1203 42.8081 10.1344 42.8551 10.1441C42.9022 10.1533 42.9501 10.1582 42.9981 10.1585C43.0461 10.1583 43.094 10.1534 43.1411 10.1441C43.1882 10.1346 43.2342 10.1205 43.2785 10.1018C43.3232 10.084 43.3657 10.0613 43.4053 10.0341C43.4457 10.0082 43.4832 9.97813 43.5172 9.94408C43.5507 9.90938 43.5813 9.8721 43.6088 9.83244C43.6342 9.79171 43.6568 9.74936 43.6767 9.70562C43.6944 9.66122 43.7079 9.6151 43.7169 9.56812C43.7262 9.52103 43.7312 9.47319 43.7316 9.42513C43.7312 9.37653 43.7263 9.32804 43.7169 9.28042C43.7079 9.23398 43.6944 9.18861 43.6767 9.14486C43.6574 9.1009 43.6346 9.05855 43.6088 9.01804C43.5818 8.97806 43.5511 8.94067 43.5172 8.90629C43.4833 8.87181 43.4458 8.8411 43.4053 8.8147C43.3654 8.78809 43.3228 8.76535 43.2785 8.74682C43.2342 8.72872 43.1882 8.71514 43.1411 8.70652C43.0469 8.68637 42.9494 8.68637 42.8552 8.70652C42.8082 8.71514 42.762 8.72872 42.7178 8.74682C42.6736 8.76578 42.6312 8.78852 42.5909 8.8147C42.5508 8.84164 42.5134 8.87224 42.4792 8.90629C42.4453 8.94013 42.4153 8.97763 42.3895 9.01804C42.3622 9.05758 42.3394 9.10014 42.3216 9.14486C42.3031 9.1885 42.289 9.23398 42.2794 9.28042C42.27 9.32804 42.2652 9.37653 42.2649 9.42513C42.2652 9.47308 42.27 9.52103 42.2794 9.56812C42.2888 9.61521 42.303 9.66122 42.3215 9.70562Z" fill="#EAA53C" stroke="#EAA53C" stroke-width="0.6"/>
<path d="M42.5505 21.2003C42.5689 21.2447 42.5917 21.2871 42.6183 21.3271C42.6452 21.3672 42.6759 21.4046 42.71 21.4388C42.7438 21.4733 42.7812 21.504 42.8216 21.5305C42.8617 21.557 42.9042 21.5798 42.9484 21.5983C42.9927 21.6164 43.0388 21.63 43.0859 21.6386C43.1329 21.6481 43.1808 21.6529 43.2287 21.6531C43.2767 21.6528 43.3246 21.648 43.3717 21.6386C43.4187 21.6297 43.4647 21.6161 43.5091 21.5983C43.5532 21.5793 43.5956 21.5567 43.6359 21.5305C43.676 21.5036 43.7134 21.4729 43.7477 21.4388C43.7816 21.405 43.8117 21.3675 43.8374 21.3271C43.8647 21.2874 43.8875 21.245 43.9053 21.2003C43.9239 21.156 43.9379 21.11 43.9474 21.0629C43.9961 20.8228 43.9211 20.5743 43.7477 20.4015C43.7134 20.3681 43.676 20.338 43.6359 20.3118C43.596 20.2849 43.5536 20.2622 43.5091 20.2439C43.4648 20.2254 43.4188 20.2114 43.3717 20.2018C43.2773 20.1834 43.1803 20.1834 43.0859 20.2018C43.0387 20.2111 42.9927 20.2252 42.9484 20.2439C42.9037 20.2617 42.8612 20.2845 42.8216 20.3118C42.7812 20.3376 42.7438 20.3676 42.71 20.4015C42.5728 20.5392 42.4958 20.7256 42.4953 20.92C42.4947 20.968 42.4996 21.016 42.5101 21.063C42.5188 21.11 42.5324 21.156 42.5505 21.2003Z" fill="#EAA53C" stroke="#EAA53C" stroke-width="0.6"/>
<path d="M46.2441 21.6536C46.4386 21.6541 46.6252 21.577 46.7626 21.4393C46.7971 21.4054 46.8278 21.3679 46.8542 21.3275C46.8808 21.2876 46.9036 21.2451 46.9221 21.2007C46.94 21.1562 46.9541 21.1102 46.9643 21.0633C47.0426 20.6658 46.7839 20.2802 46.3865 20.2019C45.9891 20.1237 45.6033 20.3824 45.5251 20.7798C45.5159 20.8262 45.5113 20.8731 45.5113 20.9203C45.5128 21.3245 45.8401 21.6518 46.2442 21.6532V21.6536H46.2441Z" fill="#EAA53C" stroke="#EAA53C" stroke-width="0.6"/>
<path d="M55.8119 31.7778C55.6174 31.7787 55.431 31.8562 55.2933 31.9934C55.2595 32.0274 55.2293 32.0649 55.2035 32.1053C55.1759 32.1447 55.1532 32.1873 55.1357 32.2321C55.1173 32.2759 55.1032 32.3212 55.0936 32.3677C55.0841 32.4153 55.0792 32.4638 55.0789 32.5124C55.0792 32.5605 55.0841 32.6084 55.0936 32.6555C55.1034 32.7025 55.1175 32.7485 55.1357 32.7929C55.154 32.8374 55.1766 32.8798 55.2035 32.9197C55.2299 32.9591 55.26 32.996 55.2933 33.0297C55.3271 33.0642 55.3645 33.095 55.405 33.1214C55.4449 33.1482 55.4874 33.1709 55.5319 33.189C55.5761 33.2077 55.6222 33.222 55.6693 33.2312C55.7635 33.2508 55.8608 33.2508 55.955 33.2312C56.0493 33.2119 56.1388 33.1746 56.2189 33.1214C56.2597 33.0954 56.2972 33.0646 56.3307 33.0297C56.6166 32.7426 56.6155 32.2779 56.3283 31.992C56.1911 31.8555 56.0056 31.7788 55.8122 31.7784L55.8119 31.7778Z" fill="#EAA53C" stroke="#EAA53C" stroke-width="0.6"/>
<path d="M42.8216 24.6396C42.8613 24.6669 42.9037 24.6896 42.9484 24.7075C42.9927 24.7263 43.0387 24.7404 43.0859 24.7497C43.1329 24.7592 43.1807 24.7642 43.2287 24.7644C43.3249 24.7639 43.4202 24.7446 43.509 24.7076C43.5535 24.6894 43.5959 24.6667 43.6358 24.6397C43.8831 24.4764 44.0064 24.1791 43.9473 23.8886C43.9379 23.8415 43.9238 23.7955 43.9052 23.7512C43.8874 23.7065 43.8647 23.6639 43.8373 23.6244C43.8114 23.584 43.7814 23.5466 43.7475 23.5126C43.7128 23.4791 43.6754 23.4485 43.6358 23.421C43.5955 23.3949 43.553 23.3721 43.509 23.3532C43.4646 23.3354 43.4186 23.3219 43.3716 23.313C43.2774 23.2928 43.18 23.2928 43.0858 23.313C43.0387 23.3217 42.9927 23.3352 42.9483 23.3532C42.904 23.3717 42.8616 23.3944 42.8215 23.421C42.7412 23.4747 42.6723 23.5437 42.6186 23.6239C42.592 23.6639 42.5694 23.7065 42.5508 23.7508C42.5326 23.7951 42.5191 23.8411 42.5104 23.8882C42.5001 23.9351 42.4952 23.9831 42.4956 24.0311C42.496 24.2255 42.5731 24.4118 42.7103 24.5497C42.7441 24.5835 42.7814 24.6137 42.8216 24.6396Z" fill="#EAA53C" stroke="#EAA53C" stroke-width="0.6"/>
<path d="M0.73305 30.7695C0.328325 30.7695 0.000213623 31.0976 0.000213623 31.5024V52.108C0.000213623 52.5127 0.328325 52.8408 0.73305 52.8408H21.464C21.8687 52.8407 22.1967 52.5125 22.1967 52.1078C22.1966 51.7031 21.8686 51.3751 21.464 51.375H1.46599V31.5024C1.46599 31.0976 1.13788 30.7695 0.73305 30.7695C0.733158 30.7695 0.733158 30.7695 0.73305 30.7695Z" fill="#EAA53C"/>
<path d="M0.73305 30.7695C0.328325 30.7695 0.000213623 31.0976 0.000213623 31.5024V52.108C0.000213623 52.5127 0.328325 52.8408 0.73305 52.8408H21.464C21.8687 52.8407 22.1967 52.5125 22.1967 52.1078C22.1966 51.7031 21.8686 51.3751 21.464 51.375H1.46599V31.5024C1.46599 31.0976 1.13788 30.7695 0.73305 30.7695C0.733158 30.7695 0.733158 30.7695 0.73305 30.7695V30.7695Z" stroke="#EAA53C" stroke-width="0.6"/>
<path d="M5.5641 40.5325C5.56583 42.2025 6.91911 43.5562 8.58919 43.5581H8.7241C10.0963 43.5571 11.2965 42.6336 11.6488 41.3073L11.9046 40.3405C12.0862 39.6568 12.7049 39.1808 13.4123 39.1803C14.9155 39.1737 16.1884 38.0695 16.4071 36.5822L16.6822 34.6589C16.7394 34.2583 16.461 33.887 16.0603 33.8297C15.6597 33.7725 15.2885 34.0509 15.2312 34.4516L14.9564 36.375C14.8436 37.1415 14.1875 37.7106 13.4127 37.7138C12.0403 37.7148 10.8403 38.6386 10.488 39.9649L10.2322 40.9315C10.0506 41.6152 9.43194 42.0912 8.72453 42.0918H8.58908C7.72845 42.0905 7.03107 41.393 7.02999 40.5324V39.2111C7.02988 38.8063 6.70166 38.4783 6.29694 38.4783C5.89232 38.4785 5.56432 38.8065 5.56421 39.2111L5.5641 40.5325Z" fill="#EAA53C" stroke="#EAA53C" stroke-width="0.6"/>
<path d="M6.29694 36.3734C6.70166 36.3733 7.02977 36.0452 7.02977 35.6405V35.244C7.02967 34.8392 6.70145 34.5112 6.29672 34.5112C5.89211 34.5113 5.5641 34.8393 5.564 35.244V35.6405C5.5641 36.0452 5.89221 36.3733 6.29694 36.3734Z" fill="#EAA53C" stroke="#EAA53C" stroke-width="0.6"/>
<path d="M41.3864 43.6277L42.6835 44.0365C43.1847 44.1944 43.5766 44.5882 43.7321 45.0902L44.0195 46.0173C44.521 47.6356 46.2394 48.5408 47.8576 48.0392C49.1415 47.6413 50.0169 46.4538 50.017 45.1096V42.862C50.0117 42.4572 49.6793 42.1334 49.2745 42.1387C48.8772 42.1439 48.5564 42.4648 48.5511 42.862V45.1096C48.5511 45.9941 47.834 46.7112 46.9495 46.7112C46.2473 46.7112 45.6271 46.254 45.4195 45.5833L45.132 44.6562C44.8342 43.6948 44.0838 42.9407 43.124 42.6382L41.8269 42.2295C41.2452 42.0487 40.8177 41.5518 40.7259 40.9495L40.4798 39.378C40.4215 38.9774 40.0495 38.6999 39.6489 38.7582C39.2483 38.8165 38.9708 39.1885 39.0291 39.5891C39.0299 39.5944 39.0307 39.5998 39.0316 39.6051L39.2777 41.1763C39.4539 42.3295 40.2725 43.2812 41.3864 43.6277Z" fill="#EAA53C" stroke="#EAA53C" stroke-width="0.6"/>
<path d="M34.1053 39.8817H30.3992C29.9945 39.8816 29.6662 40.2096 29.6661 40.6144C29.666 41.0191 29.994 41.3473 30.3989 41.3474H30.3992H34.1053C35.1917 41.3473 36.0722 40.4665 36.0721 39.3802C36.0721 39.0955 36.0103 38.8142 35.891 38.5559L29.0216 23.6822C28.5662 22.6961 27.3975 22.2658 26.4112 22.7213C25.9869 22.9173 25.6461 23.2579 25.4502 23.6822L18.581 38.5557C18.1255 39.542 18.5559 40.7108 19.5422 41.1663C19.8006 41.2857 20.0819 41.3474 20.3666 41.3475H26.5031V42.9697C25.3459 43.2982 24.5468 44.3542 24.5451 45.5571V51.908C24.5442 53.394 25.7482 54.5995 27.2343 54.6004C28.7204 54.6013 29.9258 53.3974 29.9268 51.9112C29.9268 51.9102 29.9268 51.9091 29.9268 51.908V45.5566C29.9251 44.3537 29.1261 43.2977 27.9688 42.9692V37.1539C27.9689 36.7491 27.6409 36.4209 27.2361 36.4208C26.8313 36.4207 26.5031 36.7487 26.503 37.1535V37.1539V39.8816H20.3665C20.0897 39.8814 19.8653 39.6569 19.8654 39.3801C19.8654 39.3075 19.8813 39.236 19.9117 39.1702L26.781 24.2965C26.8969 24.0452 27.1946 23.9357 27.4458 24.0516C27.554 24.1015 27.6409 24.1883 27.6908 24.2965L34.5603 39.1702C34.6763 39.4217 34.5664 39.7195 34.315 39.8354C34.2492 39.8657 34.1777 39.8814 34.1053 39.8814V39.8817ZM28.4611 45.5563V51.9077C28.4618 52.5843 27.9137 53.1333 27.2371 53.1338C26.5605 53.1345 26.0115 52.5864 26.011 51.9098C26.011 51.9091 26.011 51.9084 26.011 51.9077V45.5563C26.0103 44.8797 26.5584 44.3307 27.235 44.3302C27.9116 44.3295 28.4606 44.8776 28.4611 45.5542V45.5563Z" fill="#EAA53C" stroke="#EAA53C" stroke-width="0.6"/>
</g>
<defs>
<clipPath id="clip0_170_1069">
<rect width="60" height="60" fill="white"/>
</clipPath>
</defs>
</svg>
