<svg width="80" height="80" viewBox="0 0 80 80" fill="none" xmlns="http://www.w3.org/2000/svg">
<circle opacity="0.3" cx="40" cy="40" r="40" fill="#FFBE5B"/>
<path d="M27.1998 31.7744C28.319 31.7744 29.1634 30.5959 29.1634 29.0325C29.1634 27.469 28.319 26.2905 27.1998 26.2905C26.0805 26.2905 25.2362 27.469 25.2362 29.0325C25.2362 30.5959 26.0805 31.7744 27.1998 31.7744ZM27.1998 27.3873C27.3628 27.3873 27.8543 27.9708 27.8543 29.0325C27.8543 30.0941 27.3628 30.6776 27.1998 30.6776C27.0368 30.6776 26.5453 30.0941 26.5453 29.0325C26.5453 27.9708 27.0368 27.3873 27.1998 27.3873Z" fill="black"/>
<path d="M53.3809 23H27.1998C24.6308 23 22.6181 25.6498 22.6181 29.0323V41.6452C22.6181 42.8566 23.7903 43.8387 25.2362 43.8387C25.6972 43.8364 26.149 43.7312 26.5453 43.5338V44.9355C26.5453 46.1469 27.7174 47.129 29.1634 47.129C30.6093 47.129 31.7815 46.1469 31.7815 44.9355V41.3403C32.1777 41.5376 32.6296 41.6429 33.0905 41.6452C34.5365 41.6452 35.7086 40.6631 35.7086 39.4516V35.0645H53.3809C54.6755 35.0645 55.8281 34.3905 56.6535 33.2899V34.5161C56.6535 35.7276 55.4813 36.7097 54.0354 36.7097H43.563C41.6487 36.7126 40.0153 37.8705 39.6947 39.4516H38.9813C38.6198 39.4516 38.3267 39.6972 38.3267 40V41.6452H37.6722C37.3108 41.6452 37.0177 41.8907 37.0177 42.1935V56.4516C37.0177 56.7545 37.3108 57 37.6722 57H42.9084C43.2699 57 43.563 56.7545 43.563 56.4516V42.1935C43.563 41.8907 43.2699 41.6452 42.9084 41.6452H42.2539V40C42.2539 39.6972 41.9608 39.4516 41.5994 39.4516H41.0378C41.3354 38.486 42.3728 37.8102 43.563 37.8065H54.0354C56.2034 37.8047 57.9604 36.3326 57.9625 34.5161V29.0323C57.9625 25.6498 55.9499 23 53.3809 23ZM39.6358 40.5484H40.9448V41.6452H39.6358V40.5484ZM42.2539 42.7419V55.9032H38.3267V42.7419H42.2539ZM27.1998 24.0968C28.9736 24.0968 30.4724 26.3567 30.4724 29.0323C30.4724 31.7078 28.9736 33.9677 27.1998 33.9677C25.426 33.9677 23.9272 31.7078 23.9272 29.0323C23.9272 26.3567 25.426 24.0968 27.1998 24.0968ZM34.3996 39.4516C34.3996 40.0574 33.8135 40.5484 33.0905 40.5484C32.3675 40.5484 31.7815 40.0574 31.7815 39.4516V37.8065H30.4724V44.9355C30.4724 45.5412 29.8864 46.0323 29.1634 46.0323C28.4404 46.0323 27.8543 45.5412 27.8543 44.9355V40.5484H26.5453V41.6452C26.5453 42.2509 25.9592 42.7419 25.2362 42.7419C24.5132 42.7419 23.9272 42.2509 23.9272 41.6452V33.2899C24.7525 34.3905 25.9051 35.0645 27.1998 35.0645H34.3996V39.4516ZM53.3809 33.9677H29.8604C31.1865 32.5688 31.8683 30.8172 31.7815 29.0323C31.8683 27.2473 31.1865 25.4957 29.8604 24.0968H53.3809C55.1546 24.0968 56.6535 26.3567 56.6535 29.0323C56.6535 31.7078 55.1546 33.9677 53.3809 33.9677Z" fill="black"/>
<path d="M40.9449 53.7095H39.6358V54.8062H40.9449V53.7095Z" fill="black"/>
</svg>
