<svg width="80" height="80" viewBox="0 0 80 80" fill="none" xmlns="http://www.w3.org/2000/svg">
<circle opacity="0.3" cx="40" cy="40" r="40" fill="#FFBE5B"/>
<path d="M52.8828 41.6358C52.8284 41.5216 52.7362 41.424 52.618 41.3553C52.4999 41.2867 52.3609 41.25 52.2188 41.25H50.9012C51.1348 39.3358 50.5271 37.4157 49.2 35.875C49.1331 35.7974 49.0463 35.7344 48.9465 35.691C48.8467 35.6476 48.7366 35.625 48.625 35.625C48.5134 35.625 48.4034 35.6476 48.3036 35.691C48.2037 35.7344 48.1169 35.7974 48.05 35.875C46.7229 37.4157 46.1152 39.3358 46.3488 41.25H45.0313C44.8891 41.25 44.7502 41.2867 44.632 41.3553C44.5138 41.424 44.4217 41.5216 44.3673 41.6358C44.3128 41.75 44.2986 41.8757 44.3263 41.9969C44.354 42.1182 44.4225 42.2295 44.523 42.3169L47.398 44.8169C47.5328 44.9341 47.7156 45 47.9063 45V50C47.9063 50.1658 47.8305 50.3247 47.6957 50.4419C47.5609 50.5592 47.3781 50.625 47.1875 50.625C46.9969 50.625 46.8141 50.5592 46.6793 50.4419C46.5445 50.3247 46.4688 50.1658 46.4688 50V46.25C46.4688 45.7527 46.2416 45.2758 45.8372 44.9242C45.4328 44.5725 44.8844 44.375 44.3125 44.375C43.7406 44.375 43.1922 44.5725 42.7878 44.9242C42.3834 45.2758 42.1563 45.7527 42.1563 46.25V48.125H40.7188V36.875H42.1563C42.2897 36.875 42.4206 36.8427 42.5341 36.7817C42.6477 36.7206 42.7394 36.6333 42.7991 36.5295L44.2366 34.0295C44.2914 33.9342 44.3173 33.8283 44.3118 33.7219C44.3063 33.6155 44.2696 33.512 44.2052 33.4214C44.1408 33.3308 44.0508 33.256 43.9438 33.2041C43.8368 33.1522 43.7163 33.125 43.5938 33.125V32.5C43.5948 31.6715 43.9738 30.8772 44.6475 30.2913C45.3213 29.7055 46.2347 29.3759 47.1875 29.375C47.7594 29.375 48.3078 29.5725 48.7122 29.9242C49.1166 30.2758 49.3438 30.7527 49.3438 31.25C49.3438 31.7473 49.1166 32.2242 48.7122 32.5758C48.3078 32.9275 47.7594 33.125 47.1875 33.125C46.9969 33.125 46.8141 33.0592 46.6793 32.9419C46.5445 32.8247 46.4688 32.6658 46.4688 32.5C46.4688 32.3342 46.5445 32.1753 46.6793 32.0581C46.8141 31.9408 46.9969 31.875 47.1875 31.875V30.625C46.6156 30.625 46.0672 30.8225 45.6628 31.1742C45.2584 31.5258 45.0313 32.0027 45.0313 32.5C45.0313 32.9973 45.2584 33.4742 45.6628 33.8258C46.0672 34.1775 46.6156 34.375 47.1875 34.375C48.1406 34.375 49.0547 34.0458 49.7287 33.4597C50.4026 32.8737 50.7813 32.0788 50.7813 31.25C50.7813 30.4212 50.4026 29.6263 49.7287 29.0403C49.0547 28.4542 48.1406 28.125 47.1875 28.125C45.8536 28.1263 44.5748 28.5877 43.6315 29.4079C42.6883 30.228 42.1578 31.3401 42.1563 32.5V33.125H40.7188V29.8925C41.1391 29.7633 41.5031 29.524 41.7606 29.2074C42.018 28.8909 42.1563 28.5127 42.1563 28.125C42.1563 27.7373 42.018 27.3591 41.7606 27.0426C41.5031 26.726 41.1391 26.4867 40.7188 26.3575V25C41.6715 24.9991 42.585 24.6695 43.2587 24.0837C43.9324 23.4978 44.3114 22.7035 44.3125 21.875C44.3125 21.7092 44.2368 21.5503 44.102 21.4331C43.9672 21.3159 43.7844 21.25 43.5938 21.25H36.4063C36.2156 21.25 36.0328 21.3159 35.898 21.4331C35.7632 21.5503 35.6875 21.7092 35.6875 21.875C35.6886 22.7035 36.0676 23.4978 36.7413 24.0837C37.415 24.6695 38.3285 24.9991 39.2813 25V26.3575C38.8609 26.4867 38.4969 26.726 38.2394 27.0426C37.982 27.3591 37.8438 27.7373 37.8438 28.125C37.8438 28.5127 37.982 28.8909 38.2394 29.2074C38.4969 29.524 38.8609 29.7633 39.2813 29.8925V33.125H37.8438V32.5C37.8423 31.3401 37.3117 30.228 36.3685 29.4079C35.4253 28.5877 34.1464 28.1263 32.8125 28.125C31.8594 28.125 30.9453 28.4542 30.2713 29.0403C29.5974 29.6263 29.2188 30.4212 29.2188 31.25C29.2188 32.0788 29.5974 32.8737 30.2713 33.4597C30.9453 34.0458 31.8594 34.375 32.8125 34.375C33.3844 34.375 33.9328 34.1775 34.3372 33.8258C34.7416 33.4742 34.9688 32.9973 34.9688 32.5C34.9688 32.0027 34.7416 31.5258 34.3372 31.1742C33.9328 30.8225 33.3844 30.625 32.8125 30.625V31.875C33.0031 31.875 33.1859 31.9408 33.3207 32.0581C33.4555 32.1753 33.5313 32.3342 33.5313 32.5C33.5313 32.6658 33.4555 32.8247 33.3207 32.9419C33.1859 33.0592 33.0031 33.125 32.8125 33.125C32.2406 33.125 31.6922 32.9275 31.2878 32.5758C30.8834 32.2242 30.6563 31.7473 30.6563 31.25C30.6563 30.7527 30.8834 30.2758 31.2878 29.9242C31.6922 29.5725 32.2406 29.375 32.8125 29.375C33.7653 29.3759 34.6788 29.7055 35.3525 30.2913C36.0262 30.8772 36.4052 31.6715 36.4063 32.5V33.125C36.2837 33.125 36.1632 33.1522 36.0562 33.2041C35.9492 33.256 35.8592 33.3308 35.7948 33.4214C35.7304 33.512 35.6937 33.6155 35.6882 33.7219C35.6827 33.8283 35.7086 33.9342 35.7634 34.0295L37.2009 36.5295C37.2606 36.6333 37.3523 36.7206 37.4659 36.7817C37.5794 36.8427 37.7103 36.875 37.8438 36.875H39.2813V48.125H37.8438V46.25C37.8438 45.7527 37.6166 45.2758 37.2122 44.9242C36.8078 44.5725 36.2594 44.375 35.6875 44.375C35.1156 44.375 34.5672 44.5725 34.1628 44.9242C33.7584 45.2758 33.5313 45.7527 33.5313 46.25V50C33.5313 50.1658 33.4555 50.3247 33.3207 50.4419C33.1859 50.5592 33.0031 50.625 32.8125 50.625C32.6219 50.625 32.4391 50.5592 32.3043 50.4419C32.1695 50.3247 32.0938 50.1658 32.0938 50V45C32.2844 45 32.4672 44.9341 32.602 44.8169L35.477 42.3169C35.5775 42.2295 35.646 42.1182 35.6737 41.9969C35.7014 41.8757 35.6872 41.75 35.6328 41.6358C35.5784 41.5216 35.4862 41.424 35.368 41.3553C35.2499 41.2867 35.1109 41.25 34.9688 41.25H33.6512C33.8848 39.3358 33.2771 37.4157 31.95 35.875C31.8831 35.7974 31.7963 35.7344 31.6965 35.691C31.5967 35.6476 31.4866 35.625 31.375 35.625C31.2634 35.625 31.1534 35.6476 31.0536 35.691C30.9537 35.7344 30.8669 35.7974 30.8 35.875C29.4729 37.4157 28.8652 39.3358 29.0988 41.25H27.7813C27.6391 41.25 27.5002 41.2867 27.382 41.3553C27.2638 41.424 27.1717 41.5216 27.1173 41.6358C27.0629 41.75 27.0486 41.8757 27.0763 41.9969C27.1041 42.1182 27.1725 42.2295 27.273 42.3169L30.148 44.8169C30.2828 44.9341 30.4656 45 30.6563 45V50C30.6563 50.4973 30.8834 50.9742 31.2878 51.3258C31.6922 51.6775 32.2406 51.875 32.8125 51.875C33.3844 51.875 33.9328 51.6775 34.3372 51.3258C34.7416 50.9742 34.9688 50.4973 34.9688 50V46.25C34.9688 46.0842 35.0445 45.9253 35.1793 45.8081C35.3141 45.6908 35.4969 45.625 35.6875 45.625C35.8781 45.625 36.0609 45.6908 36.1957 45.8081C36.3305 45.9253 36.4063 46.0842 36.4063 46.25V49.2981C36.4052 50.0888 36.6792 50.8613 37.1923 51.5141C37.7054 52.1669 38.4336 52.6695 39.2813 52.9559V54.1823C38.7661 54.8477 37.8438 56.1414 37.8438 56.875C37.8438 57.3723 38.0709 57.8492 38.4753 58.2008C38.8797 58.5525 39.4281 58.75 40 58.75C40.5719 58.75 41.1203 58.5525 41.5247 58.2008C41.9291 57.8492 42.1563 57.3723 42.1563 56.875C42.1563 56.1414 41.234 54.8477 40.7188 54.1823V52.9559C41.5664 52.6695 42.2946 52.1669 42.8077 51.5141C43.3208 50.8613 43.5948 50.0888 43.5938 49.2981V46.25C43.5938 46.0842 43.6695 45.9253 43.8043 45.8081C43.9391 45.6908 44.1219 45.625 44.3125 45.625C44.5031 45.625 44.6859 45.6908 44.8207 45.8081C44.9555 45.9253 45.0313 46.0842 45.0313 46.25V50C45.0313 50.4973 45.2584 50.9742 45.6628 51.3258C46.0672 51.6775 46.6156 51.875 47.1875 51.875C47.7594 51.875 48.3078 51.6775 48.7122 51.3258C49.1166 50.9742 49.3438 50.4973 49.3438 50V45C49.5344 45 49.7172 44.9341 49.852 44.8169L52.727 42.3169C52.8275 42.2295 52.8959 42.1181 52.9237 41.9969C52.9514 41.8757 52.9371 41.75 52.8828 41.6358ZM37.2482 22.5H42.7518C42.6027 22.8653 42.3273 23.1816 41.9633 23.4054C41.5993 23.6292 41.1645 23.7495 40.7188 23.75H39.2813C38.8355 23.7495 38.4007 23.6292 38.0367 23.4054C37.6728 23.1816 37.3973 22.8653 37.2482 22.5ZM40 27.5C40.1422 27.5 40.2811 27.5367 40.3993 27.6053C40.5175 27.674 40.6096 27.7716 40.664 27.8858C40.7184 28 40.7327 28.1257 40.7049 28.2469C40.6772 28.3682 40.6088 28.4795 40.5082 28.5669C40.4077 28.6543 40.2797 28.7139 40.1402 28.738C40.0008 28.7621 39.8563 28.7497 39.725 28.7024C39.5936 28.6551 39.4814 28.575 39.4024 28.4722C39.3234 28.3695 39.2813 28.2486 39.2813 28.125C39.2815 27.9593 39.3573 27.8004 39.492 27.6833C39.6268 27.5661 39.8094 27.5002 40 27.5ZM37.5692 34.375H42.4308L41.712 35.625H38.288L37.5692 34.375ZM31.375 37.4042C32.1083 38.5788 32.3985 39.9241 32.2047 41.25H30.5453C30.3515 39.9241 30.6417 38.5788 31.375 37.4042ZM29.5165 42.5H33.2336L31.7961 43.75H30.954L29.5165 42.5ZM40 57.5C39.8096 57.4999 39.627 57.4341 39.4923 57.317C39.3575 57.2 39.2816 57.0413 39.2813 56.8757C39.2871 56.6847 39.5861 56.1401 40 55.5336C40.4138 56.1399 40.7126 56.6842 40.7188 56.8755C40.7184 57.0411 40.6425 57.1998 40.5078 57.3169C40.3731 57.434 40.1905 57.4998 40 57.5ZM40 51.851C39.3889 51.6851 38.8526 51.3572 38.4662 50.9133C38.0799 50.4693 37.8627 49.9315 37.845 49.375H42.155C42.1373 49.9315 41.9201 50.4693 41.5338 50.9133C41.1474 51.3572 40.6111 51.6851 40 51.851ZM48.625 37.4042C49.3583 38.5788 49.6485 39.9241 49.4547 41.25H47.7953C47.6015 39.9241 47.8917 38.5788 48.625 37.4042ZM49.0461 43.75H48.204L46.7665 42.5H50.4836L49.0461 43.75Z" fill="black"/>
<path d="M27.7813 50.6256V51.25C27.7813 51.7473 27.5541 52.2242 27.1497 52.5758C26.7453 52.9275 26.1969 53.125 25.625 53.125C25.0531 53.125 24.5047 52.9275 24.1003 52.5758C23.6959 52.2242 23.4688 51.7473 23.4688 51.25V47.5C23.6594 47.5 23.8422 47.4341 23.977 47.3169L26.852 44.8169C26.9525 44.7295 27.021 44.6182 27.0487 44.4969C27.0764 44.3757 27.0622 44.25 27.0078 44.1358C26.9534 44.0216 26.8612 43.924 26.743 43.8553C26.6249 43.7867 26.4859 43.75 26.3438 43.75H25.0262C25.2598 41.8358 24.6521 39.9157 23.325 38.375C23.2581 38.2974 23.1713 38.2344 23.0715 38.191C22.9717 38.1476 22.8616 38.125 22.75 38.125C22.6384 38.125 22.5284 38.1476 22.4286 38.191C22.3287 38.2344 22.2419 38.2974 22.175 38.375C20.8479 39.9157 20.2402 41.8358 20.4738 43.75H19.1563C19.0141 43.75 18.8752 43.7867 18.757 43.8553C18.6388 43.924 18.5467 44.0216 18.4923 44.1358C18.4379 44.25 18.4236 44.3757 18.4513 44.4969C18.4791 44.6182 18.5475 44.7295 18.648 44.8169L21.523 47.3169C21.6578 47.4341 21.8406 47.5 22.0313 47.5V51.25C22.0313 52.0788 22.4099 52.8737 23.0838 53.4597C23.7578 54.0458 24.6719 54.375 25.625 54.375C26.5781 54.375 27.4922 54.0458 28.1662 53.4597C28.8401 52.8737 29.2188 52.0788 29.2188 51.25V50.6256C29.2176 50.0109 29.4258 49.4098 29.8173 48.898L28.6202 48.2059C28.0718 48.9227 27.7798 49.7647 27.7813 50.6256ZM22.75 39.9042C23.4833 41.0788 23.7735 42.4241 23.5797 43.75H21.9203C21.7265 42.4241 22.0167 41.0788 22.75 39.9042ZM20.8915 45H24.6086L23.1711 46.25H22.329L20.8915 45Z" fill="black"/>
<path d="M61.5078 44.1358C61.4534 44.0216 61.3613 43.924 61.2431 43.8553C61.1249 43.7867 60.9859 43.75 60.8438 43.75H59.5262C59.7598 41.8358 59.1521 39.9157 57.8251 38.375C57.7581 38.2974 57.6713 38.2344 57.5715 38.191C57.4717 38.1476 57.3616 38.125 57.25 38.125C57.1385 38.125 57.0284 38.1476 56.9286 38.191C56.8288 38.2344 56.742 38.2974 56.675 38.375C55.3479 39.9157 54.7402 41.8358 54.9738 43.75H53.6563C53.5141 43.75 53.3752 43.7867 53.257 43.8553C53.1388 43.924 53.0467 44.0216 52.9923 44.1358C52.9379 44.25 52.9236 44.3757 52.9514 44.4969C52.9791 44.6182 53.0475 44.7295 53.148 44.8169L56.023 47.3169C56.1578 47.4341 56.3407 47.5 56.5313 47.5V51.25C56.5313 51.7473 56.3041 52.2242 55.8997 52.5758C55.4954 52.9275 54.9469 53.125 54.375 53.125C53.8032 53.125 53.2547 52.9275 52.8503 52.5758C52.446 52.2242 52.2188 51.7473 52.2188 51.25V50.6256C52.2202 49.7647 51.9283 48.9227 51.3798 48.2059L50.1827 48.898C50.5742 49.4098 50.7825 50.0109 50.7813 50.6256V51.25C50.7813 52.0788 51.1599 52.8737 51.8339 53.4597C52.5078 54.0458 53.4219 54.375 54.375 54.375C55.3282 54.375 56.2422 54.0458 56.9162 53.4597C57.5902 52.8737 57.9688 52.0788 57.9688 51.25V47.5C58.1594 47.5 58.3423 47.4341 58.4771 47.3169L61.3521 44.8169C61.4525 44.7295 61.521 44.6181 61.5487 44.4969C61.5764 44.3757 61.5622 44.25 61.5078 44.1358ZM57.25 39.9042C57.9833 41.0788 58.2736 42.4241 58.0798 43.75H56.4203C56.2265 42.4241 56.5168 41.0788 57.25 39.9042ZM57.6711 46.25H56.829L55.3915 45H59.1086L57.6711 46.25Z" fill="black"/>
</svg>
