<svg width="80" height="80" viewBox="0 0 80 80" fill="none" xmlns="http://www.w3.org/2000/svg">
<circle opacity="0.3" cx="40" cy="40" r="40" fill="#FFBE5B"/>
<path d="M43.3118 39.4993L41.5122 37.6996C41.0152 37.203 40.2097 37.203 39.7125 37.6996L36.5627 40.8495C35.5684 41.8437 35.5687 43.4555 36.5627 44.4494C37.5569 45.4433 39.1686 45.4433 40.1626 44.4494L43.3121 41.2993C43.8085 40.802 43.8085 39.9966 43.3118 39.4993ZM39.2624 43.5493C38.7655 44.0462 37.9594 44.0465 37.4622 43.5493C36.9652 43.0523 36.9649 42.2463 37.4622 41.7493L38.3623 40.8489L40.1623 42.6491L39.2624 43.5493ZM41.0621 41.7493L39.2624 39.9491L40.6123 38.5995L42.412 40.3994L41.0621 41.7493Z" fill="black"/>
<path d="M45.9088 32.1949C45.163 32.9403 45.163 34.149 45.9085 34.8947C46.6539 35.6404 47.8628 35.6404 48.6082 34.895V34.8947C49.3417 34.1472 49.3362 32.9482 48.5957 32.2077C47.8552 31.4669 46.6562 31.4614 45.9088 32.1949ZM47.7084 33.9946V33.9949C47.4599 34.243 47.0571 34.243 46.8086 33.9946C46.6265 33.8125 46.5721 33.5387 46.6705 33.301C46.769 33.0633 47.0011 32.908 47.2587 32.908C47.5159 32.908 47.748 33.0633 47.8465 33.301C47.945 33.5387 47.8905 33.8125 47.7084 33.9946Z" fill="black"/>
<path d="M57.3583 36.8266L57.3237 36.8103C58.7502 33.0653 57.8442 28.8316 55.0096 25.9984C52.1752 23.1652 47.9412 22.261 44.1968 23.6892L44.184 23.6624C44.0398 23.3481 43.7709 23.1084 43.442 23.0009C43.107 22.8899 42.7412 22.9214 42.4295 23.0874C39.9767 24.3962 38.083 26.5519 37.1007 29.1529C37.0518 29.2796 37.0054 29.4116 36.96 29.5473L28.7744 21.3617C28.3695 20.956 27.7383 20.8831 27.2515 21.1861C26.3342 21.75 25.5625 22.522 24.9989 23.4393C24.6956 23.9261 24.7688 24.5576 25.1754 24.9622L33.4128 33.1993L33.8626 33.6494C34.0752 33.9261 34.1449 34.2871 34.0505 34.6229C33.9878 35.0325 34.1958 35.436 34.5658 35.6227C34.9305 35.8074 35.3724 35.7374 35.6622 35.4491L36.7121 36.4989L22.5083 52.1223C21.8222 52.8761 21.8505 54.0364 22.572 54.7562L23.513 55.6971L23.5132 55.698L25.3132 57.4979L25.3141 57.4985L26.2553 58.4397C26.9754 59.1618 28.1362 59.1892 28.8898 58.5023L44.6378 44.1855C45.6798 44.4913 46.7597 44.6481 47.8456 44.6516C52.061 44.6437 55.9298 42.3165 57.9127 38.5966C58.0875 38.2843 58.1236 37.9135 58.0129 37.5732C57.9075 37.2443 57.6703 36.9743 57.3583 36.8266ZM54.1112 26.8997C56.5491 29.3615 57.3514 33.0071 56.1722 36.265L54.436 35.4429C55.2933 32.9223 54.6443 30.1334 52.7619 28.2504C50.8795 26.3678 48.0909 25.7179 45.57 26.5746L44.7491 24.8381C48.0061 23.6607 51.65 24.4632 54.1112 26.9V26.8997ZM51.9952 34.2871C52.0503 33.0761 51.5955 31.8972 50.7414 31.0367L49.9742 30.2697C49.1137 29.4159 47.9353 28.9612 46.7244 29.016L46.1226 27.7433C48.1483 27.1062 50.3601 27.6486 51.8618 29.1503C53.3632 30.6522 53.905 32.8641 53.2676 34.8898L51.9952 34.2871ZM37.3894 49.0549C36.7599 48.7333 36.17 48.3385 35.6325 47.8792C34.8906 47.2747 34.3182 46.7043 34.3126 46.6988C34.3071 46.693 33.7365 46.1203 33.1332 45.3804C32.6732 44.8424 32.2785 44.2522 31.9563 43.6218L38.0363 36.9338L38.0428 36.9295C38.0457 36.9265 38.0465 36.9225 38.0492 36.9195L40.1838 34.5714L40.612 34.9996L43.3118 37.6991L46.4398 40.8274L37.3894 49.0549ZM24.8439 55.2287L32.6196 46.7434C33.058 47.243 33.3942 47.58 33.4128 47.5989L33.4137 47.5995C33.435 47.6208 33.7702 47.9549 34.2678 48.3913L25.7822 56.167L24.8439 55.2287ZM37.4622 33.65L38.3626 32.7496L39.2831 33.6701L37.5685 35.556L36.5624 34.5495L37.4622 33.65ZM47.291 39.8783L41.1329 33.7202L44.8312 30.9668C46.0972 29.9636 47.9097 30.0501 49.0743 31.1696L49.8422 31.9366C50.9617 33.1015 51.0482 34.9142 50.0447 36.1805L47.291 39.8783ZM40.6149 25.9998C41.326 25.2841 42.1417 24.6802 43.0339 24.2092L44.66 27.6355L44.6608 27.6399L44.6643 27.6445L45.4243 29.2464C44.9387 29.4063 44.482 29.6426 44.0707 29.9464L40.2231 32.811L39.2619 31.8495C39.5497 31.5593 39.6196 31.1174 39.4352 30.7527C39.247 30.3848 38.8453 30.1777 38.4366 30.2377C38.3157 30.2557 38.1934 30.2633 38.0713 30.2601C38.1401 30.0265 38.2117 29.8083 38.2898 29.6056C38.7958 28.2501 39.589 27.02 40.6149 25.9998ZM26.8926 23.0795C27.1982 22.7818 27.5268 22.5086 27.8752 22.2622L35.6625 30.0495L33.8614 31.8506L26.0811 24.109C26.3109 23.7356 26.5833 23.3901 26.8926 23.0795ZM34.7627 32.7496L36.5621 30.9496C36.8953 31.275 37.3302 31.4757 37.794 31.5177L36.1394 33.1723L35.3307 33.9806C35.2885 33.5172 35.0878 33.0825 34.7627 32.7496ZM23.4503 52.9784L31.0515 44.6172C31.2802 45.0084 31.5331 45.3848 31.8086 45.7442L23.9432 54.328L23.4716 53.8564C23.231 53.6163 23.2216 53.2298 23.4503 52.9784ZM28.0331 57.5608C27.7817 57.7895 27.3948 57.7802 27.1548 57.5396L26.6829 57.0677L35.2669 49.2023C35.6267 49.4781 36.0031 49.731 36.3943 49.9596L28.0331 57.5608ZM55.011 40.4C52.5947 42.8242 49.1169 43.8621 45.7672 43.1586L47.79 41.3199C47.8037 41.3028 47.8165 41.285 47.8287 41.2669C47.8413 41.2524 47.8605 41.2448 47.8718 41.2291L51.0648 36.9405C51.3686 36.5292 51.6049 36.0722 51.7648 35.5866L53.3518 36.3372C53.3591 36.3407 53.3634 36.3474 53.371 36.3506C53.3766 36.3533 53.3824 36.3521 53.3882 36.3544L56.2371 37.7017L56.245 37.7058L56.2488 37.7087L56.2514 37.7093L56.7956 37.9875C56.3239 38.8756 55.7224 39.6887 55.011 40.4Z" fill="black"/>
</svg>
