<svg width="80" height="80" viewBox="0 0 80 80" fill="none" xmlns="http://www.w3.org/2000/svg">
<circle opacity="0.3" cx="40" cy="40" r="40" fill="#FFBE5B"/>
<g clip-path="url(#clip0_166_605)">
<path d="M22.6404 57.7932C22.5694 57.7932 22.4983 57.7932 22.4629 57.7575C22.2854 57.7221 22.1079 57.58 22.0368 57.4025L20.0842 53.7812C19.9067 53.4262 20.0132 53.0004 20.3682 52.8229L21.54 52.1836L20.9007 50.8346C20.7589 50.5153 20.8654 50.1246 21.1493 49.9471L22.4276 49.1306L21.7529 47.7105C21.6108 47.3909 21.7175 47.0005 22.0015 46.823L23.3151 45.9355L22.6404 44.4443C22.5694 44.3025 22.5694 44.125 22.6051 43.9829L23.9541 38.8351C21.824 36.8825 20.9718 33.7938 21.7883 30.8472C22.3565 28.8235 23.6701 27.1195 25.5159 26.0898C27.3621 25.0605 29.4569 24.8119 31.5159 25.3798C35.705 26.5516 38.1548 30.9183 36.9476 35.1074C36.1311 38.0897 33.6814 40.468 30.9123 41.0363L26.8653 55.1659C26.8296 55.3434 26.6878 55.4856 26.5456 55.592L22.9955 57.651C22.889 57.7575 22.7469 57.7932 22.6404 57.7932ZM21.6465 53.7458L22.9244 56.0888L25.587 54.5269L29.6697 40.2552C29.7408 39.9712 29.9894 39.7937 30.238 39.758C32.652 39.4387 34.8175 37.3797 35.5632 34.7524C36.5215 31.3087 34.5335 27.7585 31.0898 26.7999C29.4211 26.3384 27.6818 26.5516 26.1906 27.3681C24.6995 28.2199 23.5991 29.6046 23.1376 31.2376C22.4276 33.7584 23.244 36.4211 25.1966 38.0186C25.4095 38.1961 25.5159 38.4801 25.4452 38.764L24.0605 44.0893L24.877 45.9001C25.0191 46.2194 24.9127 46.5744 24.6284 46.7876L23.3151 47.6395L23.9894 49.0242C24.1316 49.3435 24.0252 49.7342 23.7409 49.9117L22.4629 50.7282L23.1376 52.1129C23.3151 52.4679 23.173 52.8583 22.8533 53.0358L21.6465 53.7458Z" fill="black"/>
<path d="M30.0605 32.9417C29.8472 32.9417 29.5987 32.906 29.3858 32.8349C28.7468 32.6574 28.2143 32.2317 27.8593 31.6635C27.5396 31.0956 27.4685 30.4209 27.6461 29.7819C28.0368 28.4683 29.4211 27.6872 30.7348 28.0422C31.3737 28.2197 31.9063 28.6458 32.2613 29.214C32.5809 29.7819 32.652 30.4566 32.4745 31.0956C32.1548 32.2317 31.1609 32.9417 30.0605 32.9417ZM30.0605 29.3915C29.5987 29.3915 29.1372 29.7109 29.0308 30.1723C28.9597 30.4566 28.9954 30.7405 29.1372 30.9891C29.2793 31.2374 29.5279 31.4149 29.7762 31.4859C30.3444 31.6635 30.948 31.3084 31.1255 30.7405C31.1962 30.4566 31.1609 30.1723 31.0187 29.9241C30.8769 29.6755 30.6283 29.498 30.3798 29.4269C30.238 29.3915 30.1669 29.3915 30.0605 29.3915Z" fill="black"/>
<path d="M36.1665 35.9238C34.64 35.9238 33.2199 35.427 32.013 34.5037C31.6934 34.2551 31.658 33.8294 31.8709 33.5097C32.1195 33.1901 32.5456 33.1547 32.8649 33.3676C33.8235 34.1133 34.9596 34.4684 36.1665 34.4684C37.1251 34.4684 38.0837 34.2198 38.9002 33.7226C39.2552 33.5097 39.6813 33.6519 39.8588 33.9712C40.0717 34.3262 39.9299 34.7523 39.6102 34.9298C38.5809 35.6045 37.3737 35.9238 36.1665 35.9238Z" fill="black"/>
<path d="M30.0958 29.3916H30.0605C29.6697 29.3559 29.3858 29.0366 29.3858 28.6459C29.6344 25.0957 32.6163 22.3267 36.1665 22.3267C39.3263 22.3267 42.1311 24.5632 42.8054 27.6873C42.8764 28.078 42.6636 28.433 42.2729 28.5395C41.8825 28.6105 41.5275 28.3973 41.421 28.0069C40.8885 25.4865 38.6873 23.7114 36.1665 23.7114C33.362 23.7114 30.9834 25.9122 30.8059 28.717C30.7705 29.072 30.4508 29.3916 30.0958 29.3916Z" fill="black"/>
<path d="M52.8523 52.5385C52.6748 52.5385 52.4973 52.4678 52.3555 52.3257L40.2849 40.2551C40.0009 39.9711 39.3616 39.2254 39.3616 38.3378L38.6162 30.4921C38.6162 30.4567 38.6162 30.4567 38.6162 30.421C38.6162 29.4624 38.9002 28.7524 39.5391 28.078C40.1784 27.4391 40.8885 27.1548 41.705 27.1548H41.8825H41.9535L49.7993 27.8648C50.7222 27.8648 51.4322 28.5395 51.7165 28.7881L63.7871 40.8587C64.0711 41.1426 64.0711 41.5687 63.7871 41.8527L53.3495 52.3257C53.243 52.4678 53.0655 52.5385 52.8523 52.5385ZM40.0363 30.3857L40.7817 38.2314V38.3025C40.7817 38.5864 40.9949 38.9414 41.3142 39.2611L52.888 50.8345L62.296 41.3912L50.7222 29.8174C50.4029 29.4981 50.0122 29.2849 49.7639 29.2849C49.7282 29.2849 49.7282 29.2849 49.6929 29.2849L41.705 28.5395C41.2789 28.5395 40.9238 28.717 40.5688 29.072C40.1784 29.4624 40.0363 29.8174 40.0363 30.3857Z" fill="black"/>
<path d="M47.4917 40.0777C47.3142 40.0777 47.1367 40.0066 46.9945 39.8648C46.7106 39.5805 46.7106 39.1548 46.9945 38.8705L50.4383 35.4271C50.7222 35.1428 51.1483 35.1428 51.4322 35.4271C51.7165 35.711 51.7165 36.1371 51.4322 36.4211L47.9888 39.8648C47.8467 40.0066 47.6692 40.0777 47.4917 40.0777Z" fill="black"/>
<path d="M51.5033 44.0891C51.3258 44.0891 51.1483 44.0181 51.0065 43.8763C50.7222 43.5923 50.7222 43.1662 51.0065 42.8823L54.4499 39.4385C54.7342 39.1546 55.1599 39.1546 55.4442 39.4385C55.7281 39.7225 55.7281 40.1486 55.4442 40.4325L52.0005 43.8763C51.8583 44.0181 51.6808 44.0891 51.5033 44.0891Z" fill="black"/>
</g>
<defs>
<clipPath id="clip0_166_605">
<rect width="44" height="44" fill="white" transform="translate(20 18)"/>
</clipPath>
</defs>
</svg>
