<svg width="220" height="220" viewBox="0 0 220 220" fill="none" xmlns="http://www.w3.org/2000/svg">
<rect width="220" height="220" fill="#B9AE9D"/>
<path d="M105.703 130.674C104.814 130.674 104.092 131.394 104.092 132.285V135.543C104.092 136.433 104.814 137.154 105.703 137.154C106.593 137.154 107.314 136.433 107.314 135.543V132.285C107.314 131.394 106.593 130.674 105.703 130.674Z" fill="#0F0F0E"/>
<path d="M82.3053 106.683H76.0345C74.5541 106.683 73.349 107.888 73.349 109.369V125.544C73.349 127.026 74.5541 128.23 76.0345 128.23H82.3053C83.7857 128.23 84.9908 127.026 84.9908 125.544V109.369C84.9908 107.888 83.7857 106.683 82.3053 106.683ZM81.7682 125.007H76.5717V109.906H81.7682V125.007Z" fill="black"/>
<path d="M143.965 106.683H137.695C136.214 106.683 135.009 107.888 135.009 109.369V125.544C135.009 127.026 136.214 128.23 137.695 128.23H143.965C145.446 128.23 146.651 127.026 146.651 125.544V109.369C146.651 107.888 145.446 106.683 143.965 106.683ZM143.428 125.007H138.232V109.906H143.428V125.007Z" fill="black"/>
<path d="M110.702 93.7146H109.298C105.811 93.7146 102.976 96.5512 102.976 100.037V106.162C102.976 107.44 104.015 108.48 105.294 108.48H114.706C115.985 108.48 117.024 107.44 117.024 106.162V100.037C117.024 96.5512 114.189 93.7146 110.702 93.7146V93.7146ZM106.197 105.257V100.037C106.197 98.3279 107.588 96.9373 109.298 96.9373H110.702C112.411 96.9373 113.802 98.3279 113.802 100.037V105.257H106.197Z" fill="black"/>
<path d="M163.389 146.767H155.815V99.2075H162.314C163.188 99.2075 163.936 98.7962 164.316 98.1072C164.695 97.4182 164.643 96.5656 164.177 95.827L150.996 74.9738C150.389 74.0128 149.123 73.3154 147.986 73.3154H114.054L111.926 70.7482C111.439 70.1608 110.737 69.8242 110 69.8242C109.262 69.8242 108.561 70.1608 108.074 70.7482L105.946 73.3154H72.0138C70.8766 73.3154 69.6111 74.0128 69.0034 74.9738L55.8233 95.827C55.3567 96.5664 55.3046 97.4182 55.684 98.1072C56.0641 98.7962 56.8119 99.2075 57.6855 99.2075H64.1854V133.581C62.5649 135.131 61.5527 137.31 61.5527 139.725C61.5527 140.167 61.5888 140.601 61.6543 141.026H60.9703C59.4899 141.026 58.2848 142.231 58.2848 143.711V146.767H56.6113C55.7217 146.767 55 147.489 55 148.378C55 149.269 55.7217 149.989 56.6113 149.989H163.389C164.278 149.989 165 149.269 165 148.378C165 147.489 164.278 146.767 163.389 146.767ZM156.775 90.1479H128.009L125.872 87.5698H155.145L156.775 90.1479ZM151.478 81.769L153.108 84.3472H123.2L121.063 81.769H151.478ZM147.969 76.5381C148.058 76.5532 148.221 76.6438 148.281 76.7101L149.441 78.5464H118.391L116.726 76.5381H147.969ZM68.5217 81.769H79.2773C80.1669 81.769 80.8887 81.0473 80.8887 80.1577C80.8887 79.2673 80.1669 78.5464 79.2773 78.5464H70.5577L71.7192 76.7093C71.7788 76.6438 71.9424 76.5532 72.0297 76.5381H103.274L101.609 78.5464H86.7969C85.9073 78.5464 85.1855 79.2673 85.1855 80.1577C85.1855 81.0473 85.9073 81.769 86.7969 81.769H98.9372L96.7997 84.3472H66.8919L68.5217 81.769ZM64.8551 87.5698H94.1276L91.9901 90.1479H63.2253L64.8551 87.5698ZM59.5361 95.9848L61.1885 93.3706H89.3188L87.151 95.9848H59.5361ZM90.6154 131.134C89.3951 130.438 87.9928 130.041 86.5149 130.041C83.612 130.041 80.9206 131.587 79.4183 134.007C79.0155 133.928 78.6034 133.889 78.1847 133.889C77.5829 133.889 77.0005 133.974 76.4474 134.13C74.8571 132.324 72.5341 131.219 70.0575 131.219C69.1327 131.219 68.2423 131.37 67.4081 131.645V99.2075H84.4789C83.894 99.9141 83.7505 100.772 84.0937 101.503C84.4378 102.235 85.1914 102.672 86.1095 102.672H90.6154V131.134ZM71.809 141.026H64.9407C64.835 140.609 64.7754 140.174 64.7754 139.725C64.7754 136.812 67.1454 134.442 70.0575 134.442C71.3877 134.442 72.6466 134.956 73.6024 135.82C72.4678 136.979 71.767 138.563 71.767 140.309C71.767 140.551 71.7822 140.791 71.809 141.026ZM90.6154 146.767H61.5074V144.248H90.6154V146.767ZM90.6162 141.026H75.0736C75.0199 140.796 74.9897 140.556 74.9897 140.309C74.9897 138.546 76.4231 137.111 78.1847 137.111C78.6613 137.111 79.1204 137.215 79.5493 137.417C79.9546 137.609 80.4204 137.623 80.8366 137.457C81.2529 137.291 81.5802 136.959 81.7422 136.541C82.4983 134.58 84.4176 133.264 86.5157 133.264C88.1715 133.264 89.6738 134.076 90.6162 135.336V141.026ZM88.4653 99.4492L110 73.474L131.535 99.4492H128.693L111.24 78.3987C110.934 78.0302 110.479 77.8162 110 77.8162C109.52 77.8162 109.065 78.0302 108.76 78.3995L91.3069 99.4492H88.4653ZM116.823 146.767H103.177V121.759H116.823V146.767ZM152.592 146.767H129.385V127.309C129.385 126.42 128.663 125.698 127.773 125.698C126.884 125.698 126.162 126.42 126.162 127.309V146.767H120.046V121.221C120.046 119.741 118.841 118.536 117.36 118.536H102.64C101.159 118.536 99.9544 119.741 99.9544 121.221V146.767H93.838V101.446L110 81.952L126.162 101.446V128.849C126.162 129.739 126.884 130.46 127.773 130.46C128.663 130.46 129.385 129.739 129.385 128.849V102.672H133.89C134.808 102.672 135.561 102.235 135.905 101.503C136.25 100.772 136.105 99.9141 135.521 99.2075H150.964C151.853 99.2075 152.575 98.4866 152.575 97.5961C152.575 96.7065 151.853 95.9848 150.964 95.9848H132.849L130.681 93.3706H158.811L160.464 95.9848H149.531C148.642 95.9848 147.92 96.7065 147.92 97.5961C147.92 98.4866 148.642 99.2075 149.531 99.2075H152.592V146.767Z" fill="black"/>
</svg>
