<svg width="220" height="220" viewBox="0 0 220 220" fill="none" xmlns="http://www.w3.org/2000/svg">
<rect width="220" height="220" fill="#B9AE9D"/>
<path d="M125.724 114.078L129.478 84.0522C129.574 83.2842 129.505 82.5046 129.277 81.7651C129.049 81.0255 128.666 80.343 128.153 79.7628C127.641 79.1826 127.011 78.7179 126.306 78.3996C125.6 78.0814 124.835 77.9168 124.061 77.9167H109.109C107.998 77.9203 106.915 78.2608 106.003 78.8932C105.09 79.5257 104.391 80.4202 103.998 81.4586L97.0406 100.011C96.5848 101.215 95.7743 102.252 94.7163 102.985C93.6583 103.718 92.4026 104.113 91.1154 104.117H84.2488C83.3805 104.118 82.5481 104.464 81.9341 105.078C81.3201 105.692 80.9747 106.524 80.9738 107.392V113.942C80.9738 114.086 81.002 114.228 81.0568 114.36C81.1117 114.493 81.1921 114.613 81.2935 114.714C81.3949 114.816 81.5152 114.896 81.6477 114.951C81.7801 115.006 81.9221 115.034 82.0654 115.034H85.1597L81.2825 140.236C81.1738 140.943 81.3432 141.664 81.7551 142.248C82.167 142.832 82.7892 143.234 83.4911 143.368C84.193 143.503 84.9198 143.361 85.5188 142.971C86.1177 142.581 86.5422 141.974 86.7029 141.277L92.759 115.034H96.8921L93.0148 140.236C92.9061 140.943 93.0755 141.664 93.4874 142.248C93.8993 142.832 94.5216 143.234 95.2235 143.368C95.9254 143.503 96.6522 143.361 97.2512 142.971C97.8501 142.581 98.2746 141.974 98.4353 141.277L104.491 115.034H108.765L114.821 141.277C114.982 141.974 115.407 142.581 116.006 142.971C116.605 143.361 117.331 143.503 118.033 143.368C118.735 143.234 119.357 142.832 119.769 142.248C120.181 141.664 120.351 140.943 120.242 140.236L116.365 115.034H117.499L123.555 141.277C123.716 141.974 124.14 142.581 124.739 142.971C125.338 143.361 126.065 143.503 126.767 143.368C127.469 143.234 128.091 142.832 128.503 142.248C128.915 141.664 129.084 140.943 128.975 140.236L125.084 114.939C125.256 114.863 125.405 114.744 125.517 114.593C125.63 114.442 125.701 114.264 125.724 114.078V114.078ZM88.6156 106.301H91.1154C92.8468 106.295 94.5357 105.764 95.9587 104.778C97.3817 103.792 98.4719 102.397 99.085 100.778L106.042 82.2253C106.278 81.6022 106.698 81.0655 107.245 80.686C107.793 80.3066 108.442 80.1023 109.109 80.1001H124.061C124.526 80.1001 124.985 80.1989 125.408 80.3898C125.831 80.5808 126.209 80.8596 126.517 81.2077C126.824 81.5559 127.054 81.9654 127.191 82.4091C127.328 82.8528 127.369 83.3206 127.311 83.7814V83.7814L125.462 98.574C125.301 99.8428 124.761 101.033 123.911 101.989C123.062 102.946 121.943 103.622 120.702 103.931C122.115 102.581 123.02 100.785 123.262 98.8452L124.633 87.8773L122.466 87.6065L121.095 98.5744C120.902 100.104 120.158 101.511 119.002 102.531C117.846 103.551 116.358 104.115 114.816 104.117C113.948 104.118 113.115 104.464 112.501 105.078C111.887 105.692 111.542 106.524 111.541 107.392V108.672C111.19 108.547 110.821 108.484 110.449 108.484H88.6156C88.2436 108.484 87.8744 108.547 87.5239 108.672V107.392C87.5242 107.103 87.6393 106.825 87.844 106.621C88.0486 106.416 88.3261 106.301 88.6156 106.301V106.301ZM118.091 112.851V107.392C118.091 107.103 118.207 106.825 118.411 106.621C118.616 106.416 118.893 106.301 119.183 106.301C121.232 106.3 123.212 105.559 124.757 104.214L123.677 112.851H118.091ZM116.095 106.301C115.971 106.651 115.907 107.02 115.908 107.392V112.851H113.724V107.392C113.725 107.103 113.84 106.825 114.044 106.621C114.249 106.416 114.527 106.301 114.816 106.301H116.095ZM111.541 112.851H87.5239V111.759C87.5242 111.47 87.6393 111.192 87.844 110.987C88.0486 110.783 88.3261 110.668 88.6156 110.667H110.449C110.739 110.668 111.016 110.783 111.221 110.987C111.426 111.192 111.541 111.47 111.541 111.759V112.851ZM83.1571 107.392C83.1575 107.103 83.2726 106.825 83.4772 106.621C83.6819 106.416 83.9594 106.301 84.2488 106.301H85.5276C85.4034 106.651 85.3401 107.02 85.3405 107.392V112.851H83.1571V107.392ZM84.5755 140.786C84.5418 140.932 84.453 141.059 84.3275 141.141C84.2021 141.223 84.0499 141.252 83.9029 141.224C83.7559 141.196 83.6256 141.112 83.5394 140.99C83.4531 140.867 83.4177 140.716 83.4404 140.568L87.3687 115.034H90.5183L84.5755 140.786ZM96.3079 140.786C96.2742 140.932 96.1853 141.059 96.0599 141.141C95.9345 141.223 95.7823 141.252 95.6353 141.224C95.4883 141.196 95.358 141.112 95.2717 140.99C95.1855 140.867 95.15 140.716 95.1728 140.568L99.1011 115.034H102.251L96.3079 140.786ZM118.084 140.568C118.107 140.716 118.071 140.867 117.985 140.99C117.899 141.112 117.768 141.196 117.621 141.224C117.474 141.252 117.322 141.223 117.197 141.141C117.071 141.059 116.983 140.932 116.949 140.786L111.006 115.034H114.156L118.084 140.568ZM126.685 141.033C126.615 141.114 126.524 141.174 126.422 141.207C126.321 141.24 126.212 141.243 126.108 141.218C126.004 141.192 125.909 141.138 125.834 141.062C125.759 140.986 125.706 140.891 125.682 140.786L119.74 115.034H122.889L126.817 140.568C126.831 140.651 126.826 140.735 126.803 140.815C126.78 140.896 126.74 140.97 126.685 141.033H126.685Z" fill="#0F0F0E"/>
</svg>
