<svg width="220" height="220" viewBox="0 0 220 220" fill="none" xmlns="http://www.w3.org/2000/svg">
<rect width="220" height="220" fill="#B9AE9D"/>
<path d="M156.402 144.592C156.405 144.519 156.406 144.447 156.406 144.375C156.404 142.552 155.679 140.805 154.39 139.516C153.101 138.227 151.354 137.502 149.531 137.5V105.703L155.719 101.062C155.934 100.901 156.108 100.692 156.227 100.451C156.347 100.211 156.408 99.9455 156.406 99.6768C156.405 99.4082 156.34 99.1437 156.218 98.9046C156.095 98.6654 155.918 98.4583 155.702 98.2998L140.938 87.5106V68.75C141.393 68.75 141.831 68.5689 142.153 68.2466C142.475 67.9243 142.656 67.4871 142.656 67.0312V60.1562C142.656 59.7004 142.475 59.2632 142.153 58.9409C141.831 58.6186 141.393 58.4375 140.938 58.4375H123.75C123.294 58.4375 122.857 58.6186 122.535 58.9409C122.212 59.2632 122.031 59.7004 122.031 60.1562V67.0312C122.031 67.4871 122.212 67.9243 122.535 68.2466C122.857 68.5689 123.294 68.75 123.75 68.75V74.9506L111.014 65.6436C110.72 65.4285 110.365 65.3125 110 65.3125C109.635 65.3125 109.28 65.4285 108.986 65.6436L64.2984 98.2998C64.0816 98.4583 63.9048 98.6654 63.7825 98.9046C63.6601 99.1437 63.5955 99.4082 63.5938 99.6768C63.5921 99.9455 63.6535 100.211 63.7728 100.451C63.8922 100.692 64.0664 100.901 64.2813 101.062L70.4688 105.703V137.5C68.646 137.502 66.8985 138.227 65.6097 139.516C64.3208 140.805 63.5958 142.552 63.5938 144.375C63.5938 144.447 63.595 144.519 63.5976 144.592C61.9762 145.008 60.5626 146.003 59.622 147.388C58.6815 148.773 58.2787 150.453 58.4891 152.114C58.6996 153.775 59.5089 155.302 60.7651 156.409C62.0214 157.515 63.6383 158.126 65.3125 158.125H154.688C156.362 158.126 157.979 157.515 159.235 156.409C160.491 155.302 161.3 153.775 161.511 152.114C161.721 150.453 161.319 148.773 160.378 147.388C159.437 146.003 158.024 145.008 156.402 144.592V144.592ZM125.469 61.875H139.219V65.3125H125.469V61.875ZM127.188 77.3438V68.75H137.5V84.9986L127.025 77.3438H127.188ZM110 69.1599L151.799 99.7055L147.797 102.707L111.011 75.9537C110.717 75.74 110.363 75.6249 110 75.6249C109.637 75.6249 109.283 75.74 108.989 75.9537L72.2032 102.707L68.2011 99.7055L110 69.1599ZM61.875 151.25C61.876 150.348 62.2314 149.481 62.8647 148.839C63.498 148.196 64.3586 147.827 65.2609 147.812H65.265C65.3529 147.825 65.4408 147.835 65.5304 147.841C65.8152 147.859 66.1 147.806 66.3591 147.686C66.6182 147.567 66.8434 147.384 67.0145 147.156C67.1855 146.927 67.297 146.66 67.3388 146.378C67.3806 146.095 67.3515 145.807 67.254 145.539C67.1118 145.167 67.0364 144.773 67.0313 144.375C67.0323 143.464 67.3948 142.59 68.0393 141.946C68.6837 141.301 69.5574 140.939 70.4688 140.938V154.688H65.3125C64.4012 154.686 63.5274 154.324 62.883 153.679C62.2386 153.035 61.8761 152.161 61.875 151.25V151.25ZM135.781 154.688H115.156V116.875H135.781V154.688ZM139.219 154.688V115.156C139.219 114.7 139.038 114.263 138.715 113.941C138.393 113.619 137.956 113.438 137.5 113.438H113.438C112.982 113.438 112.544 113.619 112.222 113.941C111.9 114.263 111.719 114.7 111.719 115.156V154.688H73.9063V105.719L110 79.469L146.094 105.719V154.688H139.219ZM154.688 154.688H149.531V140.938C150.443 140.939 151.316 141.301 151.961 141.946C152.605 142.59 152.968 143.464 152.969 144.375C152.964 144.773 152.888 145.168 152.746 145.54C152.649 145.808 152.619 146.096 152.661 146.378C152.703 146.661 152.814 146.928 152.986 147.157C153.157 147.385 153.382 147.567 153.641 147.687C153.9 147.807 154.185 147.86 154.47 147.842C154.559 147.836 154.647 147.826 154.735 147.813H154.739C155.651 147.82 156.522 148.189 157.162 148.838C157.802 149.488 158.158 150.365 158.151 151.277C158.144 152.188 157.775 153.06 157.126 153.7C156.476 154.34 155.599 154.695 154.688 154.688V154.688Z" fill="#0F0F0E"/>
<path d="M103.125 113.438H82.5C82.0442 113.438 81.607 113.619 81.2847 113.941C80.9623 114.263 80.7812 114.7 80.7812 115.156V139.219C80.7812 139.675 80.9623 140.112 81.2847 140.434C81.607 140.756 82.0442 140.938 82.5 140.938H103.125C103.581 140.938 104.018 140.756 104.34 140.434C104.663 140.112 104.844 139.675 104.844 139.219V115.156C104.844 114.7 104.663 114.263 104.34 113.941C104.018 113.619 103.581 113.438 103.125 113.438ZM101.406 125.469H94.5312V116.875H101.406V125.469ZM91.0938 116.875V125.469H84.2188V116.875H91.0938ZM84.2188 128.906H91.0938V137.5H84.2188V128.906ZM94.5312 137.5V128.906H101.406V137.5H94.5312Z" fill="black"/>
<path d="M121.9 134.72C122.264 133.843 121.847 132.838 120.97 132.475C120.093 132.111 119.088 132.528 118.725 133.405C118.361 134.282 118.778 135.287 119.655 135.65C120.532 136.014 121.537 135.597 121.9 134.72Z" fill="black"/>
</svg>
