<svg width="220" height="220" viewBox="0 0 220 220" fill="none" xmlns="http://www.w3.org/2000/svg">
<rect width="220" height="220" fill="#B9AE9D"/>
<path d="M161.563 89.1184C161.559 87.3624 160.86 85.6795 159.617 84.4387C158.374 83.1979 156.69 82.5007 154.934 82.5H134.226C133.426 82.4991 132.634 82.6516 131.891 82.9492C131.472 82.6564 130.973 82.4996 130.462 82.5H113.601C112.801 82.4991 112.009 82.6516 111.266 82.9492C110.847 82.6564 110.348 82.4996 109.837 82.5H92.976C92.1532 82.4978 91.3381 82.6588 90.578 82.9737C89.8178 83.2885 89.1277 83.751 88.5474 84.3344C87.1708 85.7036 86.0794 87.3322 85.3364 89.1261C84.5933 90.9199 84.2135 92.8433 84.2188 94.7849V96.25H65.6449C64.7059 96.25 63.7769 96.4423 62.9151 96.8152C62.0533 97.188 61.2771 97.7334 60.6342 98.4177C59.9913 99.102 59.4954 99.9108 59.177 100.794C58.8587 101.678 58.7247 102.617 58.7833 103.554L60.1596 125.576C60.1869 126.012 60.3795 126.422 60.6982 126.721C61.0169 127.021 61.4378 127.188 61.875 127.188H63.5938V132.344C63.5938 132.8 63.7749 133.237 64.0972 133.559C64.4195 133.881 64.8567 134.063 65.3125 134.063H72.1875C72.6434 134.063 73.0805 133.881 73.4029 133.559C73.7252 133.237 73.9063 132.8 73.9063 132.344V127.188H128.906V132.344C128.906 132.8 129.087 133.237 129.41 133.559C129.732 133.881 130.169 134.063 130.625 134.063H137.5C137.956 134.063 138.393 133.881 138.715 133.559C139.038 133.237 139.219 132.8 139.219 132.344V127.188H142.656V132.344C142.656 132.8 142.837 133.237 143.16 133.559C143.482 133.881 143.919 134.063 144.375 134.063H151.25C151.706 134.063 152.143 133.881 152.465 133.559C152.788 133.237 152.969 132.8 152.969 132.344V125.954C158.591 116.792 161.565 106.253 161.563 95.5042V89.1184ZM128.906 94.7849C128.902 93.295 129.194 91.819 129.764 90.4424C130.334 89.0658 131.172 87.816 132.228 86.7652L132.228 86.765H132.228C132.49 86.5018 132.801 86.2932 133.144 86.1512C133.487 86.0091 133.855 85.9365 134.226 85.9375H149.026C147.116 88.4657 146.086 91.5493 146.094 94.7176V96.25H128.906V94.7849ZM150.911 103.339L149.635 123.75H137.611L138.873 103.554C138.955 102.204 138.638 100.859 137.961 99.6875H147.48C147.95 99.6875 148.414 99.7837 148.845 99.9701C149.276 100.157 149.664 100.429 149.986 100.771C150.307 101.114 150.555 101.518 150.714 101.96C150.873 102.401 150.94 102.871 150.911 103.339V103.339ZM111.603 86.7652L111.603 86.765H111.603C111.865 86.5018 112.176 86.2932 112.519 86.1512C112.862 86.0091 113.23 85.9365 113.601 85.9375H128.406C126.491 88.4888 125.46 91.5949 125.469 94.7849V97.175C124.687 97.6256 124.001 98.2261 123.451 98.942C122.901 99.658 122.498 100.475 122.265 101.347C122.031 102.219 121.972 103.129 122.091 104.024C122.209 104.919 122.503 105.781 122.956 106.563H111.719C110.45 106.562 109.225 107.031 108.281 107.88V94.7849C108.277 93.295 108.569 91.819 109.139 90.4424C109.709 89.0658 110.547 87.816 111.603 86.7652V86.7652ZM70.4688 110H84.2188C84.6745 110.001 85.1113 110.182 85.4335 110.504C85.7558 110.826 85.937 111.263 85.9375 111.719V113.438H70.4688V110ZM89.375 111.719C89.3755 111.263 89.5568 110.826 89.879 110.504C90.2012 110.182 90.6381 110.001 91.0938 110H104.844C105.299 110.001 105.736 110.182 106.059 110.504C106.381 110.826 106.562 111.263 106.563 111.719V113.438H89.375V111.719ZM110 111.719C110.001 111.263 110.182 110.826 110.504 110.504C110.826 110.182 111.263 110.001 111.719 110H125.469C125.924 110.001 126.361 110.182 126.684 110.504C127.006 110.826 127.187 111.263 127.188 111.719V113.438H110V111.719ZM87.6563 94.7849C87.6522 93.2949 87.9437 91.8189 88.514 90.4422C89.0842 89.0656 89.9217 87.8158 90.9782 86.765C91.2399 86.5019 91.5513 86.2932 91.8942 86.1512C92.2371 86.0091 92.6048 85.9365 92.976 85.9375H107.781C105.866 88.4888 104.835 91.5949 104.844 94.7849V106.563H91.0938C90.7651 106.563 90.4372 106.594 90.1145 106.657C90.5839 105.875 90.8928 105.008 91.0232 104.105C91.1536 103.203 91.1029 102.283 90.8741 101.4C90.6452 100.518 90.2428 99.6894 89.6904 98.9639C89.1379 98.2384 88.4464 97.6303 87.6563 97.175V94.7849ZM87.6563 103.125C87.6552 104.036 87.2927 104.91 86.6483 105.555C86.0039 106.199 85.1301 106.561 84.2188 106.563H74.7008C75.3063 105.518 75.6251 104.332 75.625 103.125C75.6249 101.918 75.3058 100.732 74.7001 99.6875H84.2188C85.1301 99.6886 86.0039 100.051 86.6483 100.695C87.2927 101.34 87.6552 102.214 87.6563 103.125V103.125ZM62.2141 103.339C62.1848 102.871 62.2518 102.401 62.411 101.96C62.5701 101.518 62.8181 101.114 63.1395 100.771C63.461 100.429 63.8491 100.157 64.28 99.9701C64.7109 99.7837 65.1754 99.6875 65.6449 99.6875H68.75C69.6617 99.6875 70.5361 100.05 71.1807 100.694C71.8254 101.339 72.1875 102.213 72.1875 103.125C72.1875 104.037 71.8254 104.911 71.1807 105.556C70.5361 106.2 69.6617 106.563 68.75 106.563C68.2942 106.563 67.857 106.744 67.5347 107.066C67.2124 107.388 67.0313 107.825 67.0313 108.281V115.156C67.0313 115.612 67.2124 116.049 67.5347 116.372C67.857 116.694 68.2942 116.875 68.75 116.875H128.906C129.362 116.875 129.799 116.694 130.122 116.372C130.444 116.049 130.625 115.612 130.625 115.156V108.281C130.625 107.825 130.444 107.388 130.122 107.066C129.799 106.744 129.362 106.563 128.906 106.563C127.995 106.563 127.12 106.2 126.476 105.556C125.831 104.911 125.469 104.037 125.469 103.125C125.469 102.213 125.831 101.339 126.476 100.694C127.12 100.05 127.995 99.6875 128.906 99.6875H132.011C132.481 99.6875 132.945 99.7837 133.376 99.9701C133.807 100.157 134.195 100.429 134.517 100.771C134.838 101.114 135.086 101.518 135.245 101.96C135.404 102.401 135.472 102.871 135.442 103.339L134.167 123.75H63.4897L62.2141 103.339ZM70.4688 130.625H67.0313V127.188H70.4688V130.625ZM135.781 130.625H132.344V127.188H135.781V130.625ZM146.094 130.625V127.188H149.531V130.625H146.094ZM158.125 95.5042C158.127 103.123 156.539 110.659 153.462 117.629L154.342 103.554C154.438 102.019 154.017 100.495 153.145 99.2282C152.272 97.9611 151 97.0235 149.531 96.5658V94.7176C149.528 93.2558 149.812 91.8076 150.369 90.456C150.926 89.1045 151.745 87.8761 152.777 86.8414L152.846 86.7726C153.107 86.5071 153.419 86.2966 153.763 86.1532C154.107 86.0098 154.477 85.9365 154.849 85.9375H154.934C155.779 85.9372 156.589 86.2719 157.187 86.8682C157.786 87.4646 158.123 88.2738 158.125 89.1184V95.5042Z" fill="#0F0F0E" stroke="#B9AE9D"/>
</svg>
