<svg width="220" height="220" viewBox="0 0 220 220" fill="none" xmlns="http://www.w3.org/2000/svg">
<rect width="220" height="220" fill="#B9AE9D"/>
<path d="M146.667 79.1961C146.665 77.5759 146.02 76.0225 144.875 74.8769C143.729 73.7312 142.176 73.0868 140.556 73.085H103.889C102.269 73.0868 100.715 73.7312 99.5697 74.8769C98.4241 76.0225 97.7796 77.5759 97.7778 79.1961V99.9739H79.4445C77.8243 99.9757 76.271 100.62 75.1253 101.766C73.9796 102.911 73.3352 104.465 73.3334 106.085V135.418C73.3334 135.579 73.365 135.738 73.4264 135.886C73.4878 136.034 73.5778 136.169 73.6913 136.283C73.8048 136.396 73.9396 136.486 74.0879 136.547C74.2362 136.609 74.3951 136.641 74.5556 136.641H74.7178L75.7901 144.147C75.8317 144.438 75.977 144.704 76.1992 144.897C76.4215 145.09 76.7058 145.196 77 145.196H81.8889C82.1831 145.196 82.4675 145.09 82.6897 144.897C82.912 144.704 83.0573 144.438 83.0988 144.147L84.1711 136.641H121.162L122.235 144.147C122.276 144.438 122.421 144.704 122.644 144.897C122.866 145.09 123.15 145.196 123.444 145.196H128.333C128.628 145.196 128.912 145.09 129.134 144.897C129.356 144.704 129.502 144.438 129.543 144.147L130.616 136.641H137.051L138.123 144.147C138.165 144.438 138.31 144.704 138.533 144.897C138.755 145.09 139.039 145.196 139.333 145.196H144.222C144.516 145.196 144.801 145.09 145.023 144.897C145.245 144.704 145.391 144.438 145.432 144.147L146.654 135.591L146.653 135.591C146.662 135.534 146.666 135.476 146.667 135.418V79.1961ZM140.556 75.5294C141.528 75.5305 142.46 75.9171 143.147 76.6045C143.835 77.2919 144.221 78.2239 144.222 79.1961V134.196H122.222V106.085C122.223 105.113 122.61 104.181 123.297 103.493C123.985 102.806 124.917 102.419 125.889 102.418H138.111C138.272 102.418 138.431 102.387 138.579 102.325C138.727 102.264 138.862 102.174 138.975 102.06C139.089 101.947 139.179 101.812 139.24 101.664C139.302 101.516 139.333 101.357 139.333 101.196V79.1961C139.335 77.8731 138.905 76.5858 138.108 75.5294H140.556ZM100.222 79.1961C100.223 78.224 100.61 77.292 101.297 76.6046C101.985 75.9172 102.917 75.5305 103.889 75.5294H133.222C134.194 75.5305 135.126 75.9171 135.814 76.6045C136.501 77.2919 136.888 78.2239 136.889 79.1961V99.9739H118.556C116.935 99.9757 115.382 100.62 114.236 101.766C113.091 102.911 112.446 104.465 112.444 106.085V109.962C112.052 109.823 111.639 109.751 111.222 109.752H100.222V79.1961ZM112.444 119.529H83.1112V113.418C83.1115 113.094 83.2404 112.784 83.4695 112.554C83.6987 112.325 84.0093 112.196 84.3334 112.196H111.222C111.546 112.196 111.857 112.325 112.086 112.554C112.315 112.784 112.444 113.094 112.444 113.418V119.529ZM83.1112 121.974H112.444V134.196H83.1112V121.974ZM86.7778 102.418H97.7778V109.752H84.3334C83.917 109.751 83.5036 109.823 83.1112 109.962V106.085C83.1122 105.113 83.4989 104.181 84.1863 103.493C84.8737 102.806 85.8057 102.419 86.7778 102.418ZM75.7778 106.085C75.7789 105.113 76.1656 104.181 76.853 103.493C77.5404 102.806 78.4724 102.419 79.4445 102.418H81.8918C81.0954 103.475 80.6653 104.762 80.6667 106.085V134.196H75.7778V106.085ZM78.0601 142.752L77.187 136.641H81.7019L80.8289 142.752H78.0601ZM114.889 106.085C114.89 105.113 115.277 104.181 115.964 103.493C116.651 102.806 117.583 102.419 118.556 102.418H121.003C120.207 103.475 119.776 104.762 119.778 106.085V134.196H114.889V106.085ZM127.273 142.752H124.505L123.631 136.641H128.146L127.273 142.752ZM140.393 142.752L139.52 136.641H144.035L143.162 142.752H140.393Z" fill="#0F0F0E"/>
</svg>
