<svg width="220" height="220" viewBox="0 0 220 220" fill="none" xmlns="http://www.w3.org/2000/svg">
<rect width="220" height="220" fill="#B9AE9D"/>
<path d="M161.234 94.6179C162.592 94.6179 163.808 93.9165 164.488 92.7418C165.168 91.5668 165.171 90.1627 164.494 88.9858L156.44 74.9656C156.153 74.4653 155.62 74.1568 155.043 74.1568H147.705V61.9848C147.705 61.0947 146.983 60.3735 146.093 60.3735H135.322C134.432 60.3735 133.71 61.0947 133.71 61.9848V74.1568H114.619C113.729 74.1568 113.008 74.878 113.008 75.768C113.008 76.6581 113.729 77.3793 114.619 77.3793H154.111L161.7 90.5908C161.834 90.8246 161.757 91.0272 161.699 91.1273C161.641 91.2276 161.504 91.3954 161.234 91.3954H97.9822L84.4536 80.9382C83.8731 80.4896 83.0632 80.4896 82.4827 80.9382L68.9538 91.3954H58.7654C58.496 91.3954 58.3585 91.2276 58.3005 91.1275C58.2425 91.0272 58.1653 90.8244 58.2996 90.5906L65.8888 77.3793H117.34C118.23 77.3793 118.952 76.6581 118.952 75.768C118.952 74.878 118.23 74.1568 117.34 74.1568H64.9562C64.3792 74.1568 63.8464 74.4653 63.5591 74.9656L55.5055 88.9856C54.8294 90.1627 54.8315 91.5668 55.5117 92.7415C56.1919 93.9162 57.408 94.6177 58.7656 94.6177H61.4478V114.06L56.0834 123.399C55.3931 124.576 55.3796 126.032 56.0481 127.199C56.7096 128.354 57.9045 129.043 59.2444 129.043H61.4475V150.002C59.6288 150.264 58.225 151.828 58.225 153.718V158.015C58.225 158.905 58.9465 159.626 59.8363 159.626H107.351C108.24 159.626 108.962 158.905 108.962 158.015C108.962 157.125 108.24 156.404 107.351 156.404H61.4475V153.718C61.4475 153.422 61.6886 153.181 61.9846 153.181H158.015C158.311 153.181 158.552 153.422 158.552 153.718V156.404H104.629C103.739 156.404 103.018 157.125 103.018 158.015C103.018 158.905 103.739 159.626 104.629 159.626H160.163C161.053 159.626 161.774 158.905 161.774 158.015V153.718C161.774 151.828 160.371 150.263 158.552 150.002V133.825C158.552 132.935 157.831 132.214 156.941 132.214C156.051 132.214 155.329 132.935 155.329 133.825V149.959H128.355V129.043H133.725V142.47C133.725 143.36 134.447 144.082 135.337 144.082H146.078C146.968 144.082 147.69 143.36 147.69 142.47V129.043H160.664C162.021 129.043 163.237 128.342 163.917 127.167C164.597 125.992 164.6 124.588 163.923 123.411L158.552 114.06V94.6181L161.234 94.6179ZM136.933 63.596H144.482V74.1568H136.933V63.596ZM136.948 103.211H144.467V106.434H136.948V103.211ZM144.467 99.9887H136.948V94.6179H144.467V99.9887ZM109.785 103.211H117.304V106.434H109.785V103.211ZM117.304 99.9887H109.785V94.6179H117.304V99.9887ZM72.3101 129.043V142.47C72.3101 143.36 73.0315 144.081 73.9214 144.081H84.663C85.5529 144.081 86.2743 143.36 86.2743 142.47V129.043H91.6451V149.959H64.6702V129.043H72.3101ZM83.0518 129.043V134.414H75.5326V129.043H83.0518ZM75.5326 137.636H83.0518V140.859H75.5326V137.636ZM113.76 149.959H106.24V129.043H113.76V149.959ZM116.982 149.959V127.432C116.982 126.542 116.261 125.821 115.371 125.821H104.629C103.739 125.821 103.018 126.542 103.018 127.432V149.959H94.8676V128.223L110 116.526L125.132 128.223V149.959H116.982ZM136.948 140.859V137.636H144.467V140.859H136.948ZM144.467 134.414H136.948V129.043H144.467V134.414ZM161.128 125.553C161.07 125.653 160.933 125.821 160.664 125.821H127.294L114.719 116.101H156.008L161.129 125.016C161.264 125.25 161.186 125.453 161.128 125.553ZM155.33 112.879H77.9895C77.0996 112.879 76.3782 113.6 76.3782 114.49C76.3782 115.38 77.0996 116.101 77.9895 116.101H105.281L92.7064 125.821H59.2446C59.064 125.821 58.9293 125.745 58.8444 125.597C58.7976 125.516 58.7058 125.297 58.8706 125.016L63.9916 116.101H80.7111C81.601 116.101 82.3224 115.38 82.3224 114.49C82.3224 113.6 81.601 112.879 80.7111 112.879H64.6702V94.6179H69.504C69.8606 94.6179 70.2071 94.4995 70.4894 94.2815L83.4681 84.2496L96.4468 94.2815C96.7289 94.4997 97.0756 94.6179 97.4323 94.6179H106.563V108.045C106.563 108.935 107.284 109.656 108.174 109.656H118.916C119.806 109.656 120.527 108.935 120.527 108.045V94.6179H133.726V108.045C133.726 108.935 134.447 109.656 135.337 109.656H146.079C146.969 109.656 147.69 108.935 147.69 108.045V94.6179H155.33V112.879Z" fill="#0F0F0E"/>
<path d="M88.839 91.3955H78.0973C77.2075 91.3955 76.4861 92.1167 76.4861 93.0068V108.045C76.4861 108.935 77.2075 109.656 78.0973 109.656H88.839C89.7288 109.656 90.4502 108.935 90.4502 108.045V93.0068C90.4502 92.1169 89.7288 91.3955 88.839 91.3955ZM87.2277 94.618V99.9888H79.7086V94.618H87.2277ZM79.7086 106.434V103.211H87.2277V106.434H79.7086Z" fill="black"/>
</svg>
