<svg width="220" height="220" viewBox="0 0 220 220" fill="none" xmlns="http://www.w3.org/2000/svg">
<rect width="220" height="220" fill="#B9AE9D"/>
<path d="M136.477 142.78L124.402 88.9507H125.253C126.745 88.9507 128.176 88.3695 129.231 87.3348C130.286 86.3002 130.878 84.8969 130.878 83.4337C130.878 81.9705 130.286 80.5673 129.231 79.5326C128.176 78.498 126.745 77.9167 125.253 77.9167H93.7508C92.2588 77.9167 90.828 78.498 89.773 79.5326C88.718 80.5673 88.1254 81.9705 88.1254 83.4337C88.1254 84.8969 88.718 86.3002 89.773 87.3348C90.828 88.3695 92.2588 88.9507 93.7508 88.9507H94.6014L82.5263 142.78C82.4901 142.941 82.4913 143.108 82.5297 143.269C82.5681 143.43 82.6428 143.58 82.7482 143.709C82.8536 143.837 82.9871 143.941 83.1389 144.012C83.2907 144.084 83.4568 144.121 83.6251 144.121H89.2505C89.5068 144.121 89.7555 144.035 89.9554 143.877C90.1552 143.72 90.2941 143.5 90.3492 143.254L94.1152 126.466H97.2275L94.8867 142.864C94.8644 143.02 94.8765 143.18 94.9223 143.331C94.9681 143.482 95.0464 143.622 95.152 143.741C95.2576 143.86 95.388 143.956 95.5345 144.021C95.6809 144.087 95.84 144.121 96.0009 144.121H101.626C101.898 144.121 102.16 144.024 102.365 143.85C102.569 143.675 102.703 143.434 102.741 143.17L105.125 126.466H113.879L116.263 143.17C116.301 143.434 116.434 143.675 116.639 143.85C116.844 144.024 117.106 144.121 117.377 144.121H123.003C123.164 144.121 123.323 144.087 123.469 144.021C123.616 143.956 123.746 143.86 123.852 143.741C123.957 143.622 124.036 143.482 124.081 143.331C124.127 143.18 124.139 143.02 124.117 142.864L121.776 126.466H124.889L128.654 143.254C128.71 143.5 128.849 143.72 129.048 143.877C129.248 144.035 129.497 144.121 129.753 144.121H135.379C135.547 144.121 135.713 144.084 135.865 144.012C136.017 143.941 136.15 143.837 136.255 143.709C136.361 143.58 136.436 143.43 136.474 143.269C136.512 143.108 136.514 142.941 136.477 142.78V142.78ZM90.3755 83.4337C90.3765 82.5561 90.7325 81.7147 91.3652 81.0942C91.998 80.4736 92.8559 80.1245 93.7508 80.1235H125.253C126.148 80.1235 127.007 80.4723 127.64 81.0931C128.273 81.7139 128.628 82.5558 128.628 83.4337C128.628 84.3116 128.273 85.1536 127.64 85.7744C127.007 86.3952 126.148 86.7439 125.253 86.7439H93.7508C92.8559 86.7429 91.998 86.3939 91.3652 85.7733C90.7325 85.1527 90.3765 84.3113 90.3755 83.4337V83.4337ZM115.206 119.846L110.795 88.9507H114.149L117.331 111.243C116.621 111.512 116.025 112.009 115.639 112.653C115.254 113.296 115.101 114.049 115.207 114.788C115.312 115.527 115.67 116.21 116.221 116.725C116.772 117.24 117.484 117.557 118.242 117.625L118.559 119.846H115.206ZM112.934 119.846H106.07L109.502 95.8057L112.934 119.846ZM120.831 119.846L120.516 117.639H122.908L123.403 119.846H120.831ZM118.549 115.432C118.251 115.432 117.965 115.316 117.754 115.109C117.543 114.902 117.424 114.621 117.424 114.329C117.424 114.036 117.543 113.756 117.754 113.549C117.965 113.342 118.251 113.225 118.549 113.225H121.918L122.413 115.432H118.549ZM119.571 111.019L116.421 88.9507H116.473L121.423 111.019H119.571ZM98.1726 119.846H95.6003L96.0953 117.639H98.4876L98.1726 119.846ZM98.8026 115.432H96.0009C95.7025 115.432 95.4164 115.316 95.2054 115.109C94.9944 114.902 94.8758 114.621 94.8758 114.329C94.8758 114.036 94.9944 113.756 95.2054 113.549C95.4164 113.342 95.7025 113.225 96.0009 113.225H99.1176L98.8026 115.432ZM99.4327 111.019H97.5804L102.531 88.9507H102.583L99.4327 111.019ZM88.346 141.914H85.0245L96.9054 88.9507H100.227L95.2581 111.1C94.6326 111.238 94.0602 111.548 93.6079 111.994C93.1556 112.44 92.8422 113.003 92.7045 113.617C92.5667 114.231 92.6103 114.871 92.8301 115.461C93.0499 116.052 93.4368 116.569 93.9455 116.952L93.2893 119.878C92.6058 119.97 91.9676 120.265 91.4607 120.724C90.9538 121.183 90.6025 121.783 90.4543 122.444C90.3061 123.105 90.368 123.794 90.6317 124.42C90.8954 125.045 91.3483 125.576 91.9292 125.941L88.346 141.914ZM93.7508 124.259C93.4524 124.259 93.1662 124.143 92.9552 123.936C92.7442 123.729 92.6257 123.449 92.6257 123.156C92.6257 122.863 92.7442 122.583 92.9552 122.376C93.1662 122.169 93.4524 122.053 93.7508 122.053H97.8576L97.5425 124.259H93.7508ZM100.648 141.914H97.2945L104.855 88.9507H108.208L100.648 141.914ZM105.755 122.053H125.253C125.551 122.053 125.837 122.169 126.048 122.376C126.259 122.583 126.378 122.863 126.378 123.156C126.378 123.449 126.259 123.729 126.048 123.936C125.837 124.143 125.551 124.259 125.253 124.259H105.44L105.755 122.053ZM121.709 141.914H118.356L116.151 126.466H119.504L121.709 141.914ZM130.658 141.914L127.075 125.941C127.655 125.576 128.108 125.045 128.372 124.42C128.636 123.794 128.698 123.105 128.549 122.444C128.401 121.783 128.05 121.183 127.543 120.724C127.036 120.265 126.398 119.97 125.714 119.878L118.777 88.9507H122.098L133.979 141.914H130.658Z" fill="#0F0F0E"/>
</svg>
