<svg width="18" height="18" viewBox="0 0 18 18" fill="none" xmlns="http://www.w3.org/2000/svg">
<path d="M15.7496 12.3575V14.3898C15.7527 15.1667 15.0542 15.8155 14.2698 15.7447C7.50003 15.75 2.25003 10.4512 2.25533 3.72689C2.18469 2.94671 2.83021 2.25079 3.60611 2.25007H5.64247C5.97189 2.24683 6.29124 2.36325 6.54102 2.57763C7.25113 3.18712 7.70788 5.25583 7.53214 6.07821C7.39494 6.72027 6.74771 7.16947 6.30768 7.60863C7.27396 9.30464 8.68102 10.7089 10.3804 11.6733C10.8204 11.2341 11.2705 10.5882 11.9138 10.4512C12.7391 10.2756 14.8211 10.733 15.4282 11.448C15.6435 11.7016 15.7578 12.0253 15.7496 12.3575Z" stroke="#EAA53C" stroke-width="1.5" stroke-linecap="round" stroke-linejoin="round"/>
</svg>
