<svg width="30" height="30" viewBox="0 0 30 30" fill="none" xmlns="http://www.w3.org/2000/svg">
<g clip-path="url(#clip0_54_346)">
<path d="M15 30C23.2843 30 30 23.2843 30 15C30 6.71573 23.2843 0 15 0C6.71573 0 0 6.71573 0 15C0 23.2843 6.71573 30 15 30Z" fill="white"/>
<path d="M6.86376 13.8852L21.3263 8.30897C21.9975 8.06647 22.5838 8.47272 22.3663 9.48772L22.3675 9.48647L19.905 21.0877C19.7225 21.9102 19.2338 22.1102 18.55 21.7227L14.8 18.959L12.9913 20.7015C12.7913 20.9015 12.6225 21.0702 12.235 21.0702L12.5013 17.254L19.4513 10.9752C19.7538 10.709 19.3838 10.559 18.985 10.824L10.3963 16.2315L6.69376 15.0765C5.89001 14.8215 5.87251 14.2727 6.86376 13.8852Z" fill="#212121"/>
</g>
<defs>
<clipPath id="clip0_54_346">
<rect width="30" height="30" fill="white"/>
</clipPath>
</defs>
</svg>
