<svg width="60" height="60" viewBox="0 0 60 60" fill="none" xmlns="http://www.w3.org/2000/svg">
<path d="M3.75 57.1875H56.25C56.7675 57.1875 57.1875 56.7675 57.1875 56.25V30C57.1875 29.4825 56.7675 29.0625 56.25 29.0625H30.9375V3.75C30.9375 3.2325 30.5175 2.8125 30 2.8125H3.75C3.2325 2.8125 2.8125 3.2325 2.8125 3.75V56.25C2.8125 56.7675 3.2325 57.1875 3.75 57.1875ZM29.0625 40.2647C24.1134 39.8072 20.1928 35.8866 19.7353 30.9375H29.0625V40.2647ZM29.0625 42.1519V44.9709C21.5203 44.4891 15.5109 38.4797 15.0291 30.9375H17.8481C18.3178 36.9253 23.0747 41.6822 29.0625 42.1519ZM30.9375 30.9375H40.2647C39.8072 35.8866 35.8866 39.8072 30.9375 40.2647V30.9375ZM19.7353 29.0625C20.1928 24.1134 24.1134 20.1928 29.0625 19.7353V29.0625H19.7353ZM29.0625 17.8481C23.0747 18.3178 18.3178 23.0747 17.8481 29.0625H15.0291C15.5109 21.5203 21.5203 15.5109 29.0625 15.0291V17.8481ZM13.1728 30.9375C13.6575 39.5044 20.4956 46.3425 29.0625 46.8272V55.3125H17.7647C17.2884 48.2972 11.7028 42.7116 4.6875 42.2353V30.9375H13.1728ZM4.6875 47.8678C8.60063 48.3112 11.6888 51.3994 12.1322 55.3125H4.6875V47.8678ZM14.0203 55.3125C13.5619 50.3606 9.63938 46.4381 4.6875 45.9797V44.0981C10.6753 44.5678 15.4322 49.3247 15.9019 55.3125H14.0203ZM44.0981 55.3125C44.5678 49.3247 49.3247 44.5678 55.3125 44.0981V45.9797C50.3606 46.4381 46.4381 50.3606 45.9797 55.3125H44.0981ZM47.8678 55.3125C48.3112 51.3994 51.3994 48.3112 55.3125 47.8678V55.3125H47.8678ZM55.3125 42.2353C48.2972 42.7116 42.7116 48.2972 42.2353 55.3125H30.9375V46.8272C39.5044 46.3425 46.3425 39.5044 46.8272 30.9375H55.3125V42.2353ZM44.9709 30.9375C44.4891 38.4797 38.4797 44.4891 30.9375 44.9709V42.1519C36.9253 41.6822 41.6822 36.9253 42.1519 30.9375H44.9709ZM29.0625 13.1728C20.4956 13.6575 13.6575 20.4956 13.1728 29.0625H4.6875V17.7647C11.7028 17.2884 17.2884 11.7028 17.7647 4.6875H29.0625V13.1728ZM15.9019 4.6875C15.4322 10.6753 10.6753 15.4322 4.6875 15.9019V14.0203C9.63938 13.5619 13.5619 9.63938 14.0203 4.6875H15.9019ZM12.1322 4.6875C11.6888 8.60063 8.60063 11.6888 4.6875 12.1322V4.6875H12.1322Z" fill="#EAA53C"/>
<path d="M33.375 18.2213L34.2253 19.921C34.3265 20.1253 34.439 20.325 34.5581 20.5219L32.8556 25.9688C32.7 26.4628 32.9747 26.9888 33.4687 27.1444C33.5597 27.1725 33.6544 27.1875 33.75 27.1875C33.8456 27.1875 33.9403 27.1735 34.0312 27.1453L39.3825 25.4719L42.57 27.3844C43.3781 27.8681 44.3015 28.125 45.2437 28.125H48.2662C51.1387 28.125 53.4665 25.7972 53.4675 22.9256C53.4675 22.2638 53.3409 21.6085 53.0953 20.9935L52.5722 19.6875C53.5856 17.1178 53.5181 14.2472 52.3847 11.7272L57.8372 6.27377C58.2028 5.90721 58.2028 5.31471 57.8372 4.94814L55.0378 2.14971C54.6722 1.78408 54.0778 1.78408 53.7122 2.14971L48.5334 7.32846C47.3962 6.60752 46.1269 6.11908 44.8003 5.89127L44.0325 5.76283C43.4803 5.67096 42.9215 5.62502 42.3619 5.62502H41.1225C36.3131 5.64939 32.4347 9.56721 32.4581 14.3756C32.4647 15.7106 32.7787 17.0269 33.375 18.2213ZM37.9294 16.0172C38.5659 14.0025 40.4334 12.6319 42.5456 12.6272C42.7031 12.6272 42.8634 12.6347 43.0228 12.6506C43.8103 12.7322 44.5659 13.0078 45.2212 13.4531L43.3997 15.2747L44.7253 16.6003L46.5469 14.7788C46.9922 15.4341 47.2678 16.1897 47.3494 16.9772C47.5706 19.2563 46.1662 21.3797 43.9828 22.0697L35.1778 24.8213L37.9294 16.0172ZM50.8275 19.0003L50.6915 19.3397C50.6034 19.5638 50.6034 19.8122 50.6915 20.0363L51.3534 21.69C52.0359 23.3935 51.209 25.3285 49.5056 26.011C49.1109 26.1694 48.6909 26.25 48.2662 26.25H45.2437C44.6419 26.251 44.0503 26.0897 43.5328 25.7813L41.7778 24.7285L44.5415 23.8641C47.5772 22.9088 49.5281 19.9575 49.2187 16.7906C49.0931 15.5719 48.6337 14.4122 47.8912 13.4381L48.7537 12.5756L49.4831 13.305C49.8487 13.6706 50.4431 13.6706 50.8087 13.305L50.9409 13.1738C51.6047 15.0666 51.5644 17.1347 50.8275 19.0003ZM54.375 4.13814L55.8478 5.61096L50.1422 11.3166L48.6694 9.84377L54.375 4.13814ZM35.9062 9.95065C37.1934 8.39815 39.1059 7.50002 41.1225 7.50002H42.3619C42.8184 7.50096 43.274 7.53846 43.724 7.61252L44.4919 7.74096C45.434 7.89939 46.3425 8.21814 47.1769 8.68408L46.6809 9.18096C46.3153 9.54752 46.3153 10.141 46.6809 10.5066L47.4244 11.25L46.5619 12.1125C43.6284 9.88033 39.4406 10.4485 37.2075 13.3819C36.7322 14.0063 36.3712 14.7085 36.1406 15.4575L35.3522 17.9822L35.0522 17.3822C34.7756 16.8281 34.5759 16.2385 34.4569 15.631C34.0509 13.6144 34.5844 11.5219 35.9062 9.94596V9.95065Z" fill="#EAA53C"/>
</svg>
