<svg width="90" height="90" viewBox="0 0 90 90" fill="none" xmlns="http://www.w3.org/2000/svg">
<path d="M43.5938 78.75H46.4062V81.5625H43.5938V78.75Z" fill="#EAA53C"/>
<path d="M67.8568 69.8597L69.8455 67.8709L71.8342 69.8597L69.8455 71.8484L67.8568 69.8597Z" fill="#EAA53C"/>
<path d="M78.75 43.5938H81.5625V46.4062H78.75V43.5938Z" fill="#EAA53C"/>
<path d="M85.7813 35.1563H75.811C75.2669 33.4405 74.5777 31.7742 73.7508 30.1753L80.7975 23.1272C81.0612 22.8635 81.2092 22.5059 81.2092 22.133C81.2092 21.7601 81.0612 21.4025 80.7975 21.1388L74.8308 15.1735C70.9272 11.1949 66.2739 8.02924 61.1398 5.8595C56.0056 3.68975 50.4924 2.5589 44.9187 2.53228C39.3449 2.50566 33.8212 3.5838 28.6665 5.70441C23.5119 7.82501 18.8286 10.946 14.8872 14.8872C10.9458 18.8283 7.82441 23.5114 5.70344 28.6659C3.58247 33.8204 2.50394 39.3441 2.53016 44.9178C2.55639 50.4915 3.68685 56.0048 5.85623 61.1391C8.02561 66.2734 11.1909 70.9269 15.1692 74.8308L21.1345 80.7975C21.3983 81.0612 21.7559 81.2092 22.1288 81.2092C22.5016 81.2092 22.8593 81.0612 23.123 80.7975L30.1711 73.7508C31.7714 74.5773 33.4391 75.2661 35.1563 75.8096V85.7813C35.1563 86.1542 35.3044 86.5119 35.5681 86.7756C35.8319 87.0394 36.1896 87.1875 36.5625 87.1875H53.4375C53.8105 87.1875 54.1682 87.0394 54.4319 86.7756C54.6956 86.5119 54.8438 86.1542 54.8438 85.7813V75.811C56.5595 75.2672 58.2258 74.5785 59.8247 73.7522L66.8728 80.7989C67.1365 81.0626 67.4942 81.2107 67.8671 81.2107C68.2399 81.2107 68.5976 81.0626 68.8613 80.7989L80.7933 68.8669C81.0569 68.6032 81.205 68.2456 81.205 67.8727C81.205 67.4998 81.0569 67.1422 80.7933 66.8785L73.7466 59.8303C74.5746 58.2298 75.2648 56.5615 75.8095 54.8438H85.7813C86.1542 54.8438 86.5119 54.6956 86.7756 54.4319C87.0394 54.1682 87.1875 53.8105 87.1875 53.4375V36.5625C87.1875 36.1896 87.0394 35.8319 86.7756 35.5682C86.5119 35.3044 86.1542 35.1563 85.7813 35.1563V35.1563ZM17.1563 17.1563C24.367 9.94327 34.0961 5.81091 44.2936 5.62991C54.4911 5.44891 64.3607 9.2334 71.8228 16.186L69.8372 18.1716C62.8975 11.7672 53.7491 8.29628 44.3078 8.48559C34.8664 8.67489 25.8645 12.5098 19.1871 19.1871C12.5098 25.8645 8.67488 34.8665 8.48557 44.3078C8.29627 53.7491 11.7672 62.8975 18.1716 69.8372L16.1859 71.8228C9.23338 64.3607 5.44889 54.4911 5.6299 44.2936C5.8109 34.0961 9.94325 24.367 17.1563 17.1563V17.1563ZM56.932 33.068C60.0542 36.2414 61.7958 40.5199 61.7777 44.9716C61.7596 49.4232 59.9831 53.6874 56.8353 56.8353C53.6874 59.9831 49.4232 61.7596 44.9716 61.7777C40.5199 61.7958 36.2414 60.0542 33.068 56.9321C32.8043 56.6684 32.4466 56.5203 32.0738 56.5203C31.7009 56.5203 31.3433 56.6684 31.0795 56.9321L20.1614 67.8502C14.2635 61.4422 11.0711 53.0023 11.2515 44.2952C11.4319 35.588 14.9712 27.2876 21.1294 21.1294C27.2876 14.9712 35.588 11.4319 44.2952 11.2515C53.0023 11.0711 61.4422 14.2636 67.8502 20.1614L56.932 31.0781C56.8013 31.2088 56.6976 31.3638 56.6268 31.5346C56.556 31.7053 56.5196 31.8883 56.5196 32.0731C56.5196 32.2579 56.556 32.4409 56.6268 32.6116C56.6976 32.7823 56.8013 32.9374 56.932 33.068V33.068ZM84.375 52.0313H74.7619C74.4545 52.0311 74.1555 52.1317 73.9106 52.3176C73.6658 52.5035 73.4887 52.7645 73.4063 53.0606C72.7886 55.2665 71.91 57.3909 70.7892 59.3888C70.6382 59.6568 70.5792 59.9671 70.6213 60.2719C70.6635 60.5767 70.8045 60.8593 71.0227 61.0763L77.8135 67.8685L67.8713 77.8106L61.0791 71.0199C60.8621 70.8017 60.5795 70.6607 60.2747 70.6185C59.9699 70.5764 59.6597 70.6353 59.3916 70.7864C57.3937 71.9072 55.2694 72.7858 53.0635 73.4035C52.7673 73.4858 52.5063 73.663 52.3204 73.9078C52.1345 74.1527 52.0339 74.4517 52.0341 74.7591V84.375H37.9688V74.7619C37.9689 74.4545 37.8684 74.1555 37.6825 73.9106C37.4966 73.6658 37.2356 73.4887 36.9394 73.4063C34.7335 72.7886 32.6091 71.91 30.6113 70.7892C30.3432 70.6382 30.033 70.5792 29.7281 70.6213C29.4233 70.6635 29.1408 70.8045 28.9238 71.0227L22.1316 77.8135L18.1547 73.8366L32.1117 59.881C35.8745 63.1386 40.7315 64.8502 45.7053 64.6713C50.6791 64.4925 55.4006 62.4364 58.9197 58.917C62.4388 55.3975 64.4943 50.6758 64.6727 45.702C64.851 40.7282 63.139 35.8714 59.881 32.1089L73.8366 18.1519L77.8135 22.1288L71.0227 28.921C70.8045 29.138 70.6635 29.4205 70.6213 29.7253C70.5792 30.0302 70.6382 30.3404 70.7892 30.6085C71.9102 32.6062 72.7888 34.7306 73.4063 36.9366C73.4887 37.2328 73.6658 37.4938 73.9106 37.6797C74.1555 37.8656 74.4545 37.9661 74.7619 37.966H84.375V52.0313Z" fill="#EAA53C"/>
<path d="M46.4062 39.5747V23.9062C46.4062 23.5333 46.2581 23.1756 45.9944 22.9119C45.7306 22.6482 45.373 22.5 45 22.5C44.627 22.5 44.2694 22.6482 44.0056 22.9119C43.7419 23.1756 43.5938 23.5333 43.5938 23.9062V39.5747C42.6273 39.8274 41.7456 40.3329 41.0392 41.0392C40.3329 41.7456 39.8274 42.6273 39.5747 43.5938H29.5312C29.1583 43.5938 28.8006 43.7419 28.5369 44.0056C28.2732 44.2694 28.125 44.627 28.125 45C28.125 45.373 28.2732 45.7306 28.5369 45.9944C28.8006 46.2581 29.1583 46.4062 29.5312 46.4062H39.5747C39.8206 47.3659 40.3161 48.2433 41.0108 48.9495C41.7055 49.6557 42.5747 50.1655 43.5301 50.4272C44.4856 50.6888 45.4933 50.6929 46.4508 50.4391C47.4084 50.1854 48.2818 49.6827 48.9822 48.9822C49.6827 48.2818 50.1854 47.4084 50.4391 46.4508C50.6929 45.4933 50.6888 44.4856 50.4272 43.5301C50.1655 42.5747 49.6557 41.7055 48.9495 41.0108C48.2433 40.3161 47.3659 39.8206 46.4062 39.5747V39.5747ZM45 47.8125C44.4437 47.8125 43.9 47.6476 43.4375 47.3385C42.9749 47.0295 42.6145 46.5902 42.4016 46.0763C42.1887 45.5624 42.133 44.9969 42.2415 44.4513C42.3501 43.9057 42.6179 43.4046 43.0113 43.0113C43.4046 42.6179 43.9057 42.3501 44.4513 42.2415C44.9969 42.133 45.5624 42.1887 46.0763 42.4016C46.5902 42.6145 47.0295 42.9749 47.3385 43.4375C47.6476 43.9 47.8125 44.4437 47.8125 45C47.8125 45.7459 47.5162 46.4613 46.9887 46.9887C46.4613 47.5162 45.7459 47.8125 45 47.8125Z" fill="#EAA53C"/>
<path d="M45 18.2812C44.627 18.2812 44.2694 18.1331 44.0056 17.8694C43.7419 17.6056 43.5938 17.248 43.5938 16.875V14.0625C43.5938 13.6895 43.7419 13.3319 44.0056 13.0681C44.2694 12.8044 44.627 12.6562 45 12.6562C45.373 12.6562 45.7306 12.8044 45.9944 13.0681C46.2581 13.3319 46.4062 13.6895 46.4062 14.0625V16.875C46.4062 17.248 46.2581 17.6056 45.9944 17.8694C45.7306 18.1331 45.373 18.2812 45 18.2812Z" fill="#EAA53C"/>
<path d="M59.0625 22.05C58.8158 22.0497 58.5735 21.9846 58.3599 21.861C58.1463 21.7375 57.969 21.56 57.8457 21.3462C57.7225 21.1325 57.6576 20.8901 57.6577 20.6434C57.6578 20.3967 57.7227 20.1543 57.8461 19.9406L59.2523 17.5036C59.4402 17.1832 59.747 16.9502 60.1061 16.8552C60.4651 16.7603 60.8471 16.8113 61.1686 16.9969C61.4902 17.1826 61.7253 17.488 61.8226 17.8463C61.9199 18.2047 61.8715 18.587 61.688 18.9098L60.2817 21.3469C60.1582 21.5608 59.9804 21.7385 59.7664 21.8619C59.5524 21.9854 59.3096 22.0502 59.0625 22.05V22.05Z" fill="#EAA53C"/>
<path d="M30.9375 22.05C30.6904 22.0502 30.4476 21.9854 30.2336 21.8619C30.0196 21.7385 29.8418 21.5608 29.7183 21.3469L28.312 18.9098C28.1285 18.587 28.0801 18.2047 28.1774 17.8463C28.2747 17.488 28.5098 17.1826 28.8314 16.9969C29.153 16.8113 29.535 16.7603 29.894 16.8552C30.253 16.9502 30.5599 17.1832 30.7477 17.5036L32.1539 19.9406C32.2773 20.1543 32.3423 20.3967 32.3423 20.6434C32.3424 20.8901 32.2775 21.1325 32.1543 21.3462C32.031 21.56 31.8537 21.7375 31.6401 21.861C31.4266 21.9846 31.1842 22.0497 30.9375 22.05V22.05Z" fill="#EAA53C"/>
<path d="M20.6423 32.3437C20.3954 32.3443 20.1528 32.2792 19.9392 32.1553L17.5022 30.749C17.1818 30.5612 16.9488 30.2543 16.8538 29.8953C16.7589 29.5363 16.8099 29.1543 16.9955 28.8328C17.1812 28.5112 17.4866 28.2761 17.8449 28.1788C18.2033 28.0815 18.5856 28.1299 18.9084 28.3134L21.3455 29.7197C21.6135 29.8745 21.823 30.1134 21.9415 30.3994C22.0599 30.6854 22.0807 31.0024 22.0006 31.3014C21.9205 31.6004 21.7439 31.8647 21.4984 32.0531C21.2528 32.2416 20.9519 32.3437 20.6423 32.3437Z" fill="#EAA53C"/>
<path d="M16.875 46.4062H14.0625C13.6895 46.4062 13.3319 46.2581 13.0681 45.9944C12.8044 45.7306 12.6562 45.373 12.6562 45C12.6562 44.627 12.8044 44.2694 13.0681 44.0056C13.3319 43.7419 13.6895 43.5938 14.0625 43.5938H16.875C17.248 43.5938 17.6056 43.7419 17.8694 44.0056C18.1331 44.2694 18.2812 44.627 18.2812 45C18.2812 45.373 18.1331 45.7306 17.8694 45.9944C17.6056 46.2581 17.248 46.4062 16.875 46.4062Z" fill="#EAA53C"/>
<path d="M18.2081 61.875C17.8986 61.875 17.5977 61.7729 17.3521 61.5844C17.1065 61.396 16.93 61.1317 16.8499 60.8327C16.7697 60.5337 16.7905 60.2167 16.909 59.9307C17.0274 59.6447 17.2369 59.4058 17.505 59.251L19.942 57.8447C20.102 57.7509 20.279 57.6897 20.4627 57.6646C20.6465 57.6395 20.8334 57.6509 21.0127 57.6983C21.192 57.7457 21.3601 57.8281 21.5074 57.9408C21.6548 58.0534 21.7783 58.1941 21.8711 58.3547C21.9638 58.5153 22.0239 58.6927 22.0478 58.8766C22.0717 59.0605 22.059 59.2473 22.0104 59.4263C21.9618 59.6053 21.8783 59.7729 21.7646 59.9195C21.651 60.066 21.5095 60.1887 21.3483 60.2803L18.9113 61.6866C18.6977 61.8105 18.4551 61.8755 18.2081 61.875V61.875Z" fill="#EAA53C"/>
<path d="M45 59.0625C43.1525 59.0677 41.3225 58.7055 39.6162 57.9972C37.9099 57.2889 36.3614 56.2486 35.0606 54.9366C34.9265 54.8067 34.8196 54.6513 34.7462 54.4797C34.6727 54.308 34.6342 54.1234 34.6328 53.9367C34.6315 53.75 34.6673 53.5649 34.7383 53.3922C34.8092 53.2194 34.9139 53.0626 35.0461 52.9307C35.1783 52.7989 35.3355 52.6947 35.5084 52.6242C35.6813 52.5538 35.8665 52.5185 36.0532 52.5203C36.2399 52.5222 36.4244 52.5613 36.5959 52.6352C36.7673 52.7091 36.9224 52.8165 37.0519 52.9509C38.0918 54.0132 39.332 54.8586 40.7007 55.4384C42.0695 56.0182 43.5397 56.3208 45.0261 56.3286C46.5126 56.3365 47.9859 56.0496 49.3607 55.4844C50.7356 54.9192 51.9847 54.0869 53.0358 53.0358C54.0869 51.9847 54.9192 50.7356 55.4844 49.3607C56.0496 47.9859 56.3365 46.5126 56.3286 45.0261C56.3208 43.5397 56.0182 42.0695 55.4384 40.7007C54.8586 39.332 54.0132 38.0918 52.9509 37.0519C52.8165 36.9224 52.7091 36.7673 52.6352 36.5959C52.5613 36.4244 52.5222 36.2399 52.5203 36.0532C52.5185 35.8665 52.5538 35.6813 52.6242 35.5084C52.6947 35.3355 52.7989 35.1783 52.9307 35.0461C53.0626 34.9139 53.2194 34.8092 53.3922 34.7383C53.5649 34.6673 53.75 34.6315 53.9367 34.6328C54.1234 34.6342 54.308 34.6727 54.4797 34.7462C54.6513 34.8196 54.8067 34.9265 54.9366 35.0606C56.9013 37.0271 58.2392 39.5318 58.7812 42.2582C59.3232 44.9847 59.045 47.8106 57.9817 50.379C56.9184 52.9474 55.1177 55.1431 52.8071 56.6886C50.4966 58.2342 47.7798 59.0603 45 59.0625V59.0625Z" fill="#EAA53C"/>
</svg>
