<svg width="30" height="30" viewBox="0 0 30 30" fill="none" xmlns="http://www.w3.org/2000/svg">
<g clip-path="url(#clip0_55_357)">
<path d="M15 30C23.2843 30 30 23.2843 30 15C30 6.71573 23.2843 0 15 0C6.71573 0 0 6.71573 0 15C0 23.2843 6.71573 30 15 30Z" fill="white"/>
<g clip-path="url(#clip1_55_357)">
<path d="M20.728 16.5339C20.4472 16.1793 20.5275 16.0215 20.728 15.7045C20.7316 15.7009 23.0495 12.4979 23.2884 11.4116L23.2898 11.4109C23.4085 11.015 23.2898 10.7241 22.7159 10.7241H20.817C20.3336 10.7241 20.1107 10.9738 19.9913 11.2531C19.9913 11.2531 19.0244 13.5675 17.6567 15.0677C17.2152 15.5012 17.0111 15.6401 16.7701 15.6401C16.6515 15.6401 16.4669 15.5012 16.4669 15.1053V11.4109C16.4669 10.9362 16.3316 10.7241 15.9314 10.7241H12.9455C12.6422 10.7241 12.462 10.9456 12.462 11.1518C12.462 11.602 13.1459 11.7054 13.2169 12.9719V15.7197C13.2169 16.3218 13.1076 16.4325 12.8651 16.4325C12.2196 16.4325 10.6528 14.1088 9.72435 11.4493C9.53692 10.9333 9.35382 10.7248 8.86678 10.7248H6.96711C6.42507 10.7248 6.3158 10.9745 6.3158 11.2539C6.3158 11.7474 6.96132 14.2014 9.31764 17.4435C10.888 19.6566 13.0996 20.8557 15.1115 20.8557C16.3207 20.8557 16.4684 20.5894 16.4684 20.1313C16.4684 18.0167 16.3591 17.817 16.9648 17.817C17.2456 17.817 17.729 17.9559 18.858 19.0233C20.1483 20.2891 20.3603 20.8557 21.0826 20.8557H22.9815C23.5228 20.8557 23.7971 20.5894 23.6394 20.064C23.2782 18.9589 20.838 16.6858 20.728 16.5339Z" fill="#212121"/>
</g>
</g>
<defs>
<clipPath id="clip0_55_357">
<rect width="30" height="30" fill="white"/>
</clipPath>
<clipPath id="clip1_55_357">
<rect width="17.3684" height="17.3684" fill="white" transform="translate(6.3158 7.10547)"/>
</clipPath>
</defs>
</svg>
