<svg width="90" height="90" viewBox="0 0 90 90" fill="none" xmlns="http://www.w3.org/2000/svg">
<g clip-path="url(#clip0_24_173)">
<path d="M89.1882 63.2449L80.8833 59.7879V57.5622C83.8475 57.2184 86.1564 54.694 86.1564 51.6392V44.782H86.6225C87.9047 44.782 88.948 43.7389 88.948 42.4566V39.7346C88.948 38.6033 88.1355 37.6592 87.0637 37.4525C86.5027 33.4965 83.373 30.3567 79.4217 29.7814C79.4851 28.719 78.5297 27.4837 77.2233 27.4757H74.5369C73.4636 27.4611 72.282 28.492 72.3386 29.7814C68.3872 30.3567 65.2576 33.4963 64.6965 37.4525C63.6247 37.6594 62.8123 38.6033 62.8123 39.7346V42.4566C62.8123 43.7388 63.8555 44.782 65.1377 44.782H65.6038V51.6394C65.6038 54.6943 67.9127 57.2185 70.8769 57.5624V59.7881L65.9631 61.8335L65.2322 58.9168C64.6636 56.4957 62.733 54.1612 60.2629 53.1446L59.2801 52.7354C58.6081 52.4552 57.8359 52.7736 57.5562 53.4458C57.2764 54.1179 57.5944 54.8898 58.2666 55.1696L59.2495 55.5789C59.785 55.8018 60.2854 56.105 60.7308 56.4738C59.0295 58.8197 58.1043 61.6516 58.1043 64.5708V66.6784H46.3184V58.7159L50.7071 52.0221L53.0123 52.9819C53.6841 53.2617 54.4563 52.9437 54.7362 52.2715C55.016 51.5993 54.698 50.8275 54.0258 50.5476L51.5225 49.5054V45.5024C55.6668 45.277 58.9695 41.8349 58.9695 37.6351V36.2457C62.0599 35.6309 64.3968 32.8989 64.3968 29.6304C64.3968 27.6532 63.5416 25.872 62.1817 24.637C62.6333 24.1481 62.9118 23.4972 62.9118 22.7809V19.8424C62.9118 18.3777 61.7558 17.1812 60.3088 17.1088C59.7278 11.5509 55.2052 6.86653 49.458 6.26431V5.63413C49.458 4.2219 48.3091 3.073 46.897 3.073H43.103C41.6909 3.073 40.542 4.2219 40.542 5.63413V6.26431C34.9573 6.85669 30.3038 11.36 29.6912 17.1088C28.2442 17.1812 27.0882 18.3776 27.0882 19.8424V22.7809C27.0882 23.4972 27.3667 24.1481 27.8183 24.637C26.4584 25.8718 25.6032 27.653 25.6032 29.6304C25.6032 32.8989 27.9401 35.6309 31.0305 36.2457V37.6351C31.0305 41.8347 34.3332 45.2768 38.4775 45.5024V49.5054L29.7371 53.1445C27.3988 54.0882 25.4269 56.3011 24.7679 58.9152L24.0367 61.8335L19.1229 59.7881V57.5624C22.0871 57.2185 24.396 54.6942 24.396 51.6394V44.782C25.6985 44.9726 27.1798 43.9534 27.1876 42.4566V39.7346C27.1876 38.6033 26.3751 37.6592 25.3034 37.4525C24.7426 33.499 21.616 30.3608 17.6613 29.7824V29.674C17.6613 28.4618 16.6751 27.4757 15.4629 27.4757H12.7768C11.5646 27.4757 10.5785 28.4618 10.5785 29.674V29.7844C9.49588 29.9426 8.44611 30.292 7.49039 30.8246C6.85441 31.179 6.62625 31.982 6.98063 32.618C7.22197 33.0507 7.67092 33.2949 8.13357 33.2949C8.35066 33.2949 8.57092 33.2411 8.7743 33.1279C9.3375 32.8141 9.94746 32.5905 10.5789 32.4592V37.4092H5.61709C5.641 37.295 5.66789 37.1814 5.69813 37.0687C5.88604 36.3654 5.4682 35.6428 4.76473 35.4547C4.06283 35.267 3.33879 35.6845 3.15053 36.3879C3.05719 36.7374 2.98758 37.0933 2.93678 37.4523C1.86469 37.6588 1.05205 38.6031 1.05205 39.7346V42.4566C1.03693 43.8158 2.37955 44.9634 3.84363 44.782V51.6394C3.84363 54.6943 6.15252 57.2185 9.11672 57.5624V59.7881L0.811758 63.2449C0.320098 63.4495 0 63.9297 0 64.4621V85.6083C0 86.3364 0.590098 86.9266 1.31836 86.9266C2.04662 86.9266 2.63672 86.3364 2.63672 85.6083V80.2949H12.8016V85.6084C12.8016 86.3365 13.3917 86.9268 14.12 86.9268C14.8482 86.9268 15.4383 86.3365 15.4383 85.6084V80.2949H19.4112L18.1601 85.2878C17.9831 85.9941 18.4124 86.7101 19.1185 86.8871C19.2261 86.914 19.334 86.927 19.44 86.927C20.0303 86.927 20.5678 86.5274 20.7179 85.9287L27.3262 59.5545C27.3966 59.2726 27.4908 58.996 27.6033 58.7271C28.6784 60.4747 29.259 62.4948 29.259 64.5708V85.6083C29.259 86.3364 29.8491 86.9266 30.5773 86.9266C31.3056 86.9266 31.8957 86.3364 31.8957 85.6083V77.5608H43.6816V85.6084C43.6816 86.3365 44.2717 86.9268 45 86.9268C45.7283 86.9268 46.3184 86.3365 46.3184 85.6084V77.5608H58.1043V85.6083C58.1043 86.3364 58.6944 86.9266 59.4227 86.9266C60.1509 86.9266 60.741 86.3364 60.741 85.6083V64.5708C60.741 62.4948 61.3216 60.4747 62.3967 58.7271C62.5094 58.9966 62.6036 59.2734 62.6741 59.5561L69.2821 85.9287C69.4322 86.5274 69.9695 86.927 70.56 86.927C70.6662 86.927 70.7739 86.914 70.8815 86.8871C71.5878 86.7102 72.0169 85.9941 71.8399 85.2878L70.5888 80.2949H74.5617V85.6084C74.5617 86.3365 75.1518 86.9268 75.88 86.9268C76.6083 86.9268 77.1984 86.3365 77.1984 85.6084V80.2949H87.3633V85.6083C87.3633 86.3364 87.9534 86.9266 88.6816 86.9266C89.4099 86.9266 90 86.3364 90 85.6083V64.4621C90 63.9297 89.6799 63.4495 89.1882 63.2449V63.2449ZM21.5348 71.8195H15.4383V68.3095L18.4314 62.3561L23.3889 64.4198L21.5348 71.8195ZM16.4865 59.3481H11.7534V57.6035H16.4865V59.3481ZM15.6663 61.9857L14.12 65.0616L12.5736 61.9857H15.6663ZM22.622 37.4092H17.6614V32.458C20.1421 32.975 22.1013 34.93 22.622 37.4092ZM13.2152 30.1124H15.0249V37.4092H13.2152V30.1124ZM3.68877 40.0459H24.5512V42.1453H3.68877V40.0459ZM6.48035 51.6392V44.782H12.8016V46.5871C12.8016 47.3152 13.3917 47.9055 14.12 47.9055C14.8482 47.9055 15.4383 47.3152 15.4383 46.5871V44.782H21.7596V51.6394C21.7596 53.4742 20.2669 54.967 18.4321 54.967H9.80789C7.97309 54.9668 6.48035 53.4741 6.48035 51.6392V51.6392ZM9.80859 62.3561L12.8016 68.3095V71.8195H2.63672V65.3412L9.80859 62.3561ZM2.63672 77.6582V74.4562H12.8016V77.6582H2.63672ZM15.4383 77.6582V74.4562H20.8742L20.0719 77.6582H15.4383ZM45 55.9176L42.2367 51.7031H47.7631L45 55.9176ZM48.8856 49.0656H41.1142V45.5147H48.8856V49.0656ZM58.9695 33.5222V25.7382C60.5906 26.2888 61.76 27.8255 61.76 29.6302C61.76 31.435 60.5904 32.9718 58.9695 33.5222ZM53.9596 10.7952L52.6799 11.6573C52.0759 12.064 51.9163 12.8833 52.323 13.4872C52.5778 13.8651 52.9938 14.0692 53.4178 14.0692C53.6711 14.0692 53.9272 13.9962 54.1533 13.844L55.8469 12.7032C56.7886 13.967 57.4279 15.4691 57.6534 17.1017H49.4583V8.91983C51.1348 9.14888 52.6739 9.81386 53.9596 10.7952V10.7952ZM43.1787 5.70989H46.8214V17.1019H43.1787V5.70989ZM34.1541 12.7037L35.8471 13.8442C36.0731 13.9964 36.3291 14.0693 36.5825 14.0693C37.0063 14.0693 37.4226 13.8653 37.6773 13.4873C38.0839 12.8835 37.9243 12.0642 37.3205 11.6575L36.0424 10.7965C37.3271 9.81667 38.8652 9.15169 40.5422 8.92124V17.1021H32.3471C32.5724 15.4693 33.2118 13.9676 34.1541 12.7037ZM29.8287 22.8846C29.7714 22.8846 29.7248 22.838 29.7248 22.7809V19.8424C29.7248 19.785 29.7714 19.7386 29.8287 19.7386H60.1712C60.2285 19.7386 60.275 19.7852 60.275 19.8424V22.7809C60.275 22.8382 60.2285 22.8846 60.1712 22.8846H29.8287ZM28.24 29.6302C28.24 27.8255 29.4094 26.2888 31.0305 25.7382V33.5222C29.4096 32.9718 28.24 31.435 28.24 29.6302ZM33.6672 37.6349V25.5213H56.3326V37.6349C56.3326 40.5258 53.9807 42.8778 51.0898 42.8778H38.9101C36.0192 42.8778 33.6672 40.526 33.6672 37.6349V37.6349ZM29.2692 56.4736C29.7146 56.1046 30.215 55.8014 30.7506 55.5785L39.2929 52.0219L43.6816 58.7157V66.6782H31.8957V64.5706C31.8957 61.6514 30.9705 58.8196 29.2692 56.4736ZM31.896 74.9241V69.3149H43.6816V74.9241H31.896ZM58.104 74.9241H46.3184V69.3149H58.104V74.9241ZM75.88 65.0616L74.3337 61.9857H77.4264L75.88 65.0616ZM78.2466 59.3481H73.5135V57.6035H78.2466V59.3481ZM84.382 37.4092H79.4215V32.458C81.9019 32.975 83.8614 34.93 84.382 37.4092V37.4092ZM74.9751 30.1124H76.7848V37.4092H74.9751V30.1124ZM72.3384 32.4592V37.4091H67.3778C67.8983 34.9323 69.8553 32.9785 72.3384 32.4592V32.4592ZM65.4488 40.0459H86.3112V42.1453H65.4488V40.0459ZM68.2404 51.6392V44.782H74.5617V46.5871C74.5617 47.3152 75.1518 47.9055 75.88 47.9055C76.6083 47.9055 77.1984 47.3152 77.1984 46.5871V44.782H83.5196V51.6394C83.5196 53.4742 82.0269 54.967 80.1921 54.967H71.5679C69.7331 54.9668 68.2404 53.4741 68.2404 51.6392V51.6392ZM71.5686 62.3561L74.5617 68.3095V71.8195H68.465L66.6109 64.4198L71.5686 62.3561ZM69.9281 77.6582L69.1258 74.4562H74.5617V77.6582H69.9281ZM77.1984 77.6582V74.4562H79.2478C79.9761 74.4562 80.5662 73.8659 80.5662 73.1378C80.5662 72.4097 79.9761 71.8195 79.2478 71.8195H77.1984V68.3095L80.1914 62.3561L87.3633 65.3414V71.8196H85.3926C84.6643 71.8196 84.0742 72.4099 84.0742 73.138C84.0742 73.8661 84.6643 74.4564 85.3926 74.4564H87.3633V77.6584H77.1984V77.6582Z" fill="#EAA53C"/>
<path d="M75.88 53.0667C77.2803 53.0667 78.5679 52.2469 79.1604 50.9783C79.4684 50.3186 79.1835 49.5341 78.5237 49.2259C77.8639 48.9178 77.0794 49.2031 76.7712 49.8626C76.6104 50.2071 76.2606 50.43 75.88 50.43C75.4994 50.43 75.1496 50.2073 74.9888 49.8626C74.6806 49.2029 73.896 48.9178 73.2362 49.2259C72.5765 49.5339 72.2916 50.3186 72.5996 50.9783C73.1921 52.2469 74.4797 53.0667 75.88 53.0667V53.0667Z" fill="#EAA53C"/>
<path d="M45 33.8702C45.7283 33.8702 46.3184 33.28 46.3184 32.5519V28.3098C46.3184 27.5817 45.7283 26.9914 45 26.9914C44.2717 26.9914 43.6816 27.5817 43.6816 28.3098V32.5519C43.6816 33.28 44.2717 33.8702 45 33.8702Z" fill="#EAA53C"/>
<path d="M45 39.8522C46.7675 39.8522 48.3926 38.8176 49.1405 37.2164C49.4485 36.5567 49.1635 35.7721 48.5038 35.464C47.8443 35.156 47.0594 35.4408 46.7513 36.1007C46.4351 36.778 45.7476 37.2157 45 37.2157C44.2524 37.2157 43.5649 36.778 43.2487 36.1007C42.9405 35.4412 42.1562 35.1557 41.4961 35.464C40.8364 35.7721 40.5515 36.5567 40.8594 37.2164C41.6074 38.8176 43.2325 39.8522 45 39.8522V39.8522Z" fill="#EAA53C"/>
<path d="M14.12 53.0667C15.5203 53.0667 16.8079 52.2469 17.4004 50.9783C17.7084 50.3186 17.4234 49.5341 16.7637 49.2259C16.1038 48.9178 15.3193 49.2031 15.0112 49.8626C14.8504 50.2071 14.5005 50.43 14.12 50.43C13.7394 50.43 13.3896 50.2073 13.2288 49.8626C12.9206 49.2029 12.1359 48.9178 11.4762 49.2259C10.8165 49.5339 10.5316 50.3186 10.8396 50.9783C11.4321 52.2469 12.7197 53.0667 14.12 53.0667V53.0667Z" fill="#EAA53C"/>
</g>
<defs>
<clipPath id="clip0_24_173">
<rect width="90" height="90" fill="white"/>
</clipPath>
</defs>
</svg>
